<svg width="64" height="40" viewBox="0 0 64 40" fill="none" xmlns="http://www.w3.org/2000/svg">
<path d="M0 8C0 3.58172 3.58172 0 8 0H56C60.4183 0 64 3.58172 64 8V32C64 36.4183 60.4183 40 56 40H8C3.58172 40 0 36.4183 0 32V8Z" fill="white"/>
<mask id="mask0" mask-type="alpha" maskUnits="userSpaceOnUse" x="8" y="4" width="48" height="32">
<rect x="8" y="4" width="48" height="32" fill="white"/>
</mask>
<g mask="url(#mask0)">
<path d="M47.628 11.6425H35.2062L33.9428 13.1084L29.8433 17.8652V17.8654L28.58 19.3312H16.3224L17.5662 17.8467L18.1549 17.1441L19.3987 15.6596H13.7507C12.7188 15.6596 11.8745 16.5519 11.8745 17.6423V21.8259C11.8745 22.9165 12.7188 23.8088 13.7507 23.8088H35.3737C36.4055 23.8088 37.815 23.1461 38.506 22.3361L41.7767 18.5019L47.628 11.6425Z" fill="#005697"/>
<path d="M50.1239 7.17029C51.1557 7.17029 52 8.06257 52 9.15317V13.3366C52 14.427 51.1557 15.3195 50.1239 15.3195H44.4943L45.7498 13.8461H45.75L46.3725 13.1157L47.6281 11.6425H35.2064L28.5803 19.3368H16.2466L25.0917 9.02914L25.4263 8.63904C26.1197 7.8312 27.5311 7.17029 28.563 7.17029H50.1239V7.17029Z" fill="#FBD500"/>
<path fill-rule="evenodd" clip-rule="evenodd" d="M16.1026 30.9205C16.1026 30.6474 16.0401 30.4109 15.9153 30.2113C15.7903 30.0117 15.626 29.8593 15.4222 29.7543C15.626 29.6492 15.784 29.4941 15.8962 29.2893C16.0083 29.0844 16.0644 28.8533 16.0644 28.5959V28.4541C16.0644 28.1388 16.0058 27.8763 15.8886 27.666C15.7713 27.4559 15.6068 27.2877 15.3953 27.1617C15.1839 27.0356 14.9301 26.9451 14.6347 26.8898C14.3389 26.8346 14.0102 26.8071 13.6483 26.8071C13.526 26.8071 13.3985 26.8097 13.2661 26.815C13.1334 26.8202 13.0048 26.8268 12.88 26.8346C12.755 26.8425 12.6402 26.8518 12.5359 26.8623C12.4313 26.8729 12.3459 26.8834 12.2797 26.8937C12.1319 26.9202 12.0274 26.9673 11.9663 27.0356C11.9052 27.104 11.8745 27.2275 11.8745 27.406V32.1971C11.8745 32.3758 11.9063 32.4992 11.9701 32.5674C12.0338 32.6358 12.142 32.683 12.2951 32.7093C12.3715 32.725 12.4632 32.7381 12.5702 32.7487C12.6772 32.7592 12.7931 32.7684 12.9181 32.7762C13.043 32.7841 13.1716 32.7906 13.3042 32.796C13.4368 32.8011 13.5667 32.8039 13.6941 32.8039C14.0255 32.8039 14.3376 32.7775 14.6309 32.725C14.9238 32.6727 15.1786 32.5792 15.3953 32.4452C15.6121 32.3114 15.784 32.1301 15.9115 31.9016C16.0388 31.673 16.1026 31.3854 16.1026 31.0386V30.9205ZM14.8029 28.6588C14.8029 28.7429 14.7902 28.8231 14.7646 28.8992C14.7391 28.9752 14.6972 29.0409 14.6386 29.0963C14.5798 29.1513 14.5009 29.196 14.4015 29.23C14.3022 29.2642 14.1759 29.2812 14.023 29.2812H13.1668V27.918C13.1922 27.918 13.2318 27.9169 13.2853 27.9141C13.3388 27.9115 13.3948 27.9102 13.4534 27.9102H13.7477C14.1402 27.9102 14.4142 27.9614 14.5697 28.0638C14.7251 28.1662 14.8029 28.3251 14.8029 28.5405V28.6588ZM14.6079 31.5194C14.7583 31.3987 14.8336 31.2278 14.8336 31.0073V30.9205C14.8336 30.7314 14.7748 30.5673 14.6576 30.428C14.5403 30.2889 14.3288 30.2192 14.023 30.2192H13.1668V31.6927H13.3005C13.3591 31.6927 13.4202 31.6944 13.484 31.6968C13.5477 31.6994 13.6088 31.7009 13.6676 31.7009H13.7936C14.1861 31.7009 14.4576 31.6404 14.6079 31.5194ZM20.2926 29.7622C20.2926 29.4734 20.2505 29.2276 20.1664 29.0254C20.0824 28.8233 19.9638 28.6577 19.8109 28.5289C19.658 28.4003 19.4706 28.3059 19.2488 28.2453C19.0272 28.185 18.7787 28.1547 18.5034 28.1547C18.2484 28.1547 18 28.1732 17.758 28.21C17.5157 28.2466 17.3233 28.2835 17.1807 28.3201C17.0839 28.3466 17.0355 28.4042 17.0355 28.4934V29.1317C17.0355 29.1844 17.0482 29.2212 17.0737 29.242C17.0991 29.2631 17.1322 29.2738 17.1731 29.2738H17.2112C17.2725 29.2684 17.3489 29.2618 17.4406 29.254C17.5324 29.2461 17.6356 29.2397 17.7504 29.2342C17.865 29.2291 17.9847 29.2252 18.1097 29.2224C18.2345 29.2198 18.3582 29.2185 18.4806 29.2185C18.6589 29.2185 18.7991 29.2527 18.901 29.3209C19.0029 29.3893 19.0539 29.5364 19.0539 29.7622V30.0459H18.6411C17.9835 30.0459 17.5056 30.1523 17.2074 30.365C16.9092 30.5777 16.7602 30.9153 16.7602 31.3776V31.4488C16.7602 31.706 16.7972 31.9213 16.871 32.0946C16.9448 32.2681 17.0431 32.4073 17.1653 32.5125C17.2877 32.6174 17.4265 32.6924 17.5821 32.7369C17.7375 32.7815 17.8995 32.8039 18.0676 32.8039C18.297 32.8039 18.4945 32.7724 18.6601 32.7094C18.8257 32.6464 18.9824 32.5596 19.1304 32.4494V32.5754C19.1304 32.6174 19.1456 32.6542 19.1763 32.6856C19.2069 32.7172 19.2425 32.7329 19.2833 32.7329H20.1397C20.1803 32.7329 20.2161 32.7172 20.2467 32.6856C20.2773 32.6542 20.2926 32.6174 20.2926 32.5754V29.7622ZM18.7826 31.7911C18.8869 31.7571 18.9852 31.7163 19.0769 31.6691V30.8023H18.6411C18.5085 30.8023 18.399 30.8141 18.3123 30.8377C18.2256 30.8614 18.1567 30.8969 18.1059 30.9442C18.055 30.9913 18.0192 31.0518 17.9989 31.1253C17.9784 31.1989 17.9683 31.2829 17.9683 31.3775V31.4486C17.9683 31.6165 18.0076 31.7242 18.0867 31.7715C18.1658 31.8188 18.2868 31.8423 18.45 31.8423C18.5671 31.8423 18.678 31.8255 18.7826 31.7911ZM24.9718 32.5675V29.9433C24.9718 29.6967 24.9528 29.4641 24.9145 29.2461C24.8763 29.0283 24.8075 28.839 24.7081 28.6786C24.6087 28.5184 24.4711 28.391 24.2952 28.2966C24.1194 28.202 23.8938 28.1547 23.6185 28.1547C23.3738 28.1547 23.1571 28.1851 22.9687 28.246C22.7801 28.3069 22.5813 28.414 22.3723 28.5675V28.3766C22.3723 28.3344 22.3569 28.2972 22.3265 28.2655C22.2958 28.2337 22.2601 28.2177 22.2193 28.2177H21.3631C21.3221 28.2177 21.2865 28.2334 21.2561 28.265C21.2254 28.2966 21.2102 28.3334 21.2102 28.3753V32.5675C21.2102 32.6096 21.2265 32.6477 21.2599 32.6817C21.2929 32.7159 21.3299 32.7329 21.3707 32.7329H22.2958C22.3366 32.7329 22.3723 32.7159 22.4028 32.6819C22.4335 32.6478 22.4487 32.6099 22.4487 32.5678V29.47C22.5813 29.3966 22.7061 29.3364 22.8234 29.2893C22.9406 29.242 23.0552 29.2185 23.1675 29.2185C23.2846 29.2185 23.3802 29.2302 23.4542 29.254C23.528 29.2775 23.5853 29.3181 23.6261 29.376C23.6669 29.4335 23.695 29.5094 23.7103 29.6036C23.7255 29.6981 23.7333 29.8134 23.7333 29.9497V32.5678C23.7333 32.6099 23.7485 32.6478 23.7792 32.6819C23.8097 32.7159 23.8452 32.7329 23.8862 32.7329H24.8113C24.852 32.7329 24.889 32.7159 24.9221 32.6817C24.9553 32.6477 24.9718 32.6096 24.9718 32.5675ZM28.7335 31.8033V32.5045C28.7335 32.5623 28.7207 32.603 28.6953 32.6266C28.6697 32.6503 28.6289 32.6699 28.5729 32.6856C28.4659 32.712 28.3269 32.7382 28.1563 32.7647C27.9854 32.7907 27.7854 32.8039 27.556 32.8039C27.0157 32.8039 26.5837 32.6333 26.2601 32.2916C25.9364 31.9503 25.7746 31.4564 25.7746 30.8103V30.1484C25.7746 29.5022 25.9364 29.0084 26.2601 28.667C26.5837 28.3254 27.0157 28.1547 27.556 28.1547C27.7854 28.1547 27.9854 28.1678 28.1563 28.194C28.3269 28.2205 28.4659 28.2466 28.5729 28.2728C28.6289 28.2885 28.6697 28.3083 28.6953 28.3319C28.7207 28.3556 28.7335 28.3964 28.7335 28.4541V29.1555C28.7335 29.1975 28.7194 29.2302 28.6915 29.254C28.6634 29.2775 28.6289 29.2893 28.5883 29.2893H28.5729C28.4301 29.2738 28.2939 29.2605 28.1639 29.25C28.0339 29.2397 27.8592 29.2342 27.6401 29.2342C27.5534 29.2342 27.472 29.2487 27.3955 29.2775C27.3189 29.3065 27.2527 29.3564 27.1967 29.4272C27.1405 29.4983 27.096 29.5927 27.0628 29.711C27.0297 29.8291 27.0131 29.9749 27.0131 30.1484V30.8103C27.0131 30.9835 27.0297 31.1293 27.0628 31.2476C27.096 31.3658 27.1405 31.4604 27.1967 31.5312C27.2527 31.6022 27.3189 31.6521 27.3955 31.6809C27.472 31.7099 27.5534 31.7243 27.6401 31.7243C27.8592 31.7243 28.0339 31.7191 28.1639 31.7086C28.2939 31.6981 28.4301 31.6849 28.5729 31.6692H28.5883C28.6289 31.6692 28.6634 31.6809 28.6915 31.7047C28.7194 31.7284 28.7335 31.7611 28.7335 31.8033ZM32.9772 30.2035C32.9772 29.8882 32.935 29.6046 32.8507 29.3525C32.7664 29.1003 32.6438 28.8863 32.483 28.7102C32.3222 28.5343 32.1229 28.3977 31.8856 28.3005C31.648 28.2034 31.3734 28.1547 31.0619 28.1547C30.7504 28.1547 30.4759 28.2034 30.2383 28.3005C30.0008 28.3977 29.8003 28.5343 29.6369 28.7102C29.4734 28.8863 29.3496 29.1003 29.2654 29.3525C29.181 29.6046 29.1389 29.8882 29.1389 30.2035V30.7551C29.1389 31.0703 29.181 31.354 29.2654 31.6062C29.3496 31.8583 29.4734 32.0724 29.6369 32.2484C29.8003 32.4245 30.0008 32.561 30.2383 32.6582C30.4759 32.7552 30.7504 32.8039 31.0619 32.8039C31.3734 32.8039 31.648 32.7552 31.8856 32.6582C32.1229 32.561 32.3222 32.4245 32.483 32.2484C32.6438 32.0724 32.7664 31.8583 32.8507 31.6062C32.935 31.354 32.9772 31.0703 32.9772 30.7551V30.2035ZM31.0619 31.7243C31.5129 31.7243 31.7386 31.4013 31.7386 30.7551V30.2035C31.7386 29.5626 31.5129 29.242 31.0619 29.242C30.8388 29.242 30.6691 29.3222 30.5526 29.4824C30.4359 29.6428 30.3776 29.8831 30.3776 30.2035V30.7551C30.3776 31.0755 30.4359 31.3172 30.5526 31.48C30.6691 31.643 30.8388 31.7243 31.0619 31.7243ZM37.5262 32.5675V29.9433C37.5262 29.6967 37.5068 29.4641 37.4689 29.2461C37.4306 29.0283 37.3617 28.839 37.2622 28.6786C37.1628 28.5184 37.0253 28.391 36.8495 28.2966C36.6736 28.202 36.448 28.1547 36.1729 28.1547C35.9282 28.1547 35.7115 28.1851 35.5229 28.246C35.3343 28.3069 35.1355 28.414 34.9266 28.5675V28.3766C34.9266 28.3344 34.9113 28.2972 34.8805 28.2655C34.8502 28.2337 34.8143 28.2177 34.7737 28.2177H33.9173C33.8765 28.2177 33.8409 28.2334 33.8103 28.265C33.7798 28.2966 33.7644 28.3334 33.7644 28.3753V32.5675C33.7644 32.6096 33.7809 32.6477 33.8141 32.6817C33.8473 32.7159 33.8841 32.7329 33.925 32.7329H34.8502C34.8908 32.7329 34.9266 32.7159 34.9572 32.6819C34.9877 32.6478 35.0031 32.6099 35.0031 32.5678V29.47C35.1355 29.3966 35.2604 29.3364 35.3776 29.2893C35.4949 29.242 35.6096 29.2185 35.7218 29.2185C35.839 29.2185 35.9346 29.2302 36.0084 29.254C36.0822 29.2775 36.1397 29.3181 36.1805 29.376C36.2213 29.4335 36.2492 29.5094 36.2646 29.6036C36.2799 29.6981 36.2875 29.8134 36.2875 29.9497V32.5678C36.2875 32.6099 36.3027 32.6478 36.3334 32.6819C36.364 32.7159 36.3996 32.7329 36.4404 32.7329H37.3655C37.4063 32.7329 37.4433 32.7159 37.4765 32.6817C37.5095 32.6477 37.5262 32.6096 37.5262 32.5675ZM40.86 31.9754V32.5852C40.86 32.6737 40.8116 32.7259 40.7147 32.7413C40.5974 32.7623 40.4955 32.7778 40.4089 32.7883C40.3223 32.7988 40.2227 32.804 40.1108 32.804C39.9028 32.804 39.7191 32.7868 39.5595 32.7528C39.4 32.7186 39.2668 32.6517 39.1604 32.5518C39.0542 32.452 38.973 32.3141 38.9173 32.138C38.8617 31.9621 38.8338 31.7352 38.8338 31.4565V29.1714L38.2222 29.0688C38.1813 29.0583 38.1444 29.0387 38.1113 29.0097C38.0781 28.9809 38.0616 28.9454 38.0616 28.9033V28.3832C38.0616 28.3413 38.0781 28.3031 38.1113 28.2689C38.1444 28.2349 38.1813 28.2177 38.2222 28.2177H38.8338V27.5716C38.8338 27.5295 38.849 27.4955 38.8794 27.4691C38.9095 27.4429 38.9453 27.4246 38.9859 27.414L39.9129 27.2487H39.9357C39.9761 27.2487 40.0092 27.2603 40.0346 27.2839C40.0598 27.3076 40.0725 27.3405 40.0725 27.3824V28.2177H40.6995C40.7401 28.2177 40.7759 28.2336 40.8065 28.2653C40.8371 28.2971 40.8524 28.3344 40.8524 28.3766V29.0202C40.8524 29.0627 40.8371 29.0997 40.8065 29.1315C40.7759 29.1632 40.7401 29.1791 40.6995 29.1791H40.0725V31.4722C40.0725 31.6298 40.0852 31.7311 40.1108 31.7756C40.1362 31.8202 40.2075 31.8425 40.3246 31.8425H40.6995C40.8065 31.8425 40.86 31.8868 40.86 31.9754ZM44.9427 29.7622C44.9427 29.4734 44.9008 29.2276 44.8165 29.0254C44.7325 28.8233 44.614 28.6577 44.4612 28.5289C44.3083 28.4003 44.1209 28.3059 43.8991 28.2453C43.6775 28.185 43.429 28.1547 43.1537 28.1547C42.8986 28.1547 42.6503 28.1732 42.4083 28.21C42.166 28.2466 41.9736 28.2835 41.831 28.3201C41.7339 28.3466 41.6857 28.4042 41.6857 28.4934V29.1317C41.6857 29.1844 41.6983 29.2212 41.7238 29.242C41.7494 29.2631 41.7824 29.2738 41.8232 29.2738H41.8615C41.9228 29.2684 41.9992 29.2618 42.0909 29.254C42.1827 29.2461 42.2859 29.2397 42.4005 29.2342C42.5153 29.2291 42.635 29.2252 42.76 29.2224C42.8848 29.2198 43.0084 29.2185 43.1307 29.2185C43.3091 29.2185 43.4493 29.2527 43.5513 29.3209C43.6532 29.3893 43.7042 29.5364 43.7042 29.7622V30.0459H43.2914C42.6336 30.0459 42.1559 30.1523 41.8577 30.365C41.5595 30.5777 41.4104 30.9153 41.4104 31.3776V31.4488C41.4104 31.706 41.4473 31.9213 41.5213 32.0946C41.5949 32.2681 41.6934 32.4073 41.8156 32.5125C41.938 32.6174 42.0768 32.6924 42.2324 32.7369C42.3878 32.7815 42.5496 32.8039 42.7179 32.8039C42.9473 32.8039 43.1447 32.7724 43.3104 32.7094C43.476 32.6464 43.6325 32.5596 43.7807 32.4494V32.5754C43.7807 32.6174 43.7959 32.6542 43.8266 32.6856C43.857 32.7172 43.8928 32.7329 43.9336 32.7329H44.79C44.8306 32.7329 44.8663 32.7172 44.897 32.6856C44.9275 32.6542 44.9427 32.6174 44.9427 32.5754V29.7622ZM43.4328 31.7911C43.5371 31.7571 43.6354 31.7163 43.7272 31.6691V30.8023H43.2913C43.1588 30.8023 43.0492 30.8141 42.9625 30.8377C42.8758 30.8614 42.8069 30.8969 42.7561 30.9442C42.705 30.9913 42.6693 31.0518 42.6491 31.1253C42.6286 31.1989 42.6185 31.2829 42.6185 31.3775V31.4486C42.6185 31.6165 42.6579 31.7242 42.7369 31.7715C42.816 31.8188 42.937 31.8423 43.1002 31.8423C43.2174 31.8423 43.328 31.8255 43.4328 31.7911ZM48.7045 32.5045V31.8033C48.7045 31.7611 48.6904 31.7284 48.6624 31.7047C48.6343 31.6809 48.6001 31.6692 48.5592 31.6692H48.544C48.4013 31.6849 48.2649 31.6981 48.1349 31.7086C48.005 31.7191 47.8304 31.7243 47.6113 31.7243C47.5244 31.7243 47.4428 31.7099 47.3666 31.6809C47.2901 31.6521 47.2237 31.6022 47.1677 31.5312C47.1116 31.4604 47.067 31.3658 47.034 31.2476C47.0006 31.1293 46.9843 30.9835 46.9843 30.8103V30.1484C46.9843 29.9749 47.0006 29.8291 47.034 29.711C47.067 29.5927 47.1116 29.4983 47.1677 29.4272C47.2237 29.3564 47.2901 29.3065 47.3666 29.2775C47.4428 29.2487 47.5244 29.2342 47.6113 29.2342C47.8304 29.2342 48.005 29.2397 48.1349 29.25C48.2649 29.2605 48.4013 29.2738 48.544 29.2893H48.5592C48.6001 29.2893 48.6343 29.2775 48.6624 29.254C48.6904 29.2302 48.7045 29.1975 48.7045 29.1555V28.4541C48.7045 28.3964 48.6918 28.3556 48.6663 28.3319C48.6405 28.3083 48.6001 28.2885 48.544 28.2728C48.437 28.2466 48.2979 28.2205 48.1272 28.194C47.9564 28.1678 47.7565 28.1547 47.5271 28.1547C46.9865 28.1547 46.5548 28.3254 46.2311 28.667C45.9074 29.0084 45.7456 29.5022 45.7456 30.1484V30.8103C45.7456 31.4564 45.9074 31.9503 46.2311 32.2916C46.5548 32.6333 46.9865 32.8039 47.5271 32.8039C47.7565 32.8039 47.9564 32.7907 48.1272 32.7647C48.2979 32.7382 48.437 32.712 48.544 32.6856C48.6001 32.6699 48.6405 32.6503 48.6663 32.6266C48.6918 32.603 48.7045 32.5623 48.7045 32.5045ZM51.9998 31.9754V32.5852C51.9998 32.6737 51.9512 32.7259 51.8545 32.7413C51.7372 32.7623 51.6352 32.7778 51.5487 32.7883C51.4619 32.7988 51.3625 32.804 51.2505 32.804C51.0425 32.804 50.8589 32.7868 50.6993 32.7528C50.5396 32.7186 50.4065 32.6517 50.3003 32.5518C50.1939 32.452 50.1128 32.3141 50.0571 32.138C50.0015 31.9621 49.9736 31.7352 49.9736 31.4565V29.1714L49.362 29.0688C49.321 29.0583 49.2842 29.0387 49.251 29.0097C49.2178 28.9809 49.2013 28.9454 49.2013 28.9033V28.3832C49.2013 28.3413 49.2178 28.3031 49.251 28.2689C49.2842 28.2349 49.321 28.2177 49.362 28.2177H49.9736V27.5716C49.9736 27.5295 49.9888 27.4955 50.0191 27.4691C50.0493 27.4429 50.0849 27.4246 50.1255 27.414L51.0526 27.2487H51.0754C51.1159 27.2487 51.1489 27.2603 51.174 27.2839C51.1996 27.3076 51.2123 27.3405 51.2123 27.3824V28.2177H51.8392C51.8799 28.2177 51.9156 28.2336 51.9463 28.2653C51.9767 28.2971 51.9921 28.3344 51.9921 28.3766V29.0202C51.9921 29.0627 51.9767 29.0997 51.9463 29.1315C51.9156 29.1632 51.8799 29.1791 51.8392 29.1791H51.2123V31.4722C51.2123 31.6298 51.225 31.7311 51.2505 31.7756C51.2759 31.8202 51.3472 31.8425 51.4646 31.8425H51.8392C51.9463 31.8425 51.9998 31.8868 51.9998 31.9754Z" fill="#005697"/>
</g>
</svg>
