<svg width="64" height="24" viewBox="0 0 64 24" fill="none" xmlns="http://www.w3.org/2000/svg">
<g clip-path="url(#clip0)">
<mask id="mask0" mask-type="alpha" maskUnits="userSpaceOnUse" x="13" y="-1" width="39" height="26">
<rect x="13" y="-1" width="39" height="26" fill="white"/>
</mask>
<g mask="url(#mask0)">
<path d="M45.1977 5.20935H35.105L34.0786 6.40045L30.7477 10.2653V10.2655L29.7213 11.4564H19.762L20.7725 10.2503L21.2509 9.67941L22.2614 8.47329H17.6724C16.8341 8.47329 16.1481 9.19827 16.1481 10.0842V13.4834C16.1481 14.3695 16.8341 15.0945 17.6724 15.0945H35.2411C36.0795 15.0945 37.2247 14.556 37.7861 13.8979L40.4436 10.7826L45.1977 5.20935Z" fill="#005697"/>
<path d="M47.2256 1.57581C48.064 1.57581 48.75 2.30079 48.75 3.1869V6.58592C48.75 7.4719 48.064 8.19701 47.2256 8.19701H42.6516L43.6717 6.99992H43.6718L44.1776 6.40643L45.1978 5.20948H35.1052L29.7214 11.4611H19.7003L26.8869 3.08612L27.1589 2.76917C27.7222 2.11279 28.869 1.57581 29.7074 1.57581H47.2256V1.57581Z" fill="#FBD500"/>
<path fill-rule="evenodd" clip-rule="evenodd" d="M19.5834 20.8729C19.5834 20.651 19.5326 20.4589 19.4312 20.2967C19.3297 20.1345 19.1962 20.0107 19.0305 19.9253C19.1962 19.84 19.3245 19.7139 19.4157 19.5475C19.5068 19.381 19.5523 19.1933 19.5523 18.9842V18.8689C19.5523 18.6127 19.5047 18.3995 19.4095 18.2286C19.3142 18.0579 19.1806 17.9212 19.0087 17.8189C18.8369 17.7164 18.6308 17.6428 18.3907 17.5979C18.1504 17.5531 17.8834 17.5308 17.5892 17.5308C17.4899 17.5308 17.3863 17.5329 17.2787 17.5371C17.1709 17.5414 17.0664 17.5467 16.965 17.5531C16.8635 17.5595 16.7702 17.5671 16.6855 17.5756C16.6005 17.5842 16.5311 17.5927 16.4773 17.6011C16.3572 17.6226 16.2723 17.6609 16.2226 17.7164C16.173 17.7719 16.1481 17.8723 16.1481 18.0174V21.9102C16.1481 22.0553 16.1739 22.1556 16.2257 22.211C16.2775 22.2666 16.3654 22.3049 16.4898 22.3263C16.5518 22.3391 16.6264 22.3497 16.7133 22.3583C16.8003 22.3668 16.8945 22.3743 16.996 22.3807C17.0975 22.387 17.202 22.3924 17.3097 22.3968C17.4174 22.4009 17.5229 22.4031 17.6265 22.4031C17.8957 22.4031 18.1494 22.3817 18.3876 22.3391C18.6256 22.2965 18.8327 22.2206 19.0087 22.1117C19.1848 22.003 19.3245 21.8556 19.4281 21.67C19.5316 21.4843 19.5834 21.2506 19.5834 20.9689V20.8729ZM18.5274 19.0352C18.5274 19.1036 18.5171 19.1687 18.4963 19.2305C18.4756 19.2924 18.4415 19.3457 18.3939 19.3907C18.3462 19.4354 18.2821 19.4717 18.2013 19.4994C18.1205 19.5271 18.018 19.541 17.8938 19.541H17.1981V18.4334C17.2187 18.4334 17.2508 18.4324 17.2943 18.4302C17.3378 18.428 17.3833 18.427 17.4309 18.427H17.6701C17.989 18.427 18.2116 18.4686 18.3379 18.5518C18.4642 18.635 18.5274 18.7641 18.5274 18.9391V19.0352ZM18.369 21.3595C18.4912 21.2614 18.5523 21.1226 18.5523 20.9434V20.8729C18.5523 20.7192 18.5046 20.5859 18.4094 20.4727C18.314 20.3597 18.1422 20.3031 17.8938 20.3031H17.1981V21.5003H17.3067C17.3543 21.5003 17.404 21.5016 17.4558 21.5036C17.5075 21.5058 17.5572 21.507 17.6049 21.507H17.7074C18.0263 21.507 18.2468 21.4578 18.369 21.3595ZM22.9877 19.9317C22.9877 19.6971 22.9535 19.4974 22.8852 19.3331C22.8169 19.1689 22.7206 19.0343 22.5963 18.9297C22.4721 18.8252 22.3199 18.7485 22.1397 18.6993C21.9596 18.6502 21.7577 18.6256 21.534 18.6256C21.3269 18.6256 21.125 18.6407 20.9284 18.6706C20.7315 18.7004 20.5752 18.7303 20.4594 18.76C20.3807 18.7816 20.3413 18.8284 20.3413 18.9008V19.4195C20.3413 19.4623 20.3516 19.4922 20.3724 19.5091C20.3931 19.5262 20.4199 19.5349 20.4532 19.5349H20.4841L20.6705 19.5188C20.7451 19.5124 20.8289 19.5072 20.9222 19.5027C21.0153 19.4986 21.1126 19.4954 21.2141 19.4931C21.3155 19.491 21.416 19.4899 21.5155 19.4899C21.6603 19.4899 21.7742 19.5177 21.8571 19.5732C21.9399 19.6287 21.9813 19.7483 21.9813 19.9317V20.1623H21.6459C21.1116 20.1623 20.7233 20.2487 20.481 20.4215C20.2388 20.5944 20.1176 20.8686 20.1176 21.2442V21.3021C20.1176 21.5111 20.1477 21.686 20.2077 21.8268C20.2677 21.9677 20.3475 22.0809 20.4468 22.1664C20.5463 22.2516 20.6591 22.3125 20.7855 22.3487C20.9118 22.3849 21.0433 22.4032 21.1799 22.4032C21.3664 22.4032 21.5268 22.3775 21.6614 22.3263C21.7959 22.2751 21.9232 22.2047 22.0435 22.1151V22.2174C22.0435 22.2516 22.0558 22.2815 22.0807 22.307C22.1056 22.3327 22.1345 22.3455 22.1677 22.3455H22.8635C22.8965 22.3455 22.9256 22.3327 22.9505 22.307C22.9753 22.2815 22.9877 22.2516 22.9877 22.2174V19.9317ZM21.7609 21.5803C21.8456 21.5526 21.9255 21.5195 22 21.4811V20.7769H21.6459C21.5382 20.7769 21.4492 20.7864 21.3788 20.8056C21.3084 20.8249 21.2524 20.8537 21.2111 20.8921C21.1697 20.9304 21.1407 20.9796 21.1241 21.0393C21.1075 21.0991 21.0992 21.1673 21.0992 21.2442V21.302C21.0992 21.4384 21.1312 21.5259 21.1955 21.5643C21.2597 21.6027 21.358 21.6219 21.4906 21.6219C21.5858 21.6219 21.6759 21.6082 21.7609 21.5803ZM26.7896 22.211V20.0789C26.7896 19.8786 26.7742 19.6895 26.7431 19.5124C26.712 19.3355 26.6561 19.1816 26.5754 19.0513C26.4946 18.9212 26.3828 18.8176 26.2399 18.7409C26.0971 18.6641 25.9137 18.6256 25.6901 18.6256C25.4913 18.6256 25.3152 18.6504 25.1621 18.6998C25.0088 18.7493 24.8473 18.8364 24.6776 18.9611V18.8059C24.6776 18.7716 24.665 18.7414 24.6403 18.7156C24.6154 18.6898 24.5864 18.6768 24.5532 18.6768H23.8575C23.8242 18.6768 23.7953 18.6896 23.7706 18.7152C23.7457 18.7409 23.7333 18.7708 23.7333 18.8049V22.211C23.7333 22.2452 23.7466 22.2762 23.7737 22.3038C23.8005 22.3316 23.8306 22.3455 23.8637 22.3455H24.6154C24.6485 22.3455 24.6776 22.3316 24.7023 22.304C24.7272 22.2763 24.7396 22.2455 24.7396 22.2113V19.6943C24.8473 19.6347 24.9487 19.5858 25.044 19.5475C25.1392 19.5091 25.2324 19.4899 25.3236 19.4899C25.4188 19.4899 25.4964 19.4995 25.5565 19.5188C25.6165 19.5379 25.6631 19.5709 25.6963 19.618C25.7294 19.6646 25.7522 19.7263 25.7646 19.8029C25.777 19.8796 25.7833 19.9734 25.7833 20.0841V22.2113C25.7833 22.2455 25.7957 22.2763 25.8206 22.304C25.8454 22.3316 25.8743 22.3455 25.9076 22.3455H26.6592C26.6923 22.3455 26.7223 22.3316 26.7493 22.3038C26.7762 22.2762 26.7896 22.2452 26.7896 22.211ZM29.846 21.5902V22.1599C29.846 22.2068 29.8356 22.2399 29.8149 22.259C29.7942 22.2783 29.761 22.2943 29.7155 22.307C29.6285 22.3284 29.5157 22.3497 29.377 22.3713C29.2382 22.3924 29.0756 22.4032 28.8892 22.4032C28.4503 22.4032 28.0993 22.2645 27.8364 21.9869C27.5733 21.7096 27.4419 21.3083 27.4419 20.7833V20.2455C27.4419 19.7205 27.5733 19.3192 27.8364 19.0419C28.0993 18.7643 28.4503 18.6256 28.8892 18.6256C29.0756 18.6256 29.2382 18.6363 29.377 18.6575C29.5157 18.6791 29.6285 18.7004 29.7155 18.7216C29.761 18.7344 29.7942 18.7505 29.8149 18.7696C29.8356 18.7889 29.846 18.822 29.846 18.8689V19.4388C29.846 19.4729 29.8345 19.4995 29.8118 19.5188C29.789 19.5379 29.761 19.5475 29.728 19.5475H29.7155C29.5995 19.5349 29.4888 19.5241 29.3832 19.5156C29.2775 19.5072 29.1356 19.5027 28.9576 19.5027C28.8872 19.5027 28.821 19.5145 28.7588 19.5379C28.6966 19.5615 28.6429 19.602 28.5973 19.6596C28.5517 19.7173 28.5155 19.794 28.4886 19.8901C28.4616 19.9861 28.4482 20.1046 28.4482 20.2455V20.7833C28.4482 20.9241 28.4616 21.0425 28.4886 21.1387C28.5155 21.2347 28.5517 21.3115 28.5973 21.3691C28.6429 21.4268 28.6966 21.4673 28.7588 21.4907C28.821 21.5143 28.8872 21.526 28.9576 21.526C29.1356 21.526 29.2775 21.5217 29.3832 21.5132C29.4888 21.5047 29.5995 21.4939 29.7155 21.4811H29.728C29.761 21.4811 29.789 21.4907 29.8118 21.51C29.8345 21.5293 29.846 21.5559 29.846 21.5902ZM33.294 20.2903C33.294 20.0341 33.2597 19.8037 33.1912 19.5988C33.1227 19.394 33.0231 19.2201 32.8925 19.077C32.7618 18.9341 32.5999 18.8231 32.407 18.7441C32.2141 18.6653 31.9909 18.6256 31.7378 18.6256C31.4847 18.6256 31.2617 18.6653 31.0687 18.7441C30.8757 18.8231 30.7128 18.9341 30.58 19.077C30.4472 19.2201 30.3465 19.394 30.2782 19.5988C30.2095 19.8037 30.1754 20.0341 30.1754 20.2903V20.7385C30.1754 20.9945 30.2095 21.2251 30.2782 21.43C30.3465 21.6348 30.4472 21.8087 30.58 21.9518C30.7128 22.0948 30.8757 22.2057 31.0687 22.2847C31.2617 22.3635 31.4847 22.4032 31.7378 22.4032C31.9909 22.4032 32.2141 22.3635 32.407 22.2847C32.5999 22.2057 32.7618 22.0948 32.8925 21.9518C33.0231 21.8087 33.1227 21.6348 33.1912 21.43C33.2597 21.2251 33.294 20.9945 33.294 20.7385V20.2903ZM31.7378 21.526C32.1043 21.526 32.2876 21.2636 32.2876 20.7385V20.2904C32.2876 19.7696 32.1043 19.5091 31.7378 19.5091C31.5566 19.5091 31.4187 19.5743 31.324 19.7044C31.2292 19.8347 31.1818 20.03 31.1818 20.2904V20.7385C31.1818 20.9989 31.2292 21.1952 31.324 21.3275C31.4187 21.4599 31.5566 21.526 31.7378 21.526ZM36.9901 22.211V20.0789C36.9901 19.8786 36.9743 19.6895 36.9435 19.5124C36.9124 19.3355 36.8564 19.1816 36.7755 19.0513C36.6948 18.9212 36.5831 18.8176 36.4403 18.7409C36.2973 18.6641 36.114 18.6256 35.8905 18.6256C35.6917 18.6256 35.5156 18.6504 35.3624 18.6998C35.2091 18.7493 35.0476 18.8364 34.8778 18.9611V18.8059C34.8778 18.7716 34.8655 18.7414 34.8404 18.7156C34.8158 18.6898 34.7866 18.6768 34.7536 18.6768H34.0578C34.0247 18.6768 33.9958 18.6896 33.9709 18.7152C33.9461 18.7409 33.9336 18.7708 33.9336 18.8049V22.211C33.9336 22.2452 33.947 22.2762 33.974 22.3038C34.0009 22.3316 34.0308 22.3455 34.0641 22.3455H34.8158C34.8488 22.3455 34.8778 22.3316 34.9027 22.304C34.9275 22.2763 34.94 22.2455 34.94 22.2113V19.6943C35.0476 19.6347 35.1491 19.5858 35.2443 19.5475C35.3397 19.5091 35.4328 19.4899 35.524 19.4899C35.6192 19.4899 35.6969 19.4995 35.7568 19.5188C35.8168 19.5379 35.8635 19.5709 35.8967 19.618C35.9298 19.6646 35.9525 19.7263 35.965 19.8029C35.9774 19.8796 35.9836 19.9734 35.9836 20.0841V22.2113C35.9836 22.2455 35.996 22.2763 36.0209 22.304C36.0458 22.3316 36.0747 22.3455 36.1078 22.3455H36.8595C36.8927 22.3455 36.9227 22.3316 36.9497 22.3038C36.9765 22.2762 36.9901 22.2452 36.9901 22.211ZM39.6988 21.7299V22.2255C39.6988 22.2974 39.6594 22.3398 39.5808 22.3523C39.4854 22.3693 39.4026 22.3819 39.3323 22.3904C39.2619 22.399 39.181 22.4032 39.09 22.4032C38.9211 22.4032 38.7718 22.3892 38.6422 22.3616C38.5125 22.3338 38.4043 22.2794 38.3179 22.1983C38.2316 22.1172 38.1656 22.0052 38.1204 21.8621C38.0752 21.7192 38.0525 21.5348 38.0525 21.3084V19.4517L37.5556 19.3683C37.5223 19.3598 37.4924 19.3439 37.4654 19.3203C37.4385 19.2969 37.4251 19.2681 37.4251 19.2339V18.8113C37.4251 18.7772 37.4385 18.7463 37.4654 18.7185C37.4924 18.6908 37.5223 18.6769 37.5556 18.6769H38.0525V18.1518C38.0525 18.1177 38.0649 18.09 38.0895 18.0686C38.114 18.0473 38.1431 18.0325 38.1761 18.0238L38.9293 17.8895H38.9478C38.9806 17.8895 39.0075 17.899 39.0281 17.9181C39.0486 17.9374 39.059 17.9641 39.059 17.9982V18.6769H39.5684C39.6014 18.6769 39.6304 18.6898 39.6553 18.7156C39.6802 18.7413 39.6926 18.7717 39.6926 18.806V19.3289C39.6926 19.3634 39.6802 19.3935 39.6553 19.4193C39.6304 19.4451 39.6014 19.458 39.5684 19.458H39.059V21.3211C39.059 21.4492 39.0693 21.5315 39.09 21.5676C39.1107 21.6039 39.1686 21.622 39.2638 21.622H39.5684C39.6553 21.622 39.6988 21.658 39.6988 21.7299ZM43.016 19.9317C43.016 19.6971 42.9819 19.4974 42.9134 19.3331C42.8452 19.1689 42.749 19.0343 42.6247 18.9297C42.5005 18.8252 42.3483 18.7485 42.1681 18.6993C41.988 18.6502 41.7861 18.6256 41.5624 18.6256C41.3551 18.6256 41.1534 18.6407 40.9568 18.6706C40.7599 18.7004 40.6036 18.7303 40.4877 18.76C40.4088 18.7816 40.3697 18.8284 40.3697 18.9008V19.4195C40.3697 19.4623 40.3799 19.4922 40.4007 19.5091C40.4214 19.5262 40.4483 19.5349 40.4814 19.5349H40.5125L40.6989 19.5188C40.7735 19.5124 40.8573 19.5072 40.9505 19.5027C41.0437 19.4986 41.141 19.4954 41.2425 19.4931C41.3439 19.491 41.4444 19.4899 41.5437 19.4899C41.6887 19.4899 41.8026 19.5177 41.8854 19.5732C41.9683 19.6287 42.0097 19.7483 42.0097 19.9317V20.1623H41.6743C41.1398 20.1623 40.7517 20.2487 40.5094 20.4215C40.2672 20.5944 40.146 20.8686 40.146 21.2442V21.3021C40.146 21.5111 40.176 21.686 40.2361 21.8268C40.2959 21.9677 40.3759 22.0809 40.4752 22.1664C40.5747 22.2516 40.6874 22.3125 40.8138 22.3487C40.9401 22.3849 41.0716 22.4032 41.2083 22.4032C41.3947 22.4032 41.5551 22.3775 41.6897 22.3263C41.8243 22.2751 41.9515 22.2047 42.0718 22.1151V22.2174C42.0718 22.2516 42.0842 22.2815 42.1091 22.307C42.1339 22.3327 42.1629 22.3455 42.1961 22.3455H42.8919C42.9249 22.3455 42.9539 22.3327 42.9788 22.307C43.0036 22.2815 43.016 22.2516 43.016 22.2174V19.9317ZM41.7892 21.5803C41.874 21.5526 41.9538 21.5195 42.0284 21.4811V20.7769H41.6743C41.5665 20.7769 41.4775 20.7864 41.4071 20.8056C41.3367 20.8249 41.2807 20.8537 41.2394 20.8921C41.1979 20.9304 41.1688 20.9796 41.1525 21.0393C41.1358 21.0991 41.1276 21.1673 41.1276 21.2442V21.302C41.1276 21.4384 41.1596 21.5259 41.2238 21.5643C41.288 21.6027 41.3863 21.6219 41.5189 21.6219C41.6141 21.6219 41.7041 21.6082 41.7892 21.5803ZM46.0725 22.1599V21.5902C46.0725 21.5559 46.061 21.5293 46.0383 21.51C46.0154 21.4907 45.9876 21.4811 45.9544 21.4811H45.942C45.8261 21.4939 45.7153 21.5047 45.6096 21.5132C45.5041 21.5217 45.3622 21.526 45.1842 21.526C45.1136 21.526 45.0473 21.5143 44.9854 21.4907C44.9232 21.4673 44.8693 21.4268 44.8237 21.3691C44.7782 21.3115 44.742 21.2347 44.7151 21.1387C44.688 21.0425 44.6748 20.9241 44.6748 20.7833V20.2455C44.6748 20.1046 44.688 19.9861 44.7151 19.8901C44.742 19.794 44.7782 19.7173 44.8237 19.6596C44.8693 19.602 44.9232 19.5615 44.9854 19.5379C45.0473 19.5145 45.1136 19.5027 45.1842 19.5027C45.3622 19.5027 45.5041 19.5072 45.6096 19.5156C45.7153 19.5241 45.8261 19.5349 45.942 19.5475H45.9544C45.9876 19.5475 46.0154 19.5379 46.0383 19.5188C46.061 19.4995 46.0725 19.4729 46.0725 19.4388V18.8689C46.0725 18.822 46.0621 18.7889 46.0414 18.7696C46.0205 18.7505 45.9876 18.7344 45.942 18.7216C45.8551 18.7004 45.7421 18.6791 45.6034 18.6575C45.4646 18.6363 45.3022 18.6256 45.1158 18.6256C44.6766 18.6256 44.3258 18.7643 44.0628 19.0419C43.7998 19.3192 43.6683 19.7205 43.6683 20.2455V20.7833C43.6683 21.3083 43.7998 21.7096 44.0628 21.9869C44.3258 22.2645 44.6766 22.4032 45.1158 22.4032C45.3022 22.4032 45.4646 22.3924 45.6034 22.3713C45.7421 22.3497 45.8551 22.3284 45.942 22.307C45.9876 22.2943 46.0205 22.2783 46.0414 22.259C46.0621 22.2399 46.0725 22.2068 46.0725 22.1599ZM48.7498 21.7299V22.2255C48.7498 22.2974 48.7103 22.3398 48.6318 22.3523C48.5365 22.3693 48.4536 22.3819 48.3833 22.3904C48.3128 22.399 48.232 22.4032 48.1411 22.4032C47.9721 22.4032 47.8228 22.3892 47.6932 22.3616C47.5634 22.3338 47.4553 22.2794 47.369 22.1983C47.2826 22.1172 47.2167 22.0052 47.1714 21.8621C47.1262 21.7192 47.1035 21.5348 47.1035 21.3084V19.4517L46.6066 19.3683C46.5734 19.3598 46.5434 19.3439 46.5165 19.3203C46.4895 19.2969 46.4761 19.2681 46.4761 19.2339V18.8113C46.4761 18.7772 46.4895 18.7463 46.5165 18.7185C46.5434 18.6908 46.5734 18.6769 46.6066 18.6769H47.1035V18.1518C47.1035 18.1177 47.1159 18.09 47.1406 18.0686C47.1651 18.0473 47.194 18.0325 47.227 18.0238L47.9802 17.8895H47.9988C48.0317 17.8895 48.0585 17.899 48.0789 17.9181C48.0997 17.9374 48.11 17.9641 48.11 17.9982V18.6769H48.6194C48.6524 18.6769 48.6814 18.6898 48.7063 18.7156C48.7311 18.7413 48.7436 18.7717 48.7436 18.806V19.3289C48.7436 19.3634 48.7311 19.3935 48.7063 19.4193C48.6814 19.4451 48.6524 19.458 48.6194 19.458H48.11V21.3211C48.11 21.4492 48.1203 21.5315 48.1411 21.5676C48.1617 21.6039 48.2196 21.622 48.315 21.622H48.6194C48.7063 21.622 48.7498 21.658 48.7498 21.7299Z" fill="#005697"/>
</g>
</g>
<defs>
<clipPath id="clip0">
<rect width="64" height="24" rx="1" fill="white"/>
</clipPath>
</defs>
</svg>
