<svg width="64" height="40" viewBox="0 0 64 40" fill="none" xmlns="http://www.w3.org/2000/svg">
<path d="M0 8C0 3.58172 3.58172 0 8 0H56C60.4183 0 64 3.58172 64 8V32C64 36.4183 60.4183 40 56 40H8C3.58172 40 0 36.4183 0 32V8Z" fill="white"/>
<path d="M37.1502 23.6457C37.4367 23.7154 37.7068 23.8418 37.9452 24.0175H37.9439C38.4256 24.3727 38.7488 24.9075 38.8424 25.5044C38.9359 26.1014 38.7922 26.7116 38.4428 27.201L35.8026 30.8869C35.4529 31.3757 34.9263 31.7034 34.3386 31.7981C33.7509 31.8927 33.1502 31.7464 32.6688 31.3914C32.1873 31.0364 31.8645 30.5018 31.7713 29.9051C31.6781 29.3085 31.8222 28.6987 32.1719 28.2099L34.8121 24.5227C34.9851 24.2806 35.2034 24.0755 35.4546 23.9191C35.7057 23.7627 35.9847 23.6581 36.2756 23.6112C36.5665 23.5643 36.8637 23.576 37.1502 23.6457Z" fill="black"/>
<path d="M40.8437 29.445C41.2872 29.4626 41.7157 29.6132 42.0748 29.878C42.5562 30.2332 42.8789 30.7679 42.9722 31.3645C43.0655 31.9612 42.9217 32.571 42.5724 33.0601C42.3117 33.4248 41.9502 33.7028 41.5339 33.8589C41.1175 34.015 40.6649 34.0423 40.2332 33.9372C39.8016 33.8322 39.4103 33.5996 39.1089 33.2688C38.8075 32.938 38.6095 32.5239 38.5399 32.0789C38.4703 31.6338 38.5322 31.1778 38.7179 30.7685C38.9036 30.3592 39.2047 30.015 39.5831 29.7794C39.9615 29.5439 40.4001 29.4275 40.8437 29.445Z" fill="black"/>
<path d="M26.4867 8.36841C26.4691 8.81873 26.3204 9.25365 26.0594 9.61817C25.7095 10.1067 25.1828 10.4342 24.5952 10.5287C24.0076 10.6231 23.407 10.4768 22.9256 10.1219C22.5664 9.85715 22.2926 9.49014 22.1389 9.06735C21.9851 8.64456 21.9584 8.18498 22.0619 7.74675C22.1655 7.30851 22.3948 6.91131 22.7208 6.60537C23.0467 6.29944 23.4548 6.09853 23.8932 6.02804C24.3317 5.95755 24.7809 6.02066 25.184 6.20939C25.5871 6.39811 25.9261 6.70398 26.1579 7.08828C26.3898 7.47259 26.5042 7.91808 26.4867 8.36841Z" fill="black"/>
<path d="M38.2997 10.4139C38.586 10.4839 38.856 10.6105 39.0941 10.7866V10.7872C39.3328 10.9626 39.535 11.1841 39.6893 11.4389C39.8435 11.6938 39.9467 11.977 39.9929 12.2724C40.0392 12.5679 40.0275 12.8696 39.9587 13.1605C39.8898 13.4513 39.7651 13.7255 39.5917 13.9673L29.0381 28.7151C28.688 29.2038 28.161 29.5313 27.573 29.6255C26.9851 29.7197 26.3844 29.5729 25.903 29.2175C25.4216 28.8621 25.099 28.327 25.0062 27.7301C24.9603 27.4346 24.9721 27.1327 25.0411 26.8418C25.11 26.5509 25.2347 26.2767 25.4081 26.0347L35.9617 11.289C36.1347 11.047 36.353 10.842 36.6042 10.6858C36.8553 10.5296 37.1343 10.4251 37.4253 10.3785C37.7162 10.3318 38.0133 10.3438 38.2997 10.4139Z" fill="black"/>
<path d="M28.7262 16.3905C28.1383 16.4856 27.5373 16.3398 27.0552 15.9852C26.8163 15.8093 26.6138 15.5873 26.4594 15.332C26.305 15.0766 26.2017 14.7928 26.1555 14.4969C26.1092 14.201 26.1208 13.8987 26.1897 13.6073C26.2586 13.316 26.3834 13.0413 26.557 12.7989L29.1972 9.11301C29.5473 8.62432 30.0743 8.29684 30.6623 8.20262C30.9534 8.15597 31.2507 8.16799 31.5373 8.23799C31.8238 8.30799 32.094 8.43461 32.3323 8.61061C32.5707 8.7866 32.7725 9.00854 32.9264 9.26374C33.0803 9.51894 33.1831 9.80241 33.2291 10.098C33.275 10.3935 33.2632 10.6954 33.1942 10.9863C33.1253 11.2772 33.0006 11.5515 32.8272 11.7934L30.1903 15.478C29.8407 15.9671 29.3141 16.2953 28.7262 16.3905Z" fill="black"/>
</svg>
