<svg width="64" height="24" viewBox="0 0 64 24" fill="none" xmlns="http://www.w3.org/2000/svg">
<g clip-path="url(#clip0)">
<path d="M31.1038 9.93841C30.5929 9.93841 30.1549 10.3542 30.1549 10.8392V17.5607C30.1549 18.0457 30.5929 18.4615 31.1038 18.4615C31.6147 18.4615 32.0527 18.0457 32.0527 17.5607V10.8392C32.1257 10.3542 31.6877 9.93841 31.1038 9.93841ZM31.1038 6.61232C30.5199 6.61232 30.009 7.09738 30.009 7.65172C30.009 8.20607 30.5199 8.69112 31.1038 8.69112C31.6877 8.69112 32.1987 8.20607 32.1987 7.65172C32.1987 7.02808 31.7607 6.61232 31.1038 6.61232ZM40.5195 10.8392C40.5195 10.2849 40.0086 10.077 39.6436 10.077H34.8993C34.4614 10.077 34.0234 10.4235 34.0234 10.8392C34.0234 11.255 34.3884 11.6707 34.8993 11.6707H38.0379L34.0234 17.0063C33.8774 17.1449 33.8044 17.3528 33.8044 17.5607C33.8044 18.115 34.3154 18.4615 34.6803 18.4615H39.7166C40.1546 18.4615 40.5195 18.115 40.5195 17.63C40.5195 17.2142 40.1546 16.7984 39.7166 16.7984H36.2861L40.2276 11.6014C40.4465 11.255 40.5195 11.0471 40.5195 10.8392ZM26.5054 15.0661C26.5054 16.1748 25.9945 16.8677 24.8267 16.8677C23.6588 16.8677 23.1479 16.1748 23.1479 15.0661V11.6014H24.8997C26.2865 11.6014 26.5054 12.3637 26.5054 13.1259V15.0661ZM28.4032 13.1259C28.4032 11.255 27.3813 10.0077 24.8997 10.0077H23.1479V7.51314C23.1479 7.02808 22.71 6.61232 22.199 6.61232C21.6881 6.61232 21.2502 7.02808 21.2502 7.51314V15.0661C21.2502 16.937 22.345 18.4615 24.8267 18.4615C27.3083 18.4615 28.4032 16.937 28.4032 15.0661V13.1259ZM47.9645 9.93841C47.4536 9.93841 47.0156 10.3542 47.0156 10.8392V15.0661C47.0156 16.1748 46.5047 16.8677 45.3369 16.8677C44.169 16.8677 43.6581 16.1748 43.6581 15.0661V10.8392C43.6581 10.3542 43.2202 9.93841 42.7092 9.93841C42.1983 9.93841 41.7604 10.3542 41.7604 10.8392V15.0661C41.7604 16.937 42.8552 18.4615 45.3369 18.4615C47.8185 18.4615 48.9134 16.937 48.9134 15.0661V10.8392C48.9134 10.3542 48.4754 9.93841 47.9645 9.93841ZM62.4895 13.3338C62.4895 11.4629 61.6136 9.93841 59.059 9.93841C57.9641 9.93841 57.1612 10.2849 56.5773 10.7699C56.0664 10.2156 55.2635 9.93841 54.1686 9.93841C51.687 9.93841 50.7381 11.4629 50.7381 13.3338V17.5607C50.7381 18.0457 51.1761 18.4615 51.687 18.4615C52.1979 18.4615 52.6359 18.0457 52.6359 17.5607V13.3338C52.6359 12.2251 53.0008 11.5322 54.1686 11.5322C55.3365 11.5322 55.7014 12.2251 55.7014 13.3338V17.5607C55.7014 18.0457 56.1394 18.4615 56.6503 18.4615C57.1612 18.4615 57.5992 18.0457 57.5992 17.5607V13.3338C57.5992 12.2251 57.9641 11.5322 59.132 11.5322C60.2998 11.5322 60.6648 12.2251 60.6648 13.3338V17.5607C60.6648 18.0457 61.1027 18.4615 61.6136 18.4615C62.1246 18.4615 62.5625 18.0457 62.5625 17.5607L62.4895 13.3338ZM3.80556 9.93841C4.46247 10.4235 5.41134 10.2849 5.92227 9.59194L7.67403 7.30526C8.18496 6.68162 8.03898 5.7808 7.30908 5.29575C6.65217 4.87999 5.77629 5.01858 5.26536 5.64222L3.5136 7.9289C3.00267 8.62183 3.14865 9.45335 3.80556 9.93841ZM11.9074 6.68162C11.2505 6.19656 10.3017 6.33515 9.79074 7.02808L2.71071 16.2441C2.27277 16.8677 2.41875 17.7686 3.07566 18.2536C3.73257 18.7387 4.68144 18.6001 5.19237 17.9071L12.2724 8.69112C12.7103 8.06748 12.5644 7.16667 11.9074 6.68162ZM3.14865 5.98868C3.65958 5.36504 3.5136 4.46423 2.7837 3.97918C2.12679 3.49412 1.25091 3.63271 0.739981 4.25635C0.229051 4.87999 0.375031 5.7808 1.10493 6.26586C1.76184 6.75091 2.71071 6.61232 3.14865 5.98868ZM13.8782 18.6694C13.2213 18.1843 12.2724 18.3229 11.7615 19.0158C11.2505 19.6395 11.3965 20.5403 12.1264 21.0253C12.7833 21.5104 13.7322 21.3718 14.2431 20.6789C14.6811 19.9859 14.5351 19.0851 13.8782 18.6694ZM11.1046 14.9968C10.4476 14.5118 9.49878 14.6504 8.98785 15.3433L7.23609 17.5607C6.72516 18.1843 6.87114 19.0851 7.60104 19.5702C8.25795 20.0552 9.20682 19.9166 9.71775 19.2237L11.4695 16.937C11.9074 16.3134 11.7615 15.4126 11.1046 14.9968Z" fill="black"/>
</g>
<defs>
<clipPath id="clip0">
<rect width="64" height="24" rx="1" fill="white"/>
</clipPath>
</defs>
</svg>
