<svg width="64" height="24" viewBox="0 0 64 24" fill="none" xmlns="http://www.w3.org/2000/svg">
<g clip-path="url(#clip0)">
<path d="M42.3228 11.8042H39.429C39.1071 11.8042 38.8453 11.5502 38.8453 11.2322C38.8453 10.9142 39.1071 10.6343 39.429 10.6343H43.8346V8.48181H39.429C37.8913 8.48181 36.6402 9.72344 36.6402 11.2426C36.6402 12.7618 37.8913 14.0035 39.429 14.0035H42.2835C42.6053 14.0035 42.8672 14.2564 42.8672 14.5744C42.8672 14.8924 42.6053 15.1265 42.2835 15.1265H36.1624C35.6427 16.1092 35.1374 16.9515 34.1116 17.3726H42.3228C43.8346 17.3511 45.0712 16.0838 45.0712 14.5781C45.0712 13.0724 43.8346 11.8257 42.3228 11.8042Z" fill="#71706F"/>
<path d="M31.2297 8.48181C28.777 8.48181 26.7794 10.4722 26.7794 12.9179V13.0114V22.1456H28.9999V17.3726H31.225C33.6777 17.3726 35.6683 15.3558 35.6683 12.9101C35.6683 10.4644 33.6824 8.48181 31.2297 8.48181ZM31.2297 15.1265H28.9999V12.9101C28.9999 11.6716 29.9955 10.6639 31.2297 10.6639C32.4639 10.6639 33.468 11.6716 33.468 12.9101C33.468 14.1487 32.4639 15.1265 31.2297 15.1265Z" fill="#71706F"/>
<path d="M19.7497 17.3726C17.6502 17.3726 15.885 15.8908 15.4074 13.955C15.4074 13.955 15.2694 13.3149 15.2694 12.8934C15.2694 12.472 15.4 11.8253 15.4 11.8253C15.8811 9.89424 17.6441 8.45627 19.7402 8.45627C22.2054 8.45627 24.2283 10.4412 24.2283 12.8829V13.9567H17.6786C18.0654 14.7054 18.8476 15.1265 19.7497 15.1265H25.6375L25.6456 8.79445C25.6456 7.85038 24.8659 7.078 23.9127 7.078H15.5676C14.6145 7.078 13.8346 7.82698 13.8346 8.77105V17.0366C13.8346 17.9807 14.6145 18.7764 15.5676 18.7764H23.9127C24.7681 18.7764 25.4816 18.1681 25.6194 17.3726H19.7497Z" fill="#C8036F"/>
<path d="M19.7401 10.5574C18.8416 10.5574 18.0601 11.1022 17.6718 11.8041H21.8086C21.4203 11.1022 20.6389 10.5574 19.7401 10.5574Z" fill="#C8036F"/>
<path d="M23.5197 4.3901C23.5197 2.37278 21.827 0.737427 19.739 0.737427C17.6857 0.737427 16.0156 2.31929 15.9608 4.29038C15.9599 4.29871 15.9606 4.30681 15.9606 4.31537V5.41306C15.9606 5.54436 16.0685 5.67417 16.2044 5.67417H17.5953C17.7312 5.67417 17.8504 5.54436 17.8504 5.41306V4.3901C17.8504 3.38273 18.6974 2.56313 19.7401 2.56313C20.7828 2.56313 21.6299 3.38273 21.6299 4.3901V5.41306C21.6299 5.54436 21.7401 5.67417 21.876 5.67417H23.2669C23.4028 5.67417 23.5197 5.54436 23.5197 5.41306V4.3901Z" fill="#C8036F"/>
<path d="M33.721 20.227L33.5199 21.3547C33.4194 21.9246 33.0423 22.1856 32.5312 22.1856C32.0983 22.1856 31.7632 21.9062 31.8609 21.3556L32.062 20.2271H32.372L32.1709 21.3547C32.1094 21.7062 32.2686 21.9063 32.5703 21.9063C32.8803 21.9063 33.1456 21.7236 33.2098 21.3556L33.4109 20.2271H33.721V20.227ZM32.5032 19.8739C32.5032 19.968 32.5759 20.0121 32.6541 20.0121C32.7518 20.0121 32.858 19.943 32.858 19.813C32.858 19.7218 32.7964 19.6748 32.7155 19.6748C32.6151 19.6748 32.5032 19.7384 32.5032 19.8739ZM33.1736 19.8712C33.1736 19.9679 33.249 20.0121 33.33 20.0121C33.4166 20.0121 33.5311 19.943 33.5311 19.8158C33.5311 19.7246 33.464 19.6748 33.3886 19.6748C33.2881 19.6748 33.1736 19.7384 33.1736 19.8712Z" fill="#71706F"/>
<path d="M34.4702 20.2271L34.3305 21.0062C34.4506 20.8459 34.6908 20.7611 34.8583 20.7611C35.2046 20.7611 35.4448 20.9621 35.4448 21.3354C35.4448 21.8638 35.0734 22.1815 34.5987 22.1815C34.4143 22.1815 34.2579 22.1136 34.1629 21.9422L34.1099 22.1456H33.839L34.1825 20.2271H34.4702ZM34.2524 21.542C34.2412 21.7689 34.3892 21.9155 34.6042 21.9155C34.8751 21.9155 35.1376 21.7079 35.1544 21.3927C35.1656 21.1631 35.0148 21.0275 34.8052 21.0275C34.5371 21.0275 34.269 21.2405 34.2524 21.542Z" fill="#71706F"/>
<path d="M36.0095 21.5841C35.9984 21.7712 36.1464 21.9241 36.3978 21.9241C36.5374 21.9241 36.7217 21.87 36.8222 21.776L36.9786 21.955C36.8083 22.1098 36.5569 22.1869 36.3447 22.1869C35.9482 22.1869 35.7163 21.9517 35.7163 21.592C35.7163 21.1135 36.0961 20.7568 36.582 20.7568C37.0261 20.7568 37.2775 21.0225 37.1266 21.5841H36.0095ZM36.8921 21.3501C36.9144 21.1161 36.7748 21.0209 36.5429 21.0209C36.3335 21.0209 36.1408 21.1161 36.057 21.3501H36.8921Z" fill="#71706F"/>
<path d="M37.8952 20.7885L37.8812 20.9689C38.0154 20.7944 38.1773 20.7589 38.3253 20.7589C38.4593 20.7589 38.5793 20.806 38.6436 20.8751L38.4705 21.1241C38.4091 21.0689 38.3476 21.0413 38.2414 21.0413C38.0432 21.0413 37.8477 21.159 37.803 21.4107L37.6719 22.1456H37.3842L37.6271 20.7885H37.8952Z" fill="#71706F"/>
<path d="M40.0294 20.7886L40.1745 21.8617L40.6996 20.7886H41.0207L40.3002 22.1456H39.9623L39.8255 21.2504L39.6048 21.6951L39.3647 22.1456H39.0295L38.7865 20.7886H39.1105L39.2529 21.8617L39.7808 20.7886H40.0294Z" fill="#71706F"/>
<path d="M41.39 21.5841C41.3788 21.7712 41.5269 21.9241 41.7782 21.9241C41.9179 21.9241 42.1022 21.87 42.2026 21.776L42.3591 21.955C42.1888 22.1098 41.9374 22.1869 41.7252 22.1869C41.3286 22.1869 41.0968 21.9517 41.0968 21.592C41.0968 21.1135 41.4766 20.7568 41.9625 20.7568C42.4066 20.7568 42.658 21.0225 42.5071 21.5841H41.39ZM42.2725 21.3501C42.2949 21.1161 42.1553 21.0209 41.9234 21.0209C41.714 21.0209 41.5213 21.1161 41.4374 21.3501H42.2725Z" fill="#71706F"/>
<path d="M43.2953 20.7885L43.0524 22.1455H42.7646L43.0077 20.7885H43.2953ZM43.0412 20.4188C43.0412 20.5156 43.1138 20.5656 43.192 20.5656C43.3037 20.5656 43.4071 20.4936 43.4071 20.3581C43.4071 20.2667 43.3372 20.2141 43.2618 20.2141C43.1584 20.2141 43.0412 20.2806 43.0412 20.4188Z" fill="#71706F"/>
<path d="M44.5719 21.1243C44.4825 21.0247 44.3681 20.997 44.2312 20.997C44.0412 20.997 43.9072 21.0607 43.9072 21.1796C43.9072 21.2792 44.0161 21.3208 44.1781 21.3346C44.4295 21.3566 44.7506 21.4397 44.6836 21.791C44.6361 22.0455 44.3792 22.1948 44.0216 22.1948C43.7983 22.1948 43.5832 22.145 43.438 21.9431L43.6251 21.7412C43.7284 21.8822 43.91 21.9404 44.0719 21.9431C44.2087 21.9431 44.3708 21.8933 44.3959 21.7661C44.421 21.6444 44.3121 21.5974 44.111 21.5779C43.8764 21.5558 43.6195 21.4702 43.6195 21.2128C43.6195 20.8726 43.9909 20.7537 44.2702 20.7537C44.4824 20.7537 44.6389 20.8006 44.7673 20.9362L44.5719 21.1243Z" fill="#71706F"/>
<path d="M45.4798 20.7886L45.3487 21.5194C45.3068 21.7518 45.4129 21.9123 45.653 21.9123C45.8792 21.9123 46.0719 21.7267 46.111 21.4999L46.2366 20.7886H46.5243L46.2814 22.1456H46.0217L46.0412 21.949C45.8792 22.1011 45.72 22.1728 45.5274 22.1728C45.1894 22.1728 44.9883 21.9329 45.0609 21.5208L45.1922 20.7886H45.4798Z" fill="#71706F"/>
<path d="M47.7873 22.1456L47.9185 21.4193C47.9604 21.1841 47.8795 21.0284 47.6169 21.0284C47.3879 21.0284 47.1951 21.2108 47.1561 21.4349L47.0304 22.1456H46.7428L46.9859 20.7886H47.2483L47.2288 20.9869C47.388 20.8403 47.5527 20.7679 47.7314 20.7679C48.0666 20.7679 48.2845 20.9989 48.2091 21.4166L48.0777 22.1456H47.7873Z" fill="#71706F"/>
<path d="M48.7624 22.3327C48.7428 22.5199 48.888 22.5956 49.1311 22.5956C49.3434 22.5956 49.5725 22.4782 49.6255 22.1795L49.6673 21.9465C49.5417 22.1207 49.3127 22.1895 49.1424 22.1895C48.7904 22.1895 48.5447 21.9819 48.5447 21.6056C48.5447 21.0691 48.9468 20.7592 49.402 20.7592C49.5948 20.7592 49.768 20.8498 49.8294 21.0047L49.8769 20.7884H50.1562L49.9159 22.1858C49.8266 22.7032 49.4384 22.8637 49.0838 22.8637C48.6592 22.8637 48.4247 22.6601 48.4832 22.3326H48.7624V22.3327ZM48.8434 21.5503C48.8434 21.7825 48.997 21.9237 49.2178 21.9237C49.8125 21.9237 49.9718 21.0191 49.3768 21.0191C49.0947 21.0192 48.8434 21.2265 48.8434 21.5503Z" fill="#71706F"/>
</g>
<defs>
<clipPath id="clip0">
<rect width="64" height="24" rx="1" fill="white"/>
</clipPath>
</defs>
</svg>
