<svg width="64" height="40" viewBox="0 0 64 40" fill="none" xmlns="http://www.w3.org/2000/svg">
<path d="M0 8C0 3.58172 3.58172 0 8 0H56C60.4183 0 64 3.58172 64 8V32C64 36.4183 60.4183 40 56 40H8C3.58172 40 0 36.4183 0 32V8Z" fill="white"/>
<mask id="mask0" mask-type="alpha" maskUnits="userSpaceOnUse" x="8" y="4" width="48" height="32">
<rect x="8" y="4" width="48" height="32" fill="white"/>
</mask>
<g mask="url(#mask0)">
<path d="M39.8729 20.1496C39.8729 21.5812 39.1034 22.7632 37.6665 22.7632C37.05 22.8034 36.4612 22.501 36.1347 21.9767H36.1159V24.6001H34.4463V17.8233H35.9861V18.6948H36.0049C36.3619 18.0434 37.0643 17.6596 37.8051 17.7106C39.0452 17.8072 39.9713 18.8907 39.8747 20.1299C39.8738 20.1362 39.8738 20.1434 39.8729 20.1496Z" fill="white"/>
<path d="M45.4201 21.5117C45.413 21.8937 45.4434 22.2758 45.5096 22.6515H43.9796C43.9706 22.393 43.942 22.1415 43.942 21.8919H43.9232C43.6226 22.452 43.0285 22.7902 42.3932 22.7634C41.4376 22.7634 40.585 22.2901 40.585 21.2423C40.585 19.7687 42.1892 19.5924 43.0804 19.5924C43.3416 19.5933 43.602 19.6148 43.8588 19.6569C43.849 18.9983 43.3578 18.823 42.7547 18.823C42.2196 18.8095 41.69 18.933 41.2149 19.1809L41.1862 18.0499C41.8009 17.8092 42.4568 17.6929 43.1162 17.7072C44.3509 17.7072 45.4174 18.2342 45.4174 19.7079L45.4201 21.5117Z" fill="white"/>
<path d="M37.8051 17.7106C37.0643 17.6596 36.3619 18.0443 36.0049 18.6948H35.9861V17.8233H34.4463V24.6H36.1159V21.9767H36.1347C36.4621 22.501 37.05 22.8034 37.6665 22.7632C39.1034 22.7632 39.8729 21.5776 39.8729 20.1496C39.9811 18.9113 39.064 17.8197 37.8248 17.7124C37.8186 17.7115 37.8123 17.7106 37.8051 17.7106ZM45.4283 21.5105V19.7121C45.4283 18.2385 44.3627 17.7115 43.127 17.7115C42.4676 17.6971 41.8118 17.8135 41.1971 18.0541L41.2257 19.1851C41.7008 18.9373 42.2305 18.8138 42.7656 18.8272C43.3686 18.8272 43.8598 19.0061 43.8697 19.6611C43.6129 19.619 43.3525 19.5976 43.0912 19.5967C42.1965 19.5967 40.5958 19.7756 40.5958 21.2466C40.5958 22.2934 41.4485 22.7676 42.4041 22.7676C43.0394 22.7945 43.6335 22.4563 43.9341 21.8961H43.9529C43.9529 22.1458 43.9815 22.3963 43.9905 22.6558H45.5178C45.4507 22.2773 45.4211 21.8944 45.4283 21.5105Z" fill="#0B3677"/>
<path d="M49.919 21.6852L49.6711 22.3115C49.1969 23.5248 48.8354 24.7022 47.3054 24.7022C46.9556 24.7022 46.6075 24.6656 46.2666 24.5913L46.3785 23.3199C46.5905 23.3915 46.8133 23.4264 47.037 23.4228C47.4414 23.4299 47.7949 23.1499 47.8807 22.7544L45.924 17.8146H47.7224L48.7612 20.9667H48.78L49.7713 17.8146H51.4418L49.919 21.6852ZM43.986 22.647C43.977 22.3876 43.9484 22.137 43.9484 21.8874H43.9296C43.629 22.4475 43.034 22.7857 42.3996 22.7589C41.444 22.7589 40.5913 22.2856 40.5913 21.2378C40.5913 19.7642 42.1956 19.5879 43.0867 19.5879C43.3471 19.5888 43.6075 19.6103 43.8652 19.6523C43.8553 18.9938 43.3641 18.8185 42.7611 18.8185C42.2251 18.805 41.6954 18.9276 41.2212 19.1763L41.1926 18.0454C41.8073 17.8047 42.4631 17.6884 43.1225 17.7027C44.3573 17.7027 45.4238 18.2297 45.4238 19.7033V21.5018C45.4166 21.8838 45.4462 22.265 45.5133 22.6417L43.986 22.647ZM37.6611 22.758C37.0446 22.7982 36.4558 22.4958 36.1293 21.9715H36.1105V24.5931H34.4409V17.8163H35.9807V18.6878H35.9995C36.3565 18.0365 37.0589 17.6526 37.7997 17.7036C39.0389 17.8011 39.965 18.8847 39.8675 20.1239C39.8675 20.1292 39.8666 20.1346 39.8666 20.14C39.8675 21.568 39.0989 22.7535 37.6619 22.7535L37.6611 22.758ZM32.8572 28.5738H12.9699C11.915 28.5729 11.0605 27.7184 11.0587 26.6644V13.986C11.0596 12.9311 11.915 12.0766 12.9699 12.0766H32.8572V28.5738ZM51.0329 10.6504H12.9699C11.1276 10.6495 9.63249 12.1419 9.63159 13.9851V26.6644C9.63338 28.5067 11.1276 29.9991 12.9699 30H51.0302C52.8725 30 54.3676 28.5076 54.3685 26.6644V13.986C54.3685 12.1437 52.8752 10.6504 51.0329 10.6504Z" fill="#0B3677"/>
<path d="M37.1368 21.4837C36.514 21.4255 36.0568 20.8735 36.115 20.2507C36.115 19.5269 36.5239 18.9909 37.1368 18.9909C37.7264 19.0187 38.1818 19.5179 38.1541 20.1076C38.1532 20.1335 38.1505 20.1604 38.1478 20.1863C38.1478 20.954 37.7676 21.4837 37.1377 21.4837H37.1368ZM37.8051 17.7106C37.0643 17.6596 36.3619 18.0434 36.0049 18.6948H35.9861V17.8233H34.4463V24.6001H36.1159V21.9767H36.1347C36.4612 22.501 37.05 22.8034 37.6665 22.7632C39.1034 22.7632 39.8729 21.5776 39.8729 20.1496C39.9803 18.9113 39.0631 17.8197 37.8248 17.7124C37.8186 17.7115 37.8114 17.7106 37.8051 17.7106Z" fill="white"/>
<path d="M42.8288 21.645C42.4387 21.645 42.1417 21.4508 42.1417 21.1171C42.1417 20.6527 42.5891 20.4773 43.1536 20.4773C43.4033 20.4773 43.6448 20.4943 43.8578 20.5042C43.8882 21.1028 43.4274 21.6137 42.8288 21.645ZM45.4173 21.5063V19.7079C45.4173 18.2342 44.3517 17.7072 43.1161 17.7072C42.4557 17.6929 41.8008 17.8092 41.1861 18.0499L41.2147 19.1809C41.6889 18.9321 42.2186 18.8095 42.7546 18.823C43.3576 18.823 43.8488 19.0019 43.8587 19.6569C43.601 19.6148 43.3406 19.5933 43.0803 19.5924C42.1855 19.5924 40.5848 19.7714 40.5848 21.2423C40.5848 22.2892 41.4375 22.7634 42.3931 22.7634C43.0275 22.7902 43.6225 22.4511 43.9231 21.8919H43.9419C43.9419 22.1416 43.9705 22.3921 43.9795 22.6516H45.5095C45.4415 22.274 45.4102 21.8901 45.4173 21.5063Z" fill="white"/>
<path d="M51.4526 17.818L49.9315 21.6859L49.6837 22.3123C49.2095 23.5255 48.848 24.703 47.318 24.703C46.9691 24.703 46.621 24.6663 46.2792 24.5921L46.3911 23.3206C46.6031 23.3922 46.8259 23.428 47.0496 23.4235C47.454 23.4307 47.8074 23.1506 47.8933 22.7552L45.9365 17.8153H47.7349L48.7737 20.9675H48.7925L49.7839 17.8153L51.4526 17.818Z" fill="white"/>
<path d="M18.7776 17.8188H17.2655V18.6903H17.2476C16.9192 18.0881 16.2911 17.7114 15.6058 17.7061C14.1035 17.7061 13.4262 18.7797 13.4262 20.2185C13.2839 21.4085 14.1339 22.4893 15.3239 22.6316C15.408 22.6414 15.493 22.6468 15.578 22.6468C16.2249 22.6701 16.8387 22.3578 17.2011 21.8219H17.2199V22.0822C17.2199 23.028 16.7009 23.4816 15.7355 23.4816C15.1656 23.4905 14.6037 23.3536 14.1026 23.0834L14.0194 24.3996C14.6135 24.6036 15.2371 24.7074 15.8652 24.7056C17.8131 24.7056 18.7776 24.0659 18.7776 22.0822V17.8188ZM15.1504 20.1916C15.1504 19.534 15.4751 18.9864 16.0961 18.9864C16.6795 18.9793 17.1581 19.4463 17.1662 20.0297C17.1662 20.0619 17.1653 20.0941 17.1626 20.1263C17.227 20.7464 16.7761 21.3011 16.156 21.3646C16.1364 21.3664 16.1158 21.3682 16.0961 21.3691C15.595 21.3691 15.1504 20.9423 15.1504 20.1916Z" fill="#E20613"/>
<path d="M19.9212 22.6468H21.5908V17.8152H19.9212V22.6468ZM21.5899 15.8057H19.9203V17.0297H21.5899V15.8057Z" fill="#E20613"/>
<path d="M26.2531 17.7608C26.0661 17.7277 25.8773 17.7098 25.6876 17.7062C25.0443 17.6964 24.4672 18.099 24.256 18.7065H24.2372V17.8172H22.7162V22.6488H24.3858V20.6079C24.3858 19.6621 24.8224 19.0967 25.6017 19.0967C25.7914 19.0868 25.982 19.1056 26.1672 19.1521L26.2531 17.7608Z" fill="#E20613"/>
<path d="M29.1309 22.7504C30.5258 22.601 31.536 21.3492 31.3866 19.9543C31.2372 18.5594 29.9854 17.5502 28.5905 17.6987C27.2976 17.8374 26.3179 18.929 26.3206 20.229C26.317 21.6275 27.4479 22.7629 28.8464 22.7656C28.9413 22.7665 29.037 22.7611 29.1309 22.7504ZM28.8607 21.5828C28.0904 21.5828 27.7754 20.9439 27.7754 20.2299C27.7754 19.5159 28.0904 18.8672 28.8607 18.8672C29.6311 18.8672 29.946 19.507 29.946 20.2299C29.946 20.9529 29.6302 21.5828 28.8607 21.5828Z" fill="#E20613"/>
</g>
</svg>
