<svg width="64" height="24" viewBox="0 0 64 24" fill="none" xmlns="http://www.w3.org/2000/svg">
<g clip-path="url(#clip0)">
<mask id="mask0" mask-type="alpha" maskUnits="userSpaceOnUse" x="5" y="-6" width="54" height="36">
<rect x="5" y="-6" width="54" height="36" fill="white"/>
</mask>
<g mask="url(#mask0)">
<path d="M40.8569 12.1683C40.8569 13.7789 39.9912 15.1086 38.3746 15.1086C37.6811 15.1539 37.0188 14.8136 36.6514 14.2238H36.6302V17.1751H34.752V9.55123H36.4843V10.5316H36.5054C36.907 9.79884 37.6972 9.36702 38.5307 9.4244C39.9258 9.53311 40.9676 10.7521 40.8589 12.1462C40.8579 12.1532 40.8579 12.1613 40.8569 12.1683Z" fill="white"/>
<path d="M47.0975 13.7006C47.0895 14.1304 47.1237 14.5602 47.1982 14.983H45.4769C45.4669 14.6921 45.4346 14.4092 45.4346 14.1284H45.4135C45.0753 14.7585 44.4069 15.139 43.6923 15.1088C42.6172 15.1088 41.658 14.5763 41.658 13.3976C41.658 11.7398 43.4628 11.5415 44.4653 11.5415C44.7592 11.5425 45.0521 11.5667 45.341 11.614C45.33 10.8731 44.7773 10.6758 44.0989 10.6758C43.497 10.6607 42.9011 10.7997 42.3666 11.0785L42.3344 9.80616C43.0259 9.53539 43.7637 9.40453 44.5056 9.42064C45.8946 9.42064 47.0945 10.0135 47.0945 11.6713L47.0975 13.7006Z" fill="white"/>
<path d="M38.5307 9.42439C37.6972 9.36701 36.907 9.79984 36.5054 10.5316H36.4843V9.55122H34.752V17.1751H36.6302V14.2238H36.6514C37.0198 14.8136 37.6811 15.1538 38.3746 15.1085C39.9912 15.1085 40.8569 13.7748 40.8569 12.1683C40.9787 10.7752 39.9469 9.54719 38.5528 9.4264C38.5458 9.42539 38.5387 9.42439 38.5307 9.42439ZM47.1067 13.6993V11.6761C47.1067 10.0183 45.9079 9.42539 44.5178 9.42539C43.7759 9.40929 43.0381 9.54014 42.3466 9.81091L42.3788 11.0832C42.9133 10.8044 43.5092 10.6655 44.1111 10.6806C44.7896 10.6806 45.3422 10.8819 45.3533 11.6187C45.0644 11.5714 44.7715 11.5473 44.4775 11.5463C43.471 11.5463 41.6702 11.7476 41.6702 13.4024C41.6702 14.5801 42.6295 15.1136 43.7045 15.1136C44.4192 15.1438 45.0875 14.7633 45.4257 14.1332H45.4469C45.4469 14.414 45.4791 14.6958 45.4891 14.9878H47.2074C47.1319 14.562 47.0987 14.1312 47.1067 13.6993Z" fill="#0B3677"/>
<path d="M52.1587 13.8958L51.8799 14.6004C51.3464 15.9654 50.9398 17.29 49.2185 17.29C48.8249 17.29 48.4334 17.2488 48.0499 17.1652L48.1757 15.7349C48.4143 15.8154 48.6649 15.8546 48.9165 15.8506C49.3715 15.8587 49.7691 15.5436 49.8658 15.0987L47.6644 9.54138H49.6876L50.8562 13.0876H50.8774L51.9927 9.54138H53.8719L52.1587 13.8958ZM45.4841 14.9779C45.474 14.686 45.4418 14.4042 45.4418 14.1233H45.4207C45.0825 14.7534 44.4131 15.1339 43.6994 15.1037C42.6244 15.1037 41.6651 14.5713 41.6651 13.3926C41.6651 11.7347 43.4699 11.5364 44.4725 11.5364C44.7654 11.5374 45.0583 11.5616 45.3482 11.6089C45.3372 10.868 44.7845 10.6708 44.1061 10.6708C43.5032 10.6557 42.9073 10.7936 42.3738 11.0734L42.3416 9.80107C43.0331 9.5303 43.7709 9.39945 44.5128 9.41556C45.9018 9.41556 47.1017 10.0084 47.1017 11.6663V13.6895C47.0936 14.1193 47.1269 14.5481 47.2023 14.9719L45.4841 14.9779ZM38.3686 15.1027C37.6751 15.148 37.0127 14.8078 36.6453 14.2179H36.6242V17.1672H34.7459V9.54339H36.4782V10.5238H36.4994C36.901 9.79101 37.6912 9.35919 38.5246 9.41656C39.9187 9.52628 40.9605 10.7452 40.8508 12.1394C40.8508 12.1454 40.8498 12.1514 40.8498 12.1575C40.8508 13.764 39.9862 15.0977 38.3696 15.0977L38.3686 15.1027ZM32.9643 21.6455H10.591C9.40424 21.6445 8.44296 20.6832 8.44095 19.4975V5.23422C8.44195 4.04746 9.40424 3.08618 10.591 3.08618H32.9643V21.6455ZM53.4119 1.48169H10.591C8.51845 1.48068 6.83646 3.15966 6.83545 5.23321V19.4975C6.83746 21.57 8.51845 23.249 10.591 23.25H53.4089C55.4815 23.25 57.1635 21.571 57.1645 19.4975V5.23422C57.1645 3.16167 55.4845 1.48169 53.4119 1.48169Z" fill="#0B3677"/>
<path d="M37.7787 13.6692C37.0782 13.6037 36.5638 12.9827 36.6292 12.2821C36.6292 11.4678 37.0892 10.8648 37.7787 10.8648C38.4421 10.896 38.9544 11.4577 38.9232 12.121C38.9222 12.1502 38.9192 12.1804 38.9162 12.2096C38.9162 13.0733 38.4884 13.6692 37.7798 13.6692H37.7787ZM38.5307 9.4244C37.6972 9.36702 36.907 9.79885 36.5054 10.5316H36.4843V9.55123H34.752V17.1751H36.6302V14.2238H36.6514C37.0188 14.8136 37.6811 15.1539 38.3746 15.1086C39.9912 15.1086 40.8569 13.7748 40.8569 12.1683C40.9777 10.7752 39.9459 9.5472 38.5528 9.42641C38.5458 9.4254 38.5377 9.4244 38.5307 9.4244Z" fill="white"/>
<path d="M44.1823 13.8506C43.7435 13.8506 43.4093 13.6322 43.4093 13.2567C43.4093 12.7343 43.9126 12.537 44.5477 12.537C44.8286 12.537 45.1003 12.5561 45.3399 12.5672C45.3741 13.2406 44.8557 13.8154 44.1823 13.8506ZM47.0944 13.6946V11.6713C47.0944 10.0135 45.8955 9.42064 44.5054 9.42064C43.7626 9.40453 43.0258 9.53539 42.3343 9.80616L42.3665 11.0785C42.9 10.7986 43.4959 10.6607 44.0988 10.6758C44.7772 10.6758 45.3298 10.8772 45.3409 11.614C45.051 11.5667 44.7581 11.5425 44.4652 11.5415C43.4586 11.5415 41.6578 11.7428 41.6578 13.3976C41.6578 14.5753 42.6171 15.1088 43.6921 15.1088C44.4058 15.139 45.0752 14.7575 45.4134 14.1284H45.4345C45.4345 14.4092 45.4667 14.6911 45.4768 14.983H47.198C47.1215 14.5582 47.0863 14.1264 47.0944 13.6946Z" fill="white"/>
<path d="M53.884 9.54526L52.1728 13.8967L51.894 14.6013C51.3605 15.9662 50.9539 17.2909 49.2326 17.2909C48.8401 17.2909 48.4485 17.2496 48.064 17.1661L48.1898 15.7357C48.4284 15.8163 48.679 15.8565 48.9307 15.8515C49.3856 15.8595 49.7832 15.5445 49.8799 15.0996L47.6785 9.54224H49.7017L50.8703 13.0884H50.8915L52.0068 9.54224L53.884 9.54526Z" fill="white"/>
<path d="M17.1248 9.54614H15.4236V10.5265H15.4035C15.0341 9.84912 14.3275 9.42535 13.5564 9.41931C11.8664 9.41931 11.1044 10.6272 11.1044 12.2458C10.9444 13.5845 11.9006 14.8005 13.2394 14.9605C13.334 14.9716 13.4296 14.9776 13.5252 14.9776C14.253 15.0038 14.9435 14.6525 15.3512 14.0496H15.3723V14.3425C15.3723 15.4065 14.7885 15.9168 13.7024 15.9168C13.0612 15.9269 12.4291 15.7728 11.8654 15.4689L11.7718 16.9495C12.4401 17.179 13.1417 17.2958 13.8483 17.2938C16.0397 17.2938 17.1248 16.5741 17.1248 14.3425V9.54614ZM13.0441 12.2156C13.0441 11.4758 13.4095 10.8597 14.108 10.8597C14.7643 10.8517 15.3029 11.3771 15.3119 12.0334C15.3119 12.0696 15.3109 12.1059 15.3079 12.1421C15.3804 12.8397 14.873 13.4638 14.1755 13.5352C14.1533 13.5372 14.1302 13.5392 14.108 13.5403C13.5444 13.5403 13.0441 13.0601 13.0441 12.2156Z" fill="#E20613"/>
<path d="M18.4112 14.9777H20.2894V9.54215H18.4112V14.9777ZM20.2885 7.28137H18.4102V8.65838H20.2885V7.28137Z" fill="#E20613"/>
<path d="M25.5346 9.48091C25.3242 9.44367 25.1118 9.42354 24.8984 9.41951C24.1747 9.40844 23.5254 9.8614 23.2879 10.5449H23.2667V9.54433H21.5555V14.9799H23.4338V12.6838C23.4338 11.6199 23.925 10.9837 24.8018 10.9837C25.0152 10.9727 25.2296 10.9938 25.4379 11.0461L25.5346 9.48091Z" fill="#E20613"/>
<path d="M28.7722 15.0942C30.3414 14.9261 31.4778 13.5179 31.3097 11.9487C31.1416 10.3794 29.7334 9.244 28.1642 9.41109C26.7097 9.56711 25.6075 10.7951 25.6105 12.2577C25.6065 13.831 26.8788 15.1083 28.4521 15.1114C28.5588 15.1124 28.6665 15.1063 28.7722 15.0942ZM28.4682 13.7807C27.6015 13.7807 27.2472 13.062 27.2472 12.2587C27.2472 11.4555 27.6015 10.7257 28.4682 10.7257C29.3348 10.7257 29.6891 11.4454 29.6891 12.2587C29.6891 13.072 29.3338 13.7807 28.4682 13.7807Z" fill="#E20613"/>
</g>
</g>
<defs>
<clipPath id="clip0">
<rect width="64" height="24" rx="1" fill="white"/>
</clipPath>
</defs>
</svg>
