<?xml version="1.0" encoding="UTF-8"?>
<svg xmlns="http://www.w3.org/2000/svg" xmlns:xlink="http://www.w3.org/1999/xlink" width="64px" height="24px" viewBox="0 0 63 24" version="1.1">
<defs>
<linearGradient id="linear0" gradientUnits="userSpaceOnUse" x1="352.720001" y1="95.300003" x2="330.200012" y2="67.730003" gradientTransform="matrix(0.13125,0,0,-0.131868,0,24.263736)">
<stop offset="0.02" style="stop-color:rgb(11.372549%,10.980392%,10.980392%);stop-opacity:0;"/>
<stop offset="0.68" style="stop-color:rgb(11.372549%,10.980392%,10.980392%);stop-opacity:1;"/>
</linearGradient>
<linearGradient id="linear1" gradientUnits="userSpaceOnUse" x1="313.440002" y1="89.449997" x2="336.519989" y2="112.260002" gradientTransform="matrix(0.13125,0,0,-0.131868,0,24.263736)">
<stop offset="0.02" style="stop-color:rgb(11.372549%,10.980392%,10.980392%);stop-opacity:0;"/>
<stop offset="0.68" style="stop-color:rgb(11.372549%,10.980392%,10.980392%);stop-opacity:1;"/>
</linearGradient>
</defs>
<g id="surface1">
<path style=" stroke:none;fill-rule:nonzero;fill:rgb(100%,95.686275%,55.29412%);fill-opacity:1;" d="M 1.707031 0 L 61.292969 0 C 62.234375 0 63 0.765625 63 1.714844 L 63 22.285156 C 63 23.234375 62.234375 24 61.292969 24 L 1.707031 24 C 0.765625 24 0 23.234375 0 22.285156 L 0 1.714844 C 0 0.765625 0.765625 0 1.707031 0 Z M 1.707031 0 "/>
<path style=" stroke:none;fill-rule:nonzero;fill:rgb(100%,100%,100%);fill-opacity:1;" d="M 1.445312 3.015625 L 1.445312 21.003906 C 1.445312 21.863281 2.152344 22.566406 3.011719 22.566406 L 13.761719 22.566406 C 21.886719 22.566406 25.40625 18.019531 25.40625 11.984375 C 25.40625 5.953125 21.882812 1.449219 13.757812 1.449219 L 3.011719 1.449219 C 2.148438 1.449219 1.445312 2.15625 1.445312 3.015625 Z M 1.445312 3.015625 "/>
<path style=" stroke:none;fill-rule:nonzero;fill:rgb(80.000001%,0%,40.000001%);fill-opacity:1;" d="M 8.640625 5.867188 L 8.640625 19.15625 L 14.425781 19.15625 C 19.675781 19.15625 21.953125 16.1875 21.953125 11.996094 C 21.953125 7.800781 19.675781 4.863281 14.425781 4.863281 L 9.640625 4.863281 C 9.085938 4.863281 8.640625 5.316406 8.640625 5.867188 Z M 8.640625 5.867188 "/>
<path style=" stroke:none;fill-rule:evenodd;fill:rgb(13.725491%,13.725491%,13.725491%);fill-opacity:1;" d="M 4.414062 21.136719 L 13.757812 21.136719 C 20.328125 21.136719 23.949219 17.886719 23.949219 11.992188 C 23.949219 8.597656 22.628906 2.890625 13.757812 2.890625 L 4.414062 2.890625 C 3.582031 2.890625 2.910156 3.5625 2.910156 4.394531 L 2.910156 19.632812 C 2.910156 20.464844 3.582031 21.136719 4.414062 21.136719 Z M 3.410156 4.394531 C 3.410156 3.839844 3.855469 3.390625 4.410156 3.390625 L 13.757812 3.390625 C 17.375 3.390625 23.449219 4.511719 23.449219 11.992188 C 23.449219 17.566406 20.003906 20.632812 13.757812 20.632812 L 4.414062 20.632812 C 3.859375 20.632812 3.410156 20.1875 3.410156 19.632812 Z M 3.410156 4.394531 "/>
<path style=" stroke:none;fill-rule:evenodd;fill:rgb(100%,100%,100%);fill-opacity:1;" d="M 11.484375 10.0625 C 11.308594 10 11.125 9.964844 10.925781 9.964844 L 10.925781 9.957031 L 9.601562 9.957031 L 9.601562 13.167969 L 10.941406 13.167969 C 11.179688 13.167969 11.386719 13.121094 11.5625 13.042969 C 11.738281 12.953125 11.882812 12.84375 12 12.703125 C 12.117188 12.558594 12.199219 12.386719 12.261719 12.1875 C 12.3125 11.988281 12.34375 11.777344 12.34375 11.539062 C 12.34375 11.269531 12.304688 11.039062 12.238281 10.84375 C 12.160156 10.652344 12.0625 10.484375 11.9375 10.351562 C 11.808594 10.226562 11.664062 10.121094 11.488281 10.058594 Z M 11.171875 12.535156 C 11.070312 12.566406 10.980469 12.585938 10.878906 12.585938 L 10.878906 12.59375 L 10.277344 12.59375 L 10.277344 10.566406 L 10.765625 10.566406 C 10.933594 10.566406 11.070312 10.589844 11.1875 10.640625 C 11.300781 10.6875 11.394531 10.765625 11.460938 10.851562 C 11.53125 10.941406 11.585938 11.058594 11.617188 11.183594 C 11.644531 11.3125 11.660156 11.460938 11.660156 11.621094 C 11.660156 11.800781 11.636719 11.945312 11.59375 12.070312 C 11.546875 12.199219 11.484375 12.292969 11.417969 12.371094 C 11.347656 12.449219 11.265625 12.507812 11.171875 12.539062 Z M 11.171875 12.535156 "/>
<path style=" stroke:none;fill-rule:nonzero;fill:rgb(100%,100%,100%);fill-opacity:1;" d="M 15.109375 9.96875 L 15.109375 10.5625 L 13.46875 10.5625 L 13.46875 11.25 L 14.976562 11.25 L 14.976562 11.796875 L 13.46875 11.796875 L 13.46875 12.578125 L 15.144531 12.578125 L 15.144531 13.171875 L 12.789062 13.171875 L 12.789062 9.960938 L 15.109375 9.960938 Z M 15.109375 9.96875 "/>
<path style=" stroke:none;fill-rule:evenodd;fill:rgb(100%,100%,100%);fill-opacity:1;" d="M 18.613281 13.175781 L 17.449219 9.96875 L 16.738281 9.96875 L 15.566406 13.175781 L 16.257812 13.175781 L 16.503906 12.464844 L 17.667969 12.464844 L 17.902344 13.175781 L 18.617188 13.175781 Z M 17.097656 10.757812 L 17.488281 11.933594 L 16.6875 11.933594 L 17.089844 10.757812 Z M 17.097656 10.757812 "/>
<path style=" stroke:none;fill-rule:nonzero;fill:rgb(100%,100%,100%);fill-opacity:1;" d="M 19.726562 9.964844 L 19.726562 12.585938 L 21.242188 12.585938 L 21.242188 13.175781 L 19.042969 13.175781 L 19.042969 9.96875 L 19.726562 9.96875 Z M 19.726562 9.964844 "/>
<path style=" stroke:none;fill-rule:nonzero;fill:rgb(13.725491%,13.725491%,13.725491%);fill-opacity:1;" d="M 5.953125 13.226562 C 6.78125 13.226562 7.453125 12.550781 7.453125 11.714844 C 7.453125 10.878906 6.78125 10.207031 5.953125 10.207031 C 5.121094 10.207031 4.449219 10.878906 4.449219 11.714844 C 4.449219 12.550781 5.121094 13.226562 5.953125 13.226562 Z M 5.953125 13.226562 "/>
<path style=" stroke:none;fill-rule:nonzero;fill:rgb(13.725491%,13.725491%,13.725491%);fill-opacity:1;" d="M 6.847656 19.261719 C 5.683594 19.261719 4.75 18.253906 4.75 17.015625 L 4.75 15.261719 C 4.75 14.640625 5.21875 14.132812 5.800781 14.132812 C 6.386719 14.132812 6.855469 14.632812 6.855469 15.261719 L 6.855469 19.261719 Z M 6.847656 19.261719 "/>
<path style=" stroke:none;fill-rule:nonzero;fill:rgb(11.372549%,10.980392%,10.980392%);fill-opacity:1;" d="M 53.234375 12.082031 C 53.234375 10.316406 54.484375 8.710938 56.640625 8.710938 C 58.800781 8.710938 60.058594 10.320312 60.058594 12.082031 C 60.058594 13.84375 58.808594 15.453125 56.640625 15.453125 C 54.484375 15.453125 53.234375 13.84375 53.234375 12.082031 Z M 58.164062 12.082031 C 58.164062 11.230469 57.605469 10.445312 56.640625 10.445312 C 55.679688 10.445312 55.121094 11.234375 55.121094 12.082031 C 55.121094 12.929688 55.6875 13.71875 56.640625 13.71875 C 57.59375 13.71875 58.164062 12.933594 58.164062 12.082031 Z M 58.164062 12.082031 "/>
<path style=" stroke:none;fill-rule:nonzero;fill:rgb(11.372549%,10.980392%,10.980392%);fill-opacity:1;" d="M 51.90625 13.335938 C 52.628906 12.921875 53.058594 12.136719 53.058594 11.269531 C 53.058594 9.980469 52.132812 8.882812 50.695312 8.882812 L 47.675781 8.882812 L 47.675781 15.28125 L 49.542969 15.28125 L 49.542969 13.644531 L 49.894531 13.644531 L 50.964844 15.28125 L 53.167969 15.28125 Z M 50.316406 12.171875 L 49.542969 12.171875 L 49.542969 10.363281 L 50.328125 10.363281 C 50.832031 10.363281 51.152344 10.773438 51.152344 11.269531 C 51.152344 11.761719 50.820312 12.171875 50.316406 12.171875 Z M 50.316406 12.171875 "/>
<path style=" stroke:none;fill-rule:nonzero;fill:rgb(11.372549%,10.980392%,10.980392%);fill-opacity:1;" d="M 39.136719 8.875 L 38.015625 12.6875 L 36.917969 8.875 L 35.429688 8.875 L 34.324219 12.6875 L 33.210938 8.875 L 31.238281 8.875 L 33.5 15.261719 L 35.125 15.261719 L 36.171875 11.785156 L 37.214844 15.261719 L 38.847656 15.261719 L 41.109375 8.875 Z M 39.136719 8.875 "/>
<path style=" stroke:none;fill-rule:nonzero;fill:rgb(11.372549%,10.980392%,10.980392%);fill-opacity:1;" d="M 43.941406 13.703125 L 43.9375 13.703125 C 43.238281 13.703125 42.746094 13.277344 42.535156 12.714844 L 47.289062 12.714844 C 47.324219 12.503906 47.347656 12.289062 47.347656 12.070312 C 47.347656 10.3125 46.101562 8.707031 43.941406 8.703125 L 43.941406 10.4375 C 44.644531 10.4375 45.128906 10.863281 45.335938 11.421875 L 40.589844 11.421875 C 40.554688 11.632812 40.535156 11.851562 40.535156 12.070312 C 40.535156 13.832031 41.78125 15.4375 43.933594 15.4375 L 43.9375 15.4375 L 43.9375 13.703125 Z M 43.941406 13.703125 "/>
<path style=" stroke:none;fill-rule:nonzero;fill:url(#linear0);" d="M 43.9375 15.433594 C 44.007812 15.433594 44.082031 15.433594 44.152344 15.429688 C 44.589844 15.40625 44.988281 15.316406 45.339844 15.175781 C 45.695312 15.03125 46.007812 14.832031 46.269531 14.589844 C 46.535156 14.351562 46.753906 14.070312 46.921875 13.761719 C 47.078125 13.476562 47.191406 13.171875 47.261719 12.855469 L 45.28125 12.855469 C 45.238281 12.941406 45.191406 13.023438 45.136719 13.097656 C 45.066406 13.203125 44.976562 13.296875 44.878906 13.375 C 44.78125 13.457031 44.671875 13.527344 44.550781 13.578125 C 44.429688 13.632812 44.296875 13.667969 44.152344 13.6875 C 44.085938 13.695312 44.011719 13.703125 43.9375 13.703125 C 43.492188 13.703125 43.132812 13.53125 42.871094 13.257812 L 41.585938 14.566406 C 42.15625 15.097656 42.953125 15.433594 43.9375 15.433594 Z M 43.9375 15.433594 "/>
<path style=" stroke:none;fill-rule:nonzero;fill:url(#linear1);" d="M 43.9375 8.703125 C 42.109375 8.703125 40.933594 9.859375 40.621094 11.28125 L 42.59375 11.28125 C 42.832031 10.792969 43.296875 10.4375 43.9375 10.4375 C 44.445312 10.4375 44.84375 10.65625 45.101562 10.992188 L 46.402344 9.671875 C 45.820312 9.082031 44.984375 8.703125 43.9375 8.703125 Z M 43.9375 8.703125 "/>
<path style=" stroke:none;fill-rule:nonzero;fill:rgb(11.372549%,10.980392%,10.980392%);fill-opacity:1;" d="M 28.296875 19.121094 C 28.15625 19.121094 28.035156 19.003906 28.035156 18.855469 L 28.035156 5.144531 C 28.035156 4.996094 28.15625 4.878906 28.296875 4.878906 C 28.441406 4.878906 28.5625 4.996094 28.5625 5.144531 L 28.5625 18.855469 C 28.5625 19.003906 28.441406 19.121094 28.296875 19.121094 Z M 28.296875 19.121094 "/>
</g>
</svg>
