<svg width="64" height="24" viewBox="0 0 64 24" fill="none" xmlns="http://www.w3.org/2000/svg">
<g clip-path="url(#clip0)">
<mask id="mask0" mask-type="alpha" maskUnits="userSpaceOnUse" x="13" y="-1" width="38" height="26">
<rect x="13" y="-1" width="38" height="26" fill="white"/>
</mask>
<g mask="url(#mask0)">
<path fill-rule="evenodd" clip-rule="evenodd" d="M20.0656 0.743408H32.7423C41.3565 0.743408 44.6667 5.71705 44.6667 12.0037C44.6667 19.5239 40.0399 23.3038 32.7423 23.3038H20.0656V0.743408ZM21.2692 2.0962V22.0305H32.7422C39.6636 22.0305 43.4253 18.6087 43.4253 12.0435C43.4253 5.27933 39.3627 2.0962 32.7422 2.0962H21.2692ZM24.6547 12.4012C25.922 12.4012 26.9493 11.3145 26.9493 9.97404C26.9493 8.63357 25.922 7.54691 24.6547 7.54691C23.3874 7.54691 22.3601 8.63357 22.3601 9.97404C22.3601 11.3145 23.3874 12.4012 24.6547 12.4012ZM22.8116 13.4357H26.498V20.359H22.8116V13.4357Z" fill="black"/>
<path fill-rule="evenodd" clip-rule="evenodd" d="M39.25 7.74598H40.3032V11.0883H41.8455C41.4317 5.00054 36.8801 3.64771 32.7423 3.64771H28.3412V7.74598H28.9807C30.1844 7.74598 30.8991 8.58155 30.8991 9.97417C30.8991 11.3668 30.1844 12.2024 29.0183 12.2024H28.3412V20.3591H32.7423C39.4757 20.3591 41.7703 17.0566 41.8831 12.2024H39.25V7.74598ZM34.1717 11.0886V12.2027H31.5386V7.74633H34.0965V8.86042H32.5918V9.37768H34.0213V10.4918H32.6295V11.0886H34.1717ZM34.623 12.2027L35.902 7.74633H37.4066L38.6856 12.2027H37.5947L37.369 11.3671H35.9772L35.7515 12.2027H34.623ZM36.29 10.2124H36.2782V10.2522L36.29 10.2124ZM36.29 10.2124H37.0306L36.692 8.97894H36.6544L36.29 10.2124ZM28.3412 11.0881V8.85989H28.9807C29.3944 8.85989 29.8458 8.97926 29.8458 9.97399C29.8458 10.9687 29.4321 11.0881 28.9807 11.0881H28.3412Z" fill="#D50072"/>
</g>
</g>
<defs>
<clipPath id="clip0">
<rect width="64" height="24" rx="1" fill="white"/>
</clipPath>
</defs>
</svg>
