<svg width="64" height="40" viewBox="0 0 64 40" fill="none" xmlns="http://www.w3.org/2000/svg">
<path d="M0 8C0 3.58172 3.58172 0 8 0H56C60.4183 0 64 3.58172 64 8V32C64 36.4183 60.4183 40 56 40H8C3.58172 40 0 36.4183 0 32V8Z" fill="white"/>
<mask id="mask0" mask-type="alpha" maskUnits="userSpaceOnUse" x="8" y="4" width="48" height="32">
<rect x="8" y="4" width="48" height="32" fill="white"/>
</mask>
<g mask="url(#mask0)">
<path fill-rule="evenodd" clip-rule="evenodd" d="M16.9249 6.14575H32.9376C43.8187 6.14575 48.0001 12.2672 48.0001 20.0046C48.0001 29.2602 42.1557 33.9124 32.9376 33.9124H16.9249V6.14575ZM18.4453 7.81072V32.3453H32.9375C41.6804 32.3453 46.4319 28.1338 46.4319 20.0535C46.4319 11.7284 41.3002 7.81072 32.9375 7.81072H18.4453ZM22.7218 20.4938C24.3225 20.4938 25.6202 19.1563 25.6202 17.5065C25.6202 15.8567 24.3225 14.5193 22.7218 14.5193C21.121 14.5193 19.8233 15.8567 19.8233 17.5065C19.8233 19.1563 21.121 20.4938 22.7218 20.4938ZM20.3936 21.7671H25.0502V30.288H20.3936V21.7671Z" fill="black"/>
<path fill-rule="evenodd" clip-rule="evenodd" d="M41.1578 14.7644H42.4882V18.878H44.4364C43.9137 11.3854 38.1643 9.72034 32.9376 9.72034H27.3783V14.7644H28.1861C29.7066 14.7644 30.6094 15.7928 30.6094 17.5068C30.6094 19.2208 29.7066 20.2491 28.2336 20.2491H27.3783V30.2882H32.9376C41.4429 30.2882 44.3413 26.2236 44.4839 20.2491H41.1578V14.7644ZM34.7432 18.8784V20.2496H31.4171V14.7648H34.6482V16.136H32.7475V16.7726H34.5531V18.1438H32.7951V18.8784H34.7432ZM35.3133 20.2496L36.9288 14.7648H38.8294L40.4449 20.2496H39.067L38.7819 19.2212H37.0238L36.7387 20.2496H35.3133ZM37.4189 17.8H37.404V17.8489L37.4189 17.8ZM37.4189 17.8H38.3543L37.9267 16.2819H37.8792L37.4189 17.8ZM27.3783 18.8777V16.1353H28.1861C28.7087 16.1353 29.2789 16.2823 29.2789 17.5065C29.2789 18.7308 28.7562 18.8777 28.1861 18.8777H27.3783Z" fill="#D50072"/>
</g>
</svg>
