<svg width="48" height="32" viewBox="0 0 48 32" fill="none" xmlns="http://www.w3.org/2000/svg">
<mask id="mask0_1228_3256" style="mask-type:alpha" maskUnits="userSpaceOnUse" x="0" y="0" width="48" height="32">
<rect width="48" height="32" fill="white"/>
</mask>
<g mask="url(#mask0_1228_3256)">
<g clip-path="url(#clip0_1228_3256)">
<path d="M38.0898 0H8.91017C8.13135 0 7.5 0.631354 7.5 1.41017V30.5898C7.5 31.3686 8.13135 32 8.91017 32H38.0898C38.8686 32 39.5 31.3686 39.5 30.5898V1.41017C39.5 0.631354 38.8686 0 38.0898 0Z" fill="#FFF48D"/>
<path d="M13.63 2.48083V17.2768C13.63 17.9851 14.2125 18.5644 14.9241 18.5644H23.8071C30.5227 18.5644 33.4331 14.8231 33.4331 9.85927C33.4331 4.89547 30.5217 1.19324 23.806 1.19324H14.923C14.2114 1.19324 13.6289 1.77249 13.6289 2.48083H13.63Z" fill="white"/>
<path d="M19.5752 4.82503V15.7582H24.3557C28.6968 15.7582 30.5789 13.3175 30.5789 9.86693C30.5789 6.41635 28.6957 4.00171 24.3557 4.00171H20.4029C19.944 4.00171 19.5752 4.37486 19.5752 4.82612V4.82503Z" fill="#CC0066"/>
<path fill-rule="evenodd" clip-rule="evenodd" d="M16.0816 17.3862H23.8061C29.2342 17.3862 32.2292 14.7145 32.2292 9.86569C32.2292 7.07138 31.1357 2.37769 23.8061 2.37769H16.0816C15.3961 2.37769 14.8396 2.93091 14.8396 3.6143V16.1507C14.8396 16.833 15.3961 17.3873 16.0816 17.3873V17.3862ZM15.2529 3.6143C15.2529 3.15762 15.6217 2.78989 16.0805 2.78989H23.805C26.7935 2.78989 31.8137 3.71084 31.8137 9.86569C31.8137 14.4498 28.9673 16.974 23.805 16.974H16.0805C15.6217 16.974 15.2529 16.6074 15.2529 16.1496V3.6143Z" fill="#232323"/>
<path fill-rule="evenodd" clip-rule="evenodd" d="M21.9282 8.27663C21.7828 8.22456 21.631 8.19853 21.4661 8.19853V8.19202H20.3716V10.8323H21.4791C21.6754 10.8323 21.8458 10.7932 21.9911 10.7282C22.1365 10.6566 22.2569 10.5654 22.3523 10.4483C22.4478 10.3311 22.5172 10.1879 22.5671 10.0252C22.6116 9.86253 22.6365 9.6868 22.6365 9.49154C22.6365 9.27025 22.6051 9.08151 22.5476 8.9188C22.4847 8.76259 22.4022 8.62592 22.3013 8.51527C22.194 8.41114 22.0735 8.32653 21.9282 8.27446V8.27663ZM21.6679 10.3127C21.5854 10.3387 21.5095 10.3517 21.427 10.3517V10.3583H20.927V8.69317H21.3316C21.4704 8.69317 21.5843 8.71269 21.6798 8.75175C21.7752 8.7908 21.8501 8.85588 21.9076 8.92747C21.9651 8.99907 22.0085 9.09669 22.0345 9.20083C22.0594 9.30497 22.0725 9.42863 22.0725 9.5588C22.0725 9.70849 22.0529 9.82564 22.0161 9.92978C21.9781 10.0339 21.9271 10.112 21.8707 10.1771C21.8132 10.2422 21.7438 10.2877 21.6679 10.3138V10.3127Z" fill="white"/>
<path d="M24.921 8.19965V8.68779H23.5662V9.25402H24.8125V9.70311H23.5662V10.3474H24.9525V10.8356H23.0032V8.19531H24.921V8.20182V8.19965Z" fill="white"/>
<path fill-rule="evenodd" clip-rule="evenodd" d="M27.8197 10.8399L26.8575 8.19958H26.2685L25.2998 10.8399H25.8693L26.0721 10.2541H27.0343L27.2307 10.8399H27.8197ZM26.5668 8.84935L26.89 9.81803H26.2251L26.5603 8.84935H26.5668Z" fill="white"/>
<path d="M28.7373 8.19849V10.3517H29.9902V10.8398H28.1743V8.19957H28.7373V8.19849Z" fill="white"/>
<path d="M17.354 10.879C18.0395 10.879 18.5949 10.3236 18.5949 9.63693C18.5949 8.95029 18.0395 8.3949 17.354 8.3949C16.6684 8.3949 16.113 8.95029 16.113 9.63693C16.113 10.3236 16.6684 10.879 17.354 10.879Z" fill="#232323"/>
<path d="M18.0926 15.846C17.1315 15.846 16.3613 15.0161 16.3613 13.9965V12.5527C16.3613 12.0429 16.7464 11.6241 17.2302 11.6241C17.714 11.6241 18.0991 12.0363 18.0991 12.5527V15.846H18.0926Z" fill="#232323"/>
<path d="M35.4864 21.5865H11.622C11.5027 21.5865 11.405 21.4889 11.405 21.3695C11.405 21.2502 11.5027 21.1526 11.622 21.1526H35.4864C35.6057 21.1526 35.7033 21.2502 35.7033 21.3695C35.7033 21.4889 35.6057 21.5865 35.4864 21.5865Z" fill="#1D1C1C"/>
<path d="M29.8003 26.9841C29.8003 25.5328 30.833 24.2104 32.6163 24.2104C34.3996 24.2104 35.4399 25.5338 35.4399 26.9841C35.4399 28.4344 34.4072 29.7578 32.6163 29.7578C30.833 29.7578 29.8003 28.4344 29.8003 26.9841ZM33.8724 26.9841C33.8724 26.2845 33.4114 25.6391 32.6163 25.6391C31.8212 25.6391 31.3602 26.2856 31.3602 26.9841C31.3602 27.6827 31.8288 28.3303 32.6163 28.3303C33.4038 28.3303 33.8724 27.6838 33.8724 26.9841Z" fill="#1D1C1C"/>
<path d="M28.7035 28.0145C29.2979 27.6761 29.6548 27.0296 29.6548 26.3158C29.6548 25.256 28.889 24.3535 27.7001 24.3535H25.2041V29.6156H26.7499V28.2705H27.0395L27.9236 29.6156H29.7438L28.7035 28.0145ZM27.3888 27.06H26.7499V25.5717H27.3964C27.8129 25.5717 28.0798 25.9101 28.0798 26.3158C28.0798 26.7215 27.8042 27.06 27.3888 27.06Z" fill="#1D1C1C"/>
<path d="M18.1487 24.3483L17.2213 27.4843L16.3166 24.3483H15.0854L14.1731 27.4843L13.2533 24.3483H11.6218L13.4908 29.6006H14.8338L15.7016 26.7412L16.5618 29.6006H17.9112L19.7802 24.3483H18.1487Z" fill="#1D1C1C"/>
<path d="M22.119 28.3172H22.1146C21.5365 28.3172 21.1308 27.968 20.9572 27.5059H24.8851C24.9165 27.3323 24.9328 27.1544 24.9328 26.9743C24.9328 25.5273 23.9034 24.2071 22.1179 24.2061V25.6314C22.6993 25.6325 23.1007 25.9818 23.2731 26.4428H19.3507C19.3192 26.6164 19.303 26.7943 19.303 26.9743C19.303 28.4225 20.3335 29.7437 22.1136 29.7437H22.1179V28.3172H22.119Z" fill="#1D1C1C"/>
<path d="M22.1148 29.7426C22.1755 29.7426 22.2341 29.7404 22.2938 29.7383C22.655 29.7198 22.9837 29.6461 23.2766 29.5278C23.5694 29.4085 23.8265 29.2458 24.0446 29.0484C24.2626 28.851 24.4437 28.6199 24.5837 28.365C24.7106 28.1339 24.8039 27.8823 24.8625 27.6208H23.2256C23.1919 27.6903 23.1529 27.7575 23.1084 27.8194C23.0477 27.9051 22.9761 27.9821 22.8947 28.0482C22.8134 28.1155 22.7222 28.1719 22.6225 28.2153C22.5216 28.2587 22.4131 28.2891 22.2949 28.3053C22.2374 28.3129 22.1777 28.3173 22.1159 28.3173C21.7471 28.3173 21.4498 28.1752 21.2372 27.9528L20.1731 29.0288C20.646 29.466 21.3023 29.7415 22.1159 29.7415L22.1148 29.7426Z" fill="url(#paint0_linear_1228_3256)"/>
<path d="M22.1148 24.2051C20.6049 24.2051 19.634 25.1553 19.3748 26.3268H21.0062C21.2015 25.9233 21.5855 25.6304 22.1148 25.6304C22.5368 25.6304 22.8644 25.8127 23.0781 26.0882L24.152 25.0024C23.6725 24.5164 22.9826 24.2051 22.1159 24.2051H22.1148Z" fill="url(#paint1_linear_1228_3256)"/>
</g>
</g>
<defs>
<linearGradient id="paint0_linear_1228_3256" x1="24.0641" y1="26.6674" x2="21.6223" y2="29.658" gradientUnits="userSpaceOnUse">
<stop offset="0.02" stop-color="#1D1C1C" stop-opacity="0"/>
<stop offset="0.68" stop-color="#1D1C1C"/>
</linearGradient>
<linearGradient id="paint1_linear_1228_3256" x1="19.8043" y1="27.302" x2="22.3079" y2="24.8277" gradientUnits="userSpaceOnUse">
<stop offset="0.02" stop-color="#1D1C1C" stop-opacity="0"/>
<stop offset="0.68" stop-color="#1D1C1C"/>
</linearGradient>
<clipPath id="clip0_1228_3256">
<rect width="32" height="32" fill="white" transform="translate(7.5)"/>
</clipPath>
</defs>
</svg>
