<svg width="64" height="24" viewBox="0 0 64 24" fill="none" xmlns="http://www.w3.org/2000/svg">
<g clip-path="url(#clip0_1105:28479)">
<path fill-rule="evenodd" clip-rule="evenodd" d="M30.8738 7.91739C30.8738 3.5441 27.2194 -0.00012207 22.7102 -0.00012207C18.201 -0.00012207 14.5454 3.5441 14.5454 7.91739C14.5454 12.2907 18.201 15.8355 22.7102 15.8355C27.2194 15.8355 30.8738 12.2907 30.8738 7.91739Z" fill="#006DFF"/>
<path fill-rule="evenodd" clip-rule="evenodd" d="M19.5063 3.95398V11.8721H23.1601C23.8617 11.8721 24.6596 11.8721 25.2545 11.4455C25.8264 11.0418 26.2559 10.4302 26.2559 9.73626C26.2559 8.70919 25.5635 7.95886 24.5517 7.76261V7.74028C25.4096 7.53287 26.0287 6.93179 26.0287 6.03222C26.0287 5.28189 25.6828 4.70431 25.0285 4.30065C24.4687 3.95398 23.8029 3.95398 23.1601 3.95398H19.5063ZM21.4111 5.36228H22.5646C22.8863 5.36228 23.3855 5.3282 23.6587 5.47803C23.9205 5.62786 24.0647 5.90519 24.0647 6.1931C24.0647 6.4581 23.9453 6.74718 23.7181 6.90876C23.4328 7.11676 23.0402 7.09385 22.7076 7.09385H21.4111V5.36228ZM21.4111 8.50109H22.8142C23.1244 8.50109 23.5055 8.50109 23.7775 8.6521C24.0519 8.80193 24.2422 9.11334 24.2422 9.413C24.2422 9.73617 24.0871 10.0599 23.8138 10.2333C23.517 10.4301 23.0759 10.4066 22.7312 10.4066H21.4111V8.50109Z" fill="white"/>
<path fill-rule="evenodd" clip-rule="evenodd" d="M48.8899 8.30031C47.6413 4.87302 44.7321 3.66321 41.168 3.66321C39.296 3.66321 37.5433 4.06511 36.0584 5.27609C34.6032 6.4571 33.861 8.06998 33.861 9.91378C33.861 14.2348 37.4252 15.2718 41.0486 15.9916C42.2954 16.2513 44.6121 16.5674 44.6121 18.2097C44.6121 19.8514 42.8007 20.3426 41.4352 20.3426C39.3269 20.3426 37.7814 19.6222 37.1865 17.5475L32.7917 18.527C33.7132 22.3873 37.1865 24.0002 41.019 24.0002C43.0685 24.0002 45.2961 23.6259 46.9295 22.3873C48.504 21.2063 49.4546 19.3631 49.4546 17.4323C49.4546 15.4734 48.4452 13.8323 46.7816 12.7664C45.3555 11.8445 43.1285 11.4409 41.4648 11.0942C40.3065 10.8938 38.5235 10.5484 38.5235 9.10705C38.5235 7.57995 40.0684 7.26384 41.3455 7.26384C43.1569 7.26384 44.2565 7.92662 44.8514 9.59708L48.8899 8.30031Z" fill="black"/>
</g>
<defs>
<clipPath id="clip0_1105:28479">
<path d="M0 1C0 0.447716 0.447715 0 1 0H63C63.5523 0 64 0.447715 64 1V23C64 23.5523 63.5523 24 63 24H1C0.447715 24 0 23.5523 0 23V1Z" fill="white"/>
</clipPath>
</defs>
</svg>
