<svg width="64" height="24" viewBox="0 0 64 24" fill="none" xmlns="http://www.w3.org/2000/svg">
<path fill-rule="evenodd" clip-rule="evenodd" d="M6.14542 10.2649C6.01489 10.1906 5.83316 10.1906 5.68557 10.1906H5.01465V11.1293H5.64575C5.81071 11.1293 6.02088 11.1398 6.16278 11.0436C6.29421 10.9582 6.36786 10.7991 6.36786 10.64C6.36786 10.4914 6.27655 10.3383 6.14542 10.2649" fill="#006DFF"/>
<path fill-rule="evenodd" clip-rule="evenodd" d="M6.11733 9.4056C6.22511 9.3262 6.28259 9.18477 6.28259 9.05353C6.28259 8.91061 6.21463 8.77428 6.08859 8.70027C5.95896 8.62596 5.71975 8.64274 5.56587 8.64274H5.0144V9.49639H5.63473C5.7937 9.49639 5.98141 9.50807 6.11733 9.4056" fill="#006DFF"/>
<path fill-rule="evenodd" clip-rule="evenodd" d="M6.85006 11.6412C6.56654 11.8518 6.18633 11.8518 5.85012 11.8518H4.10561V7.94942H5.85012C6.15758 7.94942 6.47553 7.94942 6.74258 8.11991C7.05484 8.31976 7.2201 8.60381 7.2201 8.97416C7.2201 9.41701 6.92431 9.71305 6.51535 9.81553V9.82631C6.99825 9.92339 7.32847 10.2931 7.32847 10.7989C7.32847 11.1399 7.1234 11.4425 6.85006 11.6412M5.63574 6C3.48228 6 1.73657 7.74685 1.73657 9.90211C1.73657 12.0577 3.48228 13.8045 5.63574 13.8045C7.78831 13.8045 9.53521 12.0577 9.53521 9.90211C9.53521 7.74685 7.78831 6 5.63574 6" fill="#006DFF"/>
<path fill-rule="evenodd" clip-rule="evenodd" d="M17.9587 10.1148C17.3566 8.40811 15.9528 7.80615 14.2335 7.80615C13.3314 7.80615 12.4857 8.00691 11.7689 8.60887C11.0669 9.19674 10.7085 9.99976 10.7085 10.9172C10.7085 13.0683 12.4279 13.5846 14.176 13.9432C14.7768 14.0715 15.895 14.23 15.895 15.0477C15.895 15.8645 15.0217 16.1087 14.3625 16.1087C13.3455 16.1087 12.6009 15.7497 12.3141 14.7172L10.1924 15.2047C10.6376 17.1265 12.3141 17.9301 14.1616 17.9301C15.1508 17.9301 16.2247 17.7437 17.012 17.1265C17.7728 16.538 18.2308 15.6209 18.2308 14.6599C18.2308 13.6855 17.7428 12.8681 16.9411 12.3375C16.2531 11.8784 15.1786 11.6774 14.3772 11.5057C13.8176 11.4044 12.9578 11.2327 12.9578 10.5169C12.9578 9.75616 13.7033 9.59795 14.3191 9.59795C15.1927 9.59795 15.7232 9.92815 16.01 10.7599L17.9587 10.1148ZM25.5521 17.7863C25.4371 17.4282 25.4084 17.0689 25.4084 16.6962V13.2978C25.4084 12.4234 25.4802 11.6201 24.7357 11.0182C24.1468 10.5307 23.1732 10.3581 22.4292 10.3581C20.8958 10.3581 19.1767 10.8749 18.9621 12.638L20.953 12.8249C20.953 12.1079 21.5406 11.7634 22.2131 11.7634C22.5289 11.7634 22.887 11.864 23.0735 12.1079C23.2887 12.38 23.2594 12.7524 23.2594 13.0683V13.2399C22.3711 13.3265 21.2107 13.3835 20.3805 13.6993C19.4207 14.0576 18.7468 14.7899 18.7468 15.8644C18.7468 17.2415 19.7491 17.9301 21.0389 17.9301C22.1283 17.9301 22.7576 17.5136 23.3606 16.6533C23.3459 17.0264 23.3744 17.4129 23.4606 17.7863H25.5521ZM23.2594 14.5883C23.2594 15.106 23.2744 15.5348 22.9735 15.9939C22.7295 16.3672 22.3427 16.5961 21.9128 16.5961C21.326 16.5961 20.982 16.2087 20.982 15.6355C20.982 14.5739 22.4567 14.3881 23.2594 14.3012V14.5883ZM28.7048 13.6855C28.7048 12.9112 28.8471 11.8068 29.8647 11.8068C31.0257 11.8068 31.0257 13.3265 31.0257 14.1439C31.0257 14.9323 31.0257 16.4523 29.8362 16.4523C29.4491 16.4523 29.1479 16.2665 28.9479 15.9504C28.7186 15.5929 28.7048 15.133 28.7048 14.7321V13.6855ZM26.5693 17.7862H27.7151C27.8444 17.3991 27.9306 16.9826 28.1878 16.6677C28.7186 17.5423 29.2201 17.9301 30.2658 17.9301C32.4573 17.9301 33.2169 16.0508 33.2169 14.1439C33.2169 12.4234 32.5867 10.3581 30.5092 10.3581C29.6922 10.3581 29.0914 10.7023 28.7324 11.4197H28.6758V7.94933H26.5693V17.7862ZM40.4524 17.7863C40.3371 17.4282 40.3099 17.0689 40.3099 16.6962V13.2978C40.3099 12.4234 40.3811 11.6201 39.6348 11.0182C39.0486 10.5307 38.0738 10.3581 37.3289 10.3581C35.7964 10.3581 34.0764 10.8749 33.8621 12.638L35.8533 12.8249C35.8533 12.1079 36.4404 11.7634 37.114 11.7634C37.4295 11.7634 37.787 11.864 37.9738 12.1079C38.1885 12.38 38.1609 12.7524 38.1609 13.0683V13.2399C37.2721 13.3265 36.1116 13.3835 35.28 13.6993C34.3201 14.0576 33.6459 14.7899 33.6459 15.8644C33.6459 17.2415 34.6495 17.9301 35.9389 17.9301C37.0278 17.9301 37.6583 17.5136 38.2609 16.6533C38.2462 17.0264 38.2741 17.4129 38.3609 17.7863H40.4524ZM38.1609 14.5883C38.1609 15.106 38.1747 15.5348 37.8738 15.9939C37.6298 16.3672 37.2427 16.5961 36.8137 16.5961C36.2257 16.5961 35.882 16.2087 35.882 15.6355C35.882 14.5739 37.3571 14.3881 38.1609 14.3012V14.5883ZM47.6876 17.7862V7.94933H45.5817V11.2761C45.1225 10.602 44.5794 10.3581 43.7618 10.3581C41.6412 10.3581 41.097 12.495 41.097 14.2299C41.097 15.9219 41.6697 17.9301 43.7187 17.9301C44.6501 17.9301 45.2521 17.4282 45.6539 16.6533H45.6823V17.7862H47.6876ZM45.5817 14.7465C45.5817 15.106 45.567 15.4923 45.3955 15.8219C45.223 16.1509 44.8653 16.4097 44.4788 16.4097C43.4321 16.4097 43.3174 15.0761 43.3174 14.2872C43.3174 13.4122 43.3612 11.835 44.5638 11.835C45.5242 11.835 45.5817 13.0395 45.5817 13.7427V14.7465ZM55.4251 14.502C55.4395 13.5129 55.2814 12.4807 54.6797 11.6492C54.077 10.8174 53.0319 10.3581 52.0146 10.3581C49.75 10.3581 48.4762 12.0932 48.4762 14.2443C48.4762 16.4097 49.894 17.9301 52.0711 17.9301C54.536 17.9301 55.3811 15.7787 55.3811 15.4198L53.4318 15.2768C53.4318 15.9504 52.7885 16.4238 52.1436 16.4238C51.2269 16.4238 50.7392 15.7215 50.7392 14.8606L50.7536 14.502H55.4251ZM50.7392 13.2549C50.8116 12.4234 51.1691 11.7343 52.1005 11.7343C53.0175 11.7343 53.2756 12.4657 53.3181 13.2549H50.7392ZM56.3559 17.7862H58.4615V7.94933H56.3559V17.7862ZM59.5078 17.7862H61.6131V7.94933H59.5078V17.7862Z" fill="black"/>
</svg>
