<svg width="64" height="24" viewBox="0 0 64 24" fill="none" xmlns="http://www.w3.org/2000/svg">
<g clip-path="url(#clip0)">
<mask id="mask0" mask-type="alpha" maskUnits="userSpaceOnUse" x="0" y="-9" width="64" height="42">
<rect y="-9" width="64" height="42" fill="white"/>
</mask>
<g mask="url(#mask0)">
</g>
<path d="M1.41724 1.58748H2.93684V8.14451H1.41724V1.58748ZM6.1449 4.40388V8.14451H4.6253V1.58748H5.81811L8.85188 5.44841V1.58748H10.3715V8.14451H9.14055L6.1449 4.40388ZM13.3726 1.66951C13.0839 1.76795 12.8334 1.89919 12.6046 2.07419C12.3922 2.24919 12.2015 2.47888 12.0872 2.74685C11.9728 3.01482 11.8965 3.32654 11.8965 3.65466C11.8965 3.90623 11.9347 4.11951 11.9946 4.31091C12.0708 4.50232 12.1689 4.66091 12.3214 4.79216C12.4739 4.92888 12.6482 5.06013 12.8769 5.15857C13.0893 5.27341 13.3562 5.37185 13.6667 5.46482C13.8954 5.54138 14.1079 5.60154 14.2985 5.65623C14.4891 5.71638 14.6634 5.77107 14.7996 5.83123C14.9358 5.89138 15.0501 5.96795 15.1264 6.04451C15.2026 6.12107 15.2408 6.21951 15.2408 6.35076C15.2408 6.67888 14.9739 6.83201 14.4347 6.83201C14.1841 6.83201 13.9336 6.79373 13.683 6.73357C13.4325 6.65701 13.2201 6.59685 13.0294 6.50388C12.8388 6.42732 12.6645 6.32888 12.5283 6.25232C12.3922 6.17576 12.3159 6.1156 12.2778 6.07732L11.6242 7.38982C11.8148 7.52654 12.0273 7.64138 12.256 7.73982C12.4848 7.83826 12.719 7.93123 12.9477 7.99138C13.1765 8.06795 13.427 8.10623 13.6776 8.14451C13.9281 8.18279 14.1787 8.20466 14.4074 8.20466C14.7124 8.20466 15.0229 8.16638 15.3279 8.08982C15.6166 8.01326 15.8835 7.89841 16.1177 7.73982C16.3464 7.5867 16.5207 7.37341 16.6569 7.12185C16.7931 6.87029 16.8693 6.56404 16.8693 6.17576C16.8693 5.86951 16.8312 5.61794 16.7331 5.40466C16.6351 5.19138 16.5044 4.99998 16.3301 4.86326C16.1558 4.71013 15.9434 4.59529 15.6765 4.47498C15.4259 4.37654 15.1373 4.28357 14.8323 4.18513C14.6198 4.12498 14.4074 4.07029 14.2549 4.01013C14.0806 3.94998 13.9499 3.9117 13.8301 3.85701C13.7157 3.79685 13.6395 3.74216 13.5632 3.6656C13.5033 3.58904 13.4652 3.4906 13.4652 3.39763C13.4652 3.22263 13.5414 3.09138 13.6776 2.99294C13.8137 2.89451 14.0044 2.85623 14.2713 2.85623C14.4619 2.85623 14.658 2.8781 14.8649 2.93279C15.0556 2.99294 15.2517 3.04763 15.4042 3.12419C15.5785 3.20076 15.7092 3.26091 15.829 3.33748C15.9434 3.41404 16.0033 3.45232 16.0414 3.4742L16.695 2.22185C16.5588 2.14529 16.39 2.04685 16.2157 1.97029C16.0033 1.91013 15.8127 1.83357 15.622 1.75701C15.4314 1.68044 15.219 1.64216 14.9902 1.58201C14.7778 1.54373 14.549 1.52185 14.3203 1.52185C13.988 1.53279 13.6776 1.58748 13.3726 1.66951ZM17.6754 1.58748V2.92185H19.6743V8.14998H21.1721V2.92185H23.1493V1.59294H17.6754V1.58748ZM26.2484 3.18982L27 5.62341H25.4641L26.2484 3.18982ZM25.6493 1.58748L23.1329 8.14451H24.7288L25.2299 6.67888H27.2669L27.768 8.14451H29.3639L26.8639 1.58748H25.6493ZM34.6416 1.58748V5.44841L31.6079 1.58748H30.4368V8.14451H31.9347V4.40388L34.9521 8.14451H36.1612V1.58748H34.6416ZM37.354 1.58748V2.92185H39.353V8.14998H40.8508V2.92185H42.8497V1.59294H37.354V1.58748Z" fill="url(#paint0_linear)"/>
<path d="M9.77776 10.4851C9.39105 10.6765 9.06425 10.9281 8.79737 11.2398C8.53048 11.5515 8.31807 11.8961 8.1819 12.2844C8.04573 12.6726 7.96948 13.0773 7.96948 13.4601C7.96948 13.8867 8.04573 14.2914 8.19824 14.6961C8.35075 15.1008 8.56316 15.4672 8.83005 15.7789C9.09693 16.107 9.42373 16.3586 9.81044 16.55C10.1972 16.7414 10.6002 16.8398 11.0577 16.8398C11.3083 16.8398 11.5751 16.8015 11.8475 16.7414C12.1144 16.6648 12.3649 16.5664 12.5991 16.4515C12.8279 16.3148 13.0621 16.1617 13.2309 15.9703C13.4216 15.7789 13.5577 15.5656 13.6558 15.314L12.4085 14.5812C12.3486 14.7562 12.2723 14.8875 12.1797 15.0078C12.0871 15.1281 11.9673 15.2211 11.8529 15.2758C11.7385 15.3523 11.6024 15.3906 11.4662 15.4289C11.33 15.4672 11.2157 15.489 11.0795 15.489C10.8507 15.489 10.6165 15.4289 10.4259 15.3359C10.2353 15.2211 10.061 15.0843 9.92482 14.8929C9.78865 14.7015 9.67427 14.4883 9.59802 14.2586C9.52177 14.0289 9.48364 13.7773 9.48364 13.5039C9.48364 13.2742 9.52177 13.0226 9.58168 12.7875C9.6416 12.5578 9.73419 12.3445 9.87035 12.1531C10.0065 11.9617 10.159 11.825 10.3497 11.7101C10.5403 11.5953 10.7745 11.5351 11.0414 11.5351C11.1558 11.5351 11.2919 11.557 11.4063 11.5734C11.5425 11.5953 11.6568 11.65 11.793 11.7265C11.9074 11.8031 12.0218 11.8797 12.1416 11.9945C12.2396 12.1093 12.3322 12.2461 12.3921 12.4211L13.5468 11.6117C13.3344 11.1851 13.0294 10.8406 12.5882 10.5672C12.1634 10.2992 11.646 10.1625 11.0686 10.1625C10.6056 10.1953 10.1645 10.2883 9.77776 10.4851ZM16.4063 11.5625H17.7298C17.9041 11.5625 18.0566 11.639 18.2091 11.7922C18.3616 11.9453 18.4216 12.1586 18.4216 12.4484C18.4216 12.7164 18.3616 12.9297 18.2309 13.1047C18.0948 13.2797 17.9422 13.3562 17.768 13.3562H16.3845V11.5625H16.4063ZM14.8921 10.2336V16.7906H16.39V14.6687H17.3704L18.6775 16.7906H20.3878L18.89 14.357C19.0643 14.2586 19.195 14.1437 19.3311 14.0289C19.4673 13.8922 19.5817 13.739 19.6579 13.5859C19.756 13.4109 19.8104 13.2359 19.8704 13.0445C19.9303 12.8531 19.9466 12.6562 19.9466 12.4648C19.9466 12.1968 19.8867 11.9234 19.7941 11.6554C19.6797 11.3875 19.5436 11.1523 19.3529 10.939C19.1623 10.7258 18.9281 10.5508 18.683 10.4359C18.4161 10.2992 18.1438 10.2445 17.8388 10.2445H14.8976V10.2336H14.8921ZM21.6133 10.2336V16.7742H26.1884V15.4617H23.1165V14.0508H25.6928V12.8367H23.1165V11.5625H26.1122V10.2336H21.6133ZM29.1078 11.5625H30.0283C30.2952 11.5625 30.5457 11.6008 30.7582 11.6992C30.9706 11.7976 31.1612 11.9289 31.2974 12.1039C31.4499 12.2789 31.5479 12.4922 31.6242 12.7218C31.7004 12.9515 31.7385 13.225 31.7385 13.5148C31.7385 13.8047 31.7004 14.0562 31.6242 14.2859C31.5479 14.5156 31.4335 14.7289 31.2974 14.9039C31.1449 15.0789 30.9706 15.2101 30.7582 15.3086C30.5457 15.407 30.2952 15.4617 30.0283 15.4617H29.1078V11.5625ZM27.5882 10.2336V16.7906H30.0283C30.5294 16.7906 30.9706 16.714 31.3736 16.5609C31.7767 16.4078 32.1253 16.1726 32.4139 15.9047C32.7026 15.6148 32.915 15.2703 33.0675 14.8601C33.22 14.4554 33.2963 14.0125 33.2963 13.5093C33.2963 13.0664 33.22 12.6398 33.0839 12.2351C32.9477 11.8304 32.7353 11.4804 32.4684 11.1906C32.2015 10.9008 31.8529 10.6711 31.4499 10.4961C31.0468 10.3211 30.5675 10.2445 30.0283 10.2445H27.5882V10.2336ZM34.6416 10.2336H36.1394V16.7906H34.6416V10.2336ZM37.354 10.2336V11.5625H39.3529V16.7742H40.8507V11.5625H42.8497V10.2336H37.354Z" fill="url(#paint1_linear)"/>
<path d="M51.8802 -1.48047L51.0741 -0.862501C50.6329 -0.512501 50.5948 0.198436 50.8998 0.663279L55.5893 7.63046C55.9161 8.11171 56.0904 8.6914 56.0686 9.24921C56.0686 9.80702 55.9161 10.3867 55.5893 10.868L50.8998 17.8351C50.5948 18.3 50.6329 19.0109 51.0741 19.3609L51.8802 19.9789C52.3213 20.307 53.0131 20.1922 53.3998 19.7875L61.7604 11.3766C62.3377 10.7969 62.6264 10.0258 62.6264 9.25468C62.6264 8.48359 62.3377 7.7289 61.7604 7.13281L53.3998 -1.27813C53.171 -1.50781 52.8224 -1.66641 52.4793 -1.66641C52.2614 -1.67188 52.049 -1.61172 51.8802 -1.48047Z" fill="url(#paint2_linear)"/>
<path d="M47.8224 1.41807L47.3976 1.78447C47.1089 2.03604 46.9945 2.44072 47.147 2.80713L49.4346 8.42354C49.5326 8.6751 49.5871 8.92666 49.6089 9.17823C49.5871 9.42979 49.5326 9.69776 49.4346 9.93291L47.1307 15.5657C46.9782 15.9321 47.0926 16.3368 47.3812 16.5884L47.8061 16.9548C48.2472 17.3431 48.9226 17.2446 49.2658 16.7634L53.6285 10.3759C53.879 10.0095 54.0152 9.60479 54.0316 9.17823C54.0098 8.75166 53.879 8.34698 53.6285 7.98057L49.2658 1.59307C49.0751 1.30322 48.7647 1.1665 48.4597 1.1665C48.2255 1.18838 47.9967 1.26494 47.8224 1.41807Z" fill="url(#paint3_linear)"/>
<path d="M7.97485 23.4899V20.4875H9.10231C9.33106 20.4875 9.51625 20.4985 9.71777 20.6297C9.9193 20.7665 10.0337 20.9743 10.0337 21.2204C10.0337 21.5594 9.83215 21.8165 9.50535 21.893V21.904C9.87573 21.9805 10.1263 22.2813 10.1263 22.6641C10.1263 22.9157 10.0391 23.1399 9.8376 23.2985C9.60884 23.479 9.37464 23.4899 9.10231 23.4899H7.97485ZM8.92801 21.7727C9.1132 21.7727 9.32017 21.7782 9.47267 21.6579C9.5925 21.5704 9.65786 21.4063 9.65786 21.2641C9.65786 21.0836 9.58705 20.9579 9.43455 20.8649C9.30383 20.7883 9.16766 20.7883 9.02061 20.7883H8.34522V21.7672H8.92801V21.7727ZM9.08052 23.1672C9.24392 23.1672 9.4291 23.1508 9.55982 23.0469C9.68509 22.9485 9.74501 22.8063 9.74501 22.6422C9.74501 22.4618 9.66875 22.2813 9.52714 22.1719C9.38553 22.0571 9.1949 22.0571 9.02605 22.0571H8.34522V23.1672H9.08052Z" fill="#020203"/>
<path d="M11.3081 23.6976C11.2482 23.8617 11.1992 23.982 11.0794 24.1078C10.9432 24.25 10.8288 24.2773 10.6327 24.2773C10.5456 24.2773 10.4639 24.2609 10.3822 24.2391V23.9656C10.4584 23.982 10.5347 23.9984 10.611 23.9984C10.9541 23.9984 11.014 23.7141 11.1066 23.4516L10.3386 21.2695H10.6927L11.2863 22.943L11.8909 21.2695H12.1796L11.3081 23.6976Z" fill="#020203"/>
<path d="M13.8137 23.4899V20.4875H14.9412C15.1699 20.4875 15.3551 20.4985 15.5566 20.6297C15.7582 20.7665 15.8725 20.9743 15.8725 21.2204C15.8725 21.5594 15.671 21.8165 15.3442 21.893V21.904C15.7146 21.9805 15.9651 22.2813 15.9651 22.6641C15.9651 22.9157 15.878 23.1399 15.6765 23.2985C15.4477 23.479 15.2135 23.4899 14.9412 23.4899H13.8137ZM14.7723 21.7727C14.9575 21.7727 15.1645 21.7782 15.317 21.6579C15.4368 21.5704 15.5022 21.4063 15.5022 21.2641C15.5022 21.0836 15.4314 20.9579 15.2789 20.8649C15.1481 20.7883 15.012 20.7883 14.8649 20.7883H14.1895V21.7672H14.7723V21.7727ZM14.9248 23.1672C15.0882 23.1672 15.2734 23.1508 15.4041 23.0469C15.5294 22.9485 15.5893 22.8063 15.5893 22.6422C15.5893 22.4618 15.5131 22.2813 15.3715 22.1719C15.2298 22.0571 15.0392 22.0571 14.8704 22.0571H14.1895V23.1672H14.9248Z" fill="#020203"/>
<path d="M17.8768 22.1118V22.0134C17.8768 21.6251 17.7079 21.4774 17.3158 21.4774C17.038 21.4774 16.7711 21.5649 16.7112 21.8712L16.3953 21.8165C16.4552 21.3517 16.9454 21.2095 17.3484 21.2095C17.5881 21.2095 17.8604 21.2368 18.0293 21.4282C18.2144 21.6251 18.2144 21.904 18.2144 22.161V23.0251C18.2144 23.1892 18.2199 23.3478 18.2635 23.4954H17.9258L17.8877 23.0798C17.7297 23.397 17.4628 23.5392 17.1142 23.5392C16.7003 23.5392 16.3408 23.3095 16.3408 22.8665C16.3408 22.5985 16.5042 22.3579 16.7493 22.2485C16.9999 22.1282 17.3267 22.1173 17.599 22.1173H17.8768V22.1118ZM17.8768 22.3688H17.5935C17.245 22.3688 16.6948 22.4181 16.6948 22.8774C16.6948 23.1509 16.9291 23.2657 17.1741 23.2657C17.5935 23.2657 17.8768 22.9048 17.8768 22.511V22.3688Z" fill="#020203"/>
<path d="M19.1459 21.6743H19.1568C19.2821 21.4009 19.5326 21.204 19.8431 21.204C20.1099 21.204 20.3333 21.3188 20.4694 21.5485C20.5838 21.7344 20.5729 22.0352 20.5729 22.254V23.4844H20.2352V22.1118C20.2352 21.9805 20.2407 21.8165 20.1753 21.7016C20.099 21.5759 19.9411 21.4993 19.794 21.4993C19.6143 21.4993 19.4563 21.5813 19.3365 21.7235C19.1949 21.8985 19.1622 22.1009 19.1622 22.3251V23.4899H18.8191V21.2641H19.1404V21.6743H19.1459Z" fill="#020203"/>
<path d="M22.8223 22.7516C22.746 23.2001 22.441 23.5282 21.9672 23.5282C21.3081 23.5282 21.0249 22.954 21.0249 22.3743C21.0249 21.7946 21.3136 21.204 21.9726 21.204C22.4519 21.204 22.746 21.5157 22.8223 21.9751L22.5064 22.0298C22.4737 21.7344 22.2994 21.4938 21.9781 21.4938C21.5151 21.4938 21.3844 21.9805 21.3844 22.3524C21.3844 22.7134 21.4933 23.2384 21.9563 23.2384C22.2885 23.2384 22.4465 22.9977 22.5064 22.6969L22.8223 22.7516Z" fill="#020203"/>
<path d="M24.1677 21.2095C24.8158 21.2095 25.1426 21.7782 25.1426 22.3634C25.1426 22.9868 24.7831 23.5337 24.1132 23.5337C23.4487 23.5337 23.1546 22.9485 23.1546 22.3579C23.1492 21.7399 23.4977 21.2095 24.1677 21.2095ZM23.6557 22.9704C23.7537 23.1399 23.9389 23.2493 24.1404 23.2493C24.3692 23.2493 24.5435 23.129 24.6524 22.9321C24.745 22.7571 24.7614 22.5548 24.7614 22.3634C24.7614 22.1556 24.7341 21.9368 24.6197 21.7563C24.5163 21.5923 24.3311 21.4938 24.1404 21.4938C23.928 21.4938 23.7374 21.6142 23.6394 21.811C23.5577 21.9751 23.5304 22.1884 23.5304 22.3688C23.5304 22.5603 23.5631 22.7954 23.6557 22.9704Z" fill="#020203"/>
<path d="M27.1524 22.604C27.2722 23.0196 27.6208 23.211 28.0402 23.211C28.2199 23.211 28.4378 23.1728 28.574 23.0634C28.6883 22.9759 28.7591 22.8228 28.7591 22.6806C28.7591 22.3798 28.5086 22.254 28.2472 22.1884L27.7515 22.0681C27.55 22.0188 27.3703 21.9696 27.2123 21.8274C27.0543 21.6853 26.9672 21.4829 26.9672 21.2696C26.9672 20.6899 27.4628 20.4438 27.9857 20.4438C28.4868 20.4438 28.8899 20.6954 29.0478 21.1767L28.7101 21.2696C28.6448 20.9415 28.2962 20.7392 27.9803 20.7392C27.6971 20.7392 27.3376 20.8868 27.3376 21.2149C27.3376 21.554 27.599 21.6251 27.8768 21.6907L28.3234 21.8001C28.5195 21.8438 28.7156 21.8985 28.8681 22.0298C29.0533 22.1829 29.1459 22.3907 29.1459 22.6259C29.1459 22.8993 29.026 23.1399 28.8082 23.3095C28.5903 23.4735 28.2962 23.5282 28.0293 23.5282C27.4193 23.5282 27.0162 23.2548 26.8147 22.6751L27.1524 22.604Z" fill="#020203"/>
<path d="M31.0467 22.1118V22.0134C31.0467 21.6251 30.8778 21.4774 30.4857 21.4774C30.2079 21.4774 29.941 21.5649 29.8811 21.8712L29.5652 21.8165C29.6251 21.3517 30.1153 21.2095 30.5184 21.2095C30.758 21.2095 31.0303 21.2368 31.1992 21.4282C31.3844 21.6251 31.3844 21.904 31.3844 22.161V23.0251C31.3844 23.1892 31.3898 23.3478 31.4334 23.4954H31.0957L31.0576 23.0798C30.8996 23.397 30.6327 23.5392 30.2842 23.5392C29.8702 23.5392 29.5107 23.3095 29.5107 22.8665C29.5107 22.5985 29.6741 22.3579 29.9192 22.2485C30.1698 22.1282 30.4966 22.1173 30.7689 22.1173H31.0467V22.1118ZM31.0467 22.3688H30.7635C30.4149 22.3688 29.8648 22.4181 29.8648 22.8774C29.8648 23.1509 30.099 23.2657 30.3441 23.2657C30.7635 23.2657 31.0467 22.9048 31.0467 22.511V22.3688Z" fill="#020203"/>
<path d="M32.1253 23.4899H31.9619V20.4875H32.2996V21.636H32.3159C32.4576 21.3735 32.6536 21.2094 32.9641 21.2094C33.2364 21.2094 33.4979 21.3516 33.6449 21.5704C33.792 21.7891 33.8519 22.0844 33.8519 22.3469C33.8519 22.9102 33.5796 23.5336 32.926 23.5336C32.6318 23.5336 32.3813 23.3586 32.2451 23.1071L32.1253 23.4899ZM32.9042 21.4829C32.5556 21.4829 32.2996 21.8383 32.2996 22.2102V22.4782C32.2996 22.7079 32.3377 22.8719 32.4249 23.0032C32.5284 23.1563 32.719 23.2547 32.9042 23.2547C33.3562 23.2547 33.487 22.768 33.487 22.4016C33.4924 22.0297 33.378 21.4829 32.9042 21.4829Z" fill="#020203"/>
<path d="M35.7581 22.1118V22.0134C35.7581 21.6251 35.5893 21.4774 35.1971 21.4774C34.9193 21.4774 34.6525 21.5649 34.5925 21.8712L34.2766 21.8165C34.3365 21.3517 34.8267 21.2095 35.2298 21.2095C35.4694 21.2095 35.7418 21.2368 35.9106 21.4282C36.0958 21.6251 36.0958 21.904 36.0958 22.161V23.0251C36.0958 23.1892 36.1013 23.3478 36.1448 23.4954H35.8071L35.769 23.0798C35.6111 23.397 35.3442 23.5392 34.9956 23.5392C34.5816 23.5392 34.2222 23.3095 34.2222 22.8665C34.2222 22.5985 34.3856 22.3579 34.6307 22.2485C34.8812 22.1282 35.208 22.1173 35.4803 22.1173H35.7581V22.1118ZM35.7581 22.3688H35.4749C35.1263 22.3688 34.5762 22.4181 34.5762 22.8774C34.5762 23.1509 34.8104 23.2657 35.0555 23.2657C35.4749 23.2657 35.7581 22.9048 35.7581 22.511V22.3688Z" fill="#020203"/>
<path d="M38.122 20.4875H38.4596V23.4899H38.1492V23.0961H38.1383C37.9967 23.375 37.7734 23.5336 37.4466 23.5336C37.1524 23.5336 36.9346 23.3915 36.7712 23.1563C36.6187 22.9266 36.5642 22.6477 36.5642 22.3743C36.5642 21.8165 36.8365 21.204 37.4792 21.204C37.7625 21.204 37.964 21.3407 38.122 21.5649V20.4875ZM38.122 22.1719C38.122 22.0188 38.1002 21.8602 38.0076 21.729C37.8986 21.5704 37.7026 21.4774 37.5119 21.4774C37.3213 21.4774 37.1524 21.5977 37.0653 21.7563C36.9673 21.9313 36.9346 22.1336 36.9346 22.336C36.9346 22.6969 37.0326 23.2493 37.5065 23.2493C37.7026 23.2493 37.8823 23.1399 37.9967 22.9813C38.1002 22.8391 38.1274 22.6915 38.1274 22.5274V22.1719H38.122Z" fill="#020203"/>
<path d="M40.8724 22.8829C40.7417 23.2876 40.355 23.5337 39.9301 23.5337C39.2602 23.5337 38.9116 22.9978 38.9116 22.3798C38.9116 21.7673 39.2711 21.2095 39.9356 21.2095C40.6219 21.2095 40.9214 21.7892 40.9051 22.4071H39.2983C39.2983 22.5821 39.3092 22.7462 39.3909 22.9103C39.4944 23.1181 39.7286 23.2493 39.9574 23.2493C40.246 23.2493 40.453 23.0853 40.551 22.8228L40.8724 22.8829ZM40.5347 22.1501C40.5402 21.7837 40.3332 21.472 39.941 21.472C39.5707 21.472 39.331 21.8001 39.3201 22.1501H40.5347Z" fill="#020203"/>
<path d="M41.4607 23.4899V20.4875H41.7984V23.4899H41.4607Z" fill="#020203"/>
<path d="M42.5066 23.4899V20.4875H42.8443V23.4899H42.5066Z" fill="#020203"/>
</g>
<defs>
<linearGradient id="paint0_linear" x1="12.8754" y1="17.5165" x2="25.727" y2="-2.00372" gradientUnits="userSpaceOnUse">
<stop stop-color="#16B9DA"/>
<stop offset="0.1863" stop-color="#05B3DA"/>
<stop offset="0.4953" stop-color="#0199D1"/>
<stop offset="0.5506" stop-color="#0594CF"/>
<stop offset="0.5562" stop-color="#0280BF"/>
<stop offset="0.809" stop-color="#006CA5"/>
<stop offset="0.9944" stop-color="#025789"/>
<stop offset="1" stop-color="#025789"/>
</linearGradient>
<linearGradient id="paint1_linear" x1="21.9317" y1="18.655" x2="31.0278" y2="4.0077" gradientUnits="userSpaceOnUse">
<stop stop-color="#16B9DA"/>
<stop offset="0.1863" stop-color="#05B3DA"/>
<stop offset="0.4953" stop-color="#0199D1"/>
<stop offset="0.5506" stop-color="#0594CF"/>
<stop offset="0.5562" stop-color="#0280BF"/>
<stop offset="0.809" stop-color="#006CA5"/>
<stop offset="0.9944" stop-color="#025789"/>
<stop offset="1" stop-color="#025789"/>
</linearGradient>
<linearGradient id="paint2_linear" x1="51.5971" y1="14.6481" x2="56.4452" y2="5.3299" gradientUnits="userSpaceOnUse">
<stop stop-color="#16B9DA"/>
<stop offset="0.1863" stop-color="#05B3DA"/>
<stop offset="0.4953" stop-color="#0199D1"/>
<stop offset="0.5506" stop-color="#0594CF"/>
<stop offset="0.5562" stop-color="#0280BF"/>
<stop offset="0.809" stop-color="#006CA5"/>
<stop offset="0.9944" stop-color="#025789"/>
<stop offset="1" stop-color="#025789"/>
</linearGradient>
<linearGradient id="paint3_linear" x1="45.1124" y1="15.7679" x2="52.1706" y2="3.1485" gradientUnits="userSpaceOnUse">
<stop stop-color="#16B9DA"/>
<stop offset="0.1863" stop-color="#05B3DA"/>
<stop offset="0.4953" stop-color="#0199D1"/>
<stop offset="0.5506" stop-color="#0594CF"/>
<stop offset="0.5562" stop-color="#0280BF"/>
<stop offset="0.809" stop-color="#006CA5"/>
<stop offset="0.9944" stop-color="#025789"/>
<stop offset="1" stop-color="#025789"/>
</linearGradient>
<clipPath id="clip0">
<rect width="64" height="24" rx="1" fill="white"/>
</clipPath>
</defs>
</svg>
