<svg width="64" height="24" viewBox="0 0 64 24" fill="none" xmlns="http://www.w3.org/2000/svg">
<rect width="64" height="24" fill="#FFB3C7"/>
<path fill-rule="evenodd" clip-rule="evenodd" d="M13.1284 18.7594H11V6H13.1284V18.7594ZM18.4422 6H16.3599C16.3599 8.34805 15.5753 10.5032 14.2072 11.9131L13.3822 12.7631L16.5787 18.7599H19.2068L16.2656 13.242C17.6598 11.332 18.4422 8.7623 18.4422 6ZM21.8369 18.7565H19.8269V6.00308H21.8369V18.7565ZM27.9101 9.93329V10.4976C27.3677 9.9886 26.7131 9.68945 26.007 9.68945C24.1384 9.68945 22.6235 11.7736 22.6235 14.3445C22.6235 16.9154 24.1384 18.9996 26.007 18.9996C26.7131 18.9996 27.3677 18.7004 27.9101 18.1915V18.7554H29.83V9.93329H27.9101ZM27.9043 14.345C27.9043 15.5986 27.1254 16.6148 26.1646 16.6148C25.2039 16.6148 24.425 15.5986 24.425 14.345C24.425 13.0914 25.2039 12.0754 26.1646 12.0754C27.1254 12.0754 27.9043 13.0914 27.9043 14.345ZM48.1641 10.4976V9.93329H50.0839V18.7554H48.1641V18.1915C47.6217 18.7004 46.9671 18.9996 46.2609 18.9996C44.3923 18.9996 42.8774 16.9154 42.8774 14.3445C42.8774 11.7736 44.3923 9.68945 46.2609 9.68945C46.9671 9.68945 47.6217 9.9886 48.1641 10.4976ZM46.4185 16.6148C47.3793 16.6148 48.1581 15.5986 48.1581 14.345C48.1581 13.0914 47.3793 12.0754 46.4185 12.0754C45.4577 12.0754 44.679 13.0914 44.679 14.345C44.679 15.5986 45.4577 16.6148 46.4185 16.6148ZM50.917 17.2847C50.917 16.3692 51.4564 15.6271 52.1217 15.6271C52.787 15.6271 53.3265 16.3692 53.3265 17.2847C53.3265 18.1999 52.787 18.9421 52.1217 18.9421C51.4564 18.9421 50.917 18.1999 50.917 17.2847ZM39.4659 9.69627C38.699 9.69627 37.9732 10.0238 37.488 10.9276V9.93407H35.5764V18.7556H37.5114V14.1196C37.5114 12.778 38.1653 12.1211 38.9526 12.1211C39.7964 12.1211 40.2814 12.8146 40.2814 14.1013V18.7556H42.199V13.1455C42.199 11.0925 41.0125 9.69627 39.4659 9.69627ZM32.7998 9.93368V11.0827C33.1847 10.3935 33.9018 9.93419 34.6814 9.93419V12.5013C34.6777 12.5012 34.6742 12.5009 34.6707 12.5007C34.6667 12.5004 34.6627 12.5001 34.6586 12.5001C33.899 12.5001 32.8042 13.2471 32.8042 14.6367V18.7556H30.8342V9.93368H32.7998Z" fill="#17120F"/>
</svg>
