<svg width="64" height="40" viewBox="0 0 64 40" fill="none" xmlns="http://www.w3.org/2000/svg">
<path d="M0 8C0 3.58172 3.58172 0 8 0H56C60.4183 0 64 3.58172 64 8V32C64 36.4183 60.4183 40 56 40H8C3.58172 40 0 36.4183 0 32V8Z" fill="white"/>
<mask id="mask0" mask-type="alpha" maskUnits="userSpaceOnUse" x="8" y="4" width="48" height="32">
<rect x="8" y="4" width="48" height="32" fill="white"/>
</mask>
<g mask="url(#mask0)">
<path fill-rule="evenodd" clip-rule="evenodd" d="M13.1284 24.8148H11V15H13.1284V24.8148ZM18.4422 15H16.3599C16.3599 16.8062 15.5753 18.464 14.2072 19.5485L13.3822 20.2024L16.5787 24.8152H19.2068L16.2656 20.5707C17.6598 19.1015 18.4422 17.1248 18.4422 15ZM21.8371 24.8125H19.827V15.0023H21.8371V24.8125ZM27.9101 18.0256V18.4597C27.3677 18.0682 26.7131 17.838 26.007 17.838C24.1383 17.838 22.6235 19.4412 22.6235 21.4188C22.6235 23.3965 24.1383 24.9996 26.007 24.9996C26.7131 24.9996 27.3677 24.7695 27.9101 24.378V24.8118H29.83V18.0256H27.9101ZM27.9043 21.4192C27.9043 22.3835 27.1254 23.1652 26.1646 23.1652C25.2039 23.1652 24.425 22.3835 24.425 21.4192C24.425 20.4549 25.2039 19.6734 26.1646 19.6734C27.1254 19.6734 27.9043 20.4549 27.9043 21.4192ZM48.164 18.4597V18.0256H50.0838V24.8118H48.164V24.378C47.6217 24.7695 46.967 24.9996 46.2609 24.9996C44.3922 24.9996 42.8774 23.3965 42.8774 21.4188C42.8774 19.4412 44.3922 17.838 46.2609 17.838C46.967 17.838 47.6217 18.0682 48.164 18.4597ZM46.4185 23.1652C47.3793 23.1652 48.1581 22.3835 48.1581 21.4192C48.1581 20.4549 47.3793 19.6734 46.4185 19.6734C45.4577 19.6734 44.6789 20.4549 44.6789 21.4192C44.6789 22.3835 45.4577 23.1652 46.4185 23.1652ZM50.917 23.6804C50.917 22.9762 51.4564 22.4053 52.1217 22.4053C52.7871 22.4053 53.3265 22.9762 53.3265 23.6804C53.3265 24.3844 52.7871 24.9554 52.1217 24.9554C51.4564 24.9554 50.917 24.3844 50.917 23.6804ZM39.4658 17.8433C38.6989 17.8433 37.9732 18.0953 37.4879 18.7905V18.0262H35.5763V24.812H37.5114V21.2458C37.5114 20.2139 38.1653 19.7085 38.9525 19.7085C39.7963 19.7085 40.2814 20.242 40.2814 21.2318V24.812H42.1989V20.4965C42.1989 18.9173 41.0125 17.8433 39.4658 17.8433ZM32.7998 18.0258V18.9097C33.1847 18.3795 33.9018 18.0262 34.6814 18.0262V20.0009C34.6777 20.0008 34.6742 20.0006 34.6707 20.0004C34.6667 20.0002 34.6627 20 34.6586 20C33.8989 20 32.8042 20.5746 32.8042 21.6435V24.8119H30.8342V18.0258H32.7998Z" fill="#17120F"/>
</g>
</svg>
