<svg width="64" height="24" viewBox="0 0 64 24" fill="none" xmlns="http://www.w3.org/2000/svg">
<g clip-path="url(#clip0)">
<mask id="mask0" mask-type="alpha" maskUnits="userSpaceOnUse" x="-3" y="-12" width="70" height="48">
<rect x="-3" y="-12" width="70" height="48" fill="white"/>
</mask>
<g mask="url(#mask0)">
<path fill-rule="evenodd" clip-rule="evenodd" d="M4.47895 19.2222H1.375V4.5H4.47895V19.2222ZM12.2283 4.5H9.19163C9.19163 7.20926 8.04732 9.69593 6.05221 11.3228L4.84915 12.3035L9.51063 19.2228H13.3433L9.05408 12.856C11.0872 10.6522 12.2283 7.68725 12.2283 4.5ZM17.179 19.2188H14.2477V4.50338H17.179V19.2188ZM26.0355 9.03841V9.68957C25.2446 9.10222 24.2899 8.75705 23.2602 8.75705C20.5351 8.75705 18.326 11.1618 18.326 14.1282C18.326 17.0947 20.5351 19.4994 23.2602 19.4994C24.2899 19.4994 25.2446 19.1543 26.0355 18.5671V19.2176H28.8354V9.03841H26.0355ZM26.027 14.1288C26.027 15.5752 24.8912 16.7478 23.49 16.7478C22.089 16.7478 20.9532 15.5752 20.9532 14.1288C20.9532 12.6824 22.089 11.51 23.49 11.51C24.8912 11.51 26.027 12.6824 26.027 14.1288ZM55.5726 9.68957V9.03841H58.3723V19.2176H55.5726V18.5671C54.7816 19.1543 53.8269 19.4994 52.7971 19.4994C50.072 19.4994 47.8629 17.0947 47.8629 14.1282C47.8629 11.1618 50.072 8.75705 52.7971 8.75705C53.8269 8.75705 54.7816 9.10222 55.5726 9.68957ZM53.027 16.7478C54.4281 16.7478 55.5638 15.5752 55.5638 14.1288C55.5638 12.6824 54.4281 11.51 53.027 11.51C51.6258 11.51 50.4901 12.6824 50.4901 14.1288C50.4901 15.5752 51.6258 16.7478 53.027 16.7478ZM59.5873 17.5206C59.5873 16.4642 60.3739 15.608 61.3442 15.608C62.3145 15.608 63.1012 16.4642 63.1012 17.5206C63.1012 18.5767 62.3145 19.433 61.3442 19.433C60.3739 19.433 59.5873 18.5767 59.5873 17.5206ZM42.8877 8.76496C41.7693 8.76496 40.7109 9.14293 40.0032 10.1857V9.03935H37.2155V19.218H40.0374V13.8687C40.0374 12.3208 40.991 11.5628 42.1392 11.5628C43.3696 11.5628 44.077 12.363 44.077 13.8477V19.218H46.8734V12.7448C46.8734 10.3759 45.1432 8.76496 42.8877 8.76496ZM33.1664 9.03875V10.3645C33.7276 9.56926 34.7734 9.03934 35.9103 9.03934V12.0013L35.9035 12.0011L35.8948 12.0007L35.8855 12.0002L35.8771 12C34.7693 12 33.1728 12.8619 33.1728 14.4653V19.2178H30.2999V9.03875H33.1664Z" fill="#17120F"/>
</g>
</g>
<defs>
<clipPath id="clip0">
<rect width="64" height="24" rx="1" fill="white"/>
</clipPath>
</defs>
</svg>
