<svg width="48" height="32" viewBox="0 0 48 32" fill="none" xmlns="http://www.w3.org/2000/svg">
<rect width="48" height="32" fill="#FFB3C7"/>
<mask id="mask0_107061_169584" style="mask-type:alpha" maskUnits="userSpaceOnUse" x="0" y="0" width="48" height="32">
<rect width="48" height="32" fill="white"/>
</mask>
<g mask="url(#mask0_107061_169584)">
<path fill-rule="evenodd" clip-rule="evenodd" d="M5.12842 20.8148H3V11H5.12842V20.8148ZM10.4422 11H8.35995C8.35995 12.8062 7.57528 14.464 6.20721 15.5485L5.38225 16.2024L8.57869 20.8152H11.2068L8.26563 16.5707C9.65978 15.1015 10.4422 13.1248 10.4422 11ZM13.8371 20.8125H11.827V11.0023H13.8371V20.8125ZM19.9101 14.0256V14.4597C19.3677 14.0682 18.7131 13.838 18.007 13.838C16.1383 13.838 14.6235 15.4412 14.6235 17.4188C14.6235 19.3965 16.1383 20.9996 18.007 20.9996C18.7131 20.9996 19.3677 20.7695 19.9101 20.378V20.8118H21.83V14.0256H19.9101ZM19.9043 17.4192C19.9043 18.3835 19.1254 19.1652 18.1646 19.1652C17.2039 19.1652 16.425 18.3835 16.425 17.4192C16.425 16.4549 17.2039 15.6734 18.1646 15.6734C19.1254 15.6734 19.9043 16.4549 19.9043 17.4192ZM40.164 14.4597V14.0256H42.0838V20.8118H40.164V20.378C39.6217 20.7695 38.967 20.9996 38.2609 20.9996C36.3922 20.9996 34.8774 19.3965 34.8774 17.4188C34.8774 15.4412 36.3922 13.838 38.2609 13.838C38.967 13.838 39.6217 14.0682 40.164 14.4597ZM38.4185 19.1652C39.3793 19.1652 40.1581 18.3835 40.1581 17.4192C40.1581 16.4549 39.3793 15.6734 38.4185 15.6734C37.4577 15.6734 36.6789 16.4549 36.6789 17.4192C36.6789 18.3835 37.4577 19.1652 38.4185 19.1652ZM42.917 19.6804C42.917 18.9762 43.4564 18.4053 44.1217 18.4053C44.7871 18.4053 45.3265 18.9762 45.3265 19.6804C45.3265 20.3844 44.7871 20.9554 44.1217 20.9554C43.4564 20.9554 42.917 20.3844 42.917 19.6804ZM31.4658 13.8433C30.6989 13.8433 29.9732 14.0953 29.4879 14.7905V14.0262H27.5763V20.812H29.5114V17.2458C29.5114 16.2139 30.1653 15.7085 30.9525 15.7085C31.7963 15.7085 32.2814 16.242 32.2814 17.2318V20.812H34.1989V16.4965C34.1989 14.9173 33.0125 13.8433 31.4658 13.8433ZM24.7998 14.0258V14.9097C25.1847 14.3795 25.9018 14.0262 26.6814 14.0262V16.0009C26.6777 16.0008 26.6742 16.0006 26.6707 16.0004C26.6667 16.0002 26.6627 16 26.6586 16C25.8989 16 24.8042 16.5746 24.8042 17.6435V20.8119H22.8342V14.0258H24.7998Z" fill="#17120F"/>
</g>
</svg>