<svg width="64" height="40" viewBox="0 0 64 40" fill="none" xmlns="http://www.w3.org/2000/svg">
<g clip-path="url(#clip0_3822_6348)">
<path d="M0 8C0 3.58172 3.58172 0 8 0H56C60.4183 0 64 3.58172 64 8V32C64 36.4183 60.4183 40 56 40H8C3.58172 40 0 36.4183 0 32V8Z" fill="white"/>
<mask id="mask0_3822_6348" style="mask-type:alpha" maskUnits="userSpaceOnUse" x="8" y="4" width="48" height="32">
<path d="M56 4H8V36H56V4Z" fill="white"/>
</mask>
<g mask="url(#mask0_3822_6348)">
</g>
<g clip-path="url(#clip1_3822_6348)">
<path d="M9.86693 28.9331L9.78648 29.5817C9.77806 29.6513 9.78311 29.7219 9.80133 29.7895C9.81956 29.857 9.8506 29.9202 9.89266 29.9754C9.93473 30.0305 9.98699 30.0766 10.0464 30.1108C10.1059 30.1451 10.1713 30.1669 10.239 30.1751H30.7228C30.7915 30.176 30.8596 30.1629 30.9234 30.1367C30.9872 30.1105 31.0453 30.0717 31.0945 30.0223C31.1437 29.973 31.183 29.9142 31.21 29.8492C31.2371 29.7843 31.2515 29.7145 31.2524 29.6438C31.2542 29.622 31.2542 29.6001 31.2524 29.5782L31.1686 28.9297C31.1451 28.687 31.2158 28.4445 31.3652 28.2552C31.5147 28.0659 31.7307 27.945 31.9664 27.9189C32.0819 27.906 32.1988 27.9166 32.3104 27.9502C32.4219 27.9837 32.526 28.0396 32.6166 28.1146C32.7071 28.1895 32.7825 28.2821 32.8383 28.3871C32.8941 28.492 32.9293 28.6072 32.9418 28.7262L33.0222 29.3575C33.1798 30.7615 32.4055 31.9965 31.0111 31.9965H10.0144C8.63341 31.9965 7.86246 30.7615 8.02 29.3575L8.10045 28.7262C8.11217 28.6078 8.14646 28.4931 8.20135 28.3884C8.25624 28.2838 8.33066 28.1913 8.42034 28.1163C8.51002 28.0413 8.6132 27.9853 8.72396 27.9514C8.83472 27.9175 8.95089 27.9065 9.06581 27.9189C9.30173 27.9459 9.51781 28.0675 9.66716 28.2573C9.81651 28.4472 9.88709 28.69 9.86358 28.9331" fill="#FF0000"/>
<path d="M28.7387 24.0586C29.1817 24.0831 29.616 23.9258 29.9465 23.6212C30.277 23.3166 30.4767 22.8896 30.5018 22.4338C30.5034 22.4039 30.5034 22.3739 30.5018 22.3441C30.4817 21.3402 29.5934 20.6916 28.6046 20.6882H26.6035C26.3812 20.6882 26.1681 20.5973 26.0109 20.4356C25.8538 20.2738 25.7655 20.0545 25.7655 19.8257C25.7655 19.597 25.8538 19.3776 26.0109 19.2159C26.1681 19.0542 26.3812 18.9633 26.6035 18.9633H27.9443C28.8459 18.9254 29.5398 18.363 29.5834 17.4902C29.6269 16.5485 28.8426 15.8447 27.8873 15.8447H24.6426V24.0448H28.7387M31.1956 17.4902C31.1971 17.8501 31.1288 18.2066 30.9947 18.5389C30.8606 18.8712 30.6634 19.1727 30.4146 19.4256L30.3644 19.4842L30.4314 19.5256C30.9216 19.8061 31.3333 20.2118 31.6269 20.7037C31.9204 21.1955 32.0859 21.7569 32.1074 22.3337C32.1191 23.2446 31.7802 24.1232 31.1648 24.7779C30.5494 25.4326 29.7074 25.8102 28.8225 25.8283H23.7945C23.5619 25.8247 23.3401 25.7266 23.1775 25.5553C23.0148 25.3841 22.9246 25.1536 22.9264 24.9141V15.072C22.9246 14.9512 22.9463 14.8314 22.9903 14.7194C23.0342 14.6075 23.0995 14.5057 23.1823 14.4202C23.2651 14.3347 23.3637 14.2671 23.4723 14.2214C23.5809 14.1757 23.6973 14.1529 23.8146 14.1543H27.8873C28.7405 14.1302 29.5682 14.4556 30.1886 15.0591C30.8089 15.6626 31.1711 16.4948 31.1956 17.373V17.4868" fill="#1D1D1B"/>
<path d="M15.2938 22.4615L15.3173 22.5305L15.3407 22.4615C15.5687 21.8129 15.8469 21.0816 16.1385 20.3123C16.4301 19.543 16.7419 18.7012 17.0402 17.9492C17.3385 17.1971 17.6301 16.5072 17.905 15.9138C18.0859 15.4759 18.3106 15.0586 18.5754 14.6685C18.7044 14.5036 18.8685 14.3714 19.0551 14.2823C19.2417 14.1932 19.4457 14.1494 19.6514 14.1544H19.8558C20.0883 14.1445 20.3165 14.2203 20.4994 14.3683C20.6398 14.4881 20.7308 14.6582 20.7542 14.8444L22.0312 25.0212C22.0364 25.1338 22.0199 25.2464 21.9825 25.3524C21.9451 25.4584 21.8876 25.5557 21.8134 25.6387C21.6405 25.7877 21.4182 25.8618 21.1933 25.8457C20.9636 25.8589 20.7364 25.7908 20.5497 25.6525C20.4672 25.5945 20.3978 25.5189 20.3463 25.4308C20.2948 25.3426 20.2624 25.2441 20.2514 25.1419C20.2078 24.797 20.1709 24.4278 20.1307 24.0139C20.0905 23.5999 19.8759 21.8302 19.819 21.3782C19.762 20.9263 19.41 18.0458 19.286 17.0005V16.9108L18.8771 17.7939C18.7396 18.0975 18.5888 18.4597 18.4245 18.8841C18.2603 19.3084 18.0893 19.7569 17.9318 20.2329C17.7743 20.709 16.9631 23.0134 16.9631 23.0134C16.8893 23.2239 16.7486 23.6482 16.6279 24.0484C16.5072 24.4485 16.3832 24.7901 16.353 24.8556C16.2147 25.1341 15.9746 25.3448 15.6855 25.4411C15.3963 25.5375 15.0818 25.5118 14.8111 25.3696C14.5908 25.2564 14.4112 25.074 14.2983 24.8487C14.2648 24.7832 14.1508 24.4313 14.0201 24.0415C13.8893 23.6516 13.762 23.2308 13.6849 23.0065C13.6849 23.0065 12.8972 20.6814 12.7195 20.226C12.5419 19.7706 12.3843 19.3049 12.2268 18.8772C12.0692 18.4494 11.9083 18.0906 11.7743 17.787L11.362 16.9142V17.0039C11.2379 18.0389 10.8826 20.9229 10.8257 21.3817C10.7687 21.8405 10.5609 23.593 10.5139 24.0035C10.467 24.414 10.4301 24.7935 10.3899 25.1316C10.3788 25.2338 10.3464 25.3323 10.2949 25.4204C10.2435 25.5085 10.1741 25.5842 10.0916 25.6421C9.90575 25.7796 9.67991 25.8478 9.45136 25.8353C9.22855 25.8508 9.00862 25.7766 8.83795 25.6283C8.76373 25.5454 8.70626 25.4481 8.66886 25.3421C8.63146 25.2361 8.61488 25.1235 8.62007 25.0108L9.88041 14.8444C9.90965 14.6653 10.0014 14.5034 10.1385 14.389C10.3181 14.2328 10.547 14.1493 10.7821 14.1544H10.9866C11.1903 14.1492 11.3924 14.1919 11.5777 14.2792C11.763 14.3665 11.9265 14.496 12.0558 14.6581C12.3218 15.0474 12.5466 15.4649 12.7262 15.9035C13.0011 16.4968 13.2893 17.1753 13.591 17.9388C13.8927 18.7024 14.1944 19.4901 14.496 20.3019C14.7877 21.0816 15.0625 21.8026 15.2905 22.4511" fill="#1D1D1B"/>
<path d="M12.7933 7.99997H28.2995C29.7609 7.99997 30.4883 9.12805 30.6459 10.6183L30.7129 11.0944C30.7393 11.3408 30.6699 11.588 30.5198 11.7819C30.3697 11.9759 30.1511 12.1008 29.9118 12.1293C29.6769 12.1485 29.4442 12.0716 29.2641 11.9153C29.0841 11.759 28.9711 11.5359 28.9498 11.2945L28.8827 10.8357C28.819 10.2699 28.5878 9.8318 28.028 9.8318H13.0682C12.5084 9.8318 12.2771 10.2699 12.2101 10.8357L12.1498 11.2876C12.1285 11.5294 12.0149 11.7527 11.834 11.9086C11.653 12.0644 11.4195 12.1401 11.1844 12.119C11.0657 12.1053 10.9509 12.0676 10.8464 12.0081C10.7418 11.9487 10.6497 11.8686 10.5753 11.7725C10.5009 11.6764 10.4457 11.5661 10.4127 11.448C10.3798 11.3298 10.3698 11.2062 10.3833 11.0841L10.447 10.608C10.6213 9.12115 11.3453 7.98962 12.7933 7.98962" fill="#FF0000"/>
<path d="M40.6816 18.7288C40.5743 19.1531 40.4637 19.6085 40.3464 20.1087C40.2291 20.6089 40.1118 21.0574 40.0112 21.4886C39.9106 21.9198 39.7933 22.3131 39.676 22.6477C39.6133 22.8857 39.528 23.1168 39.4213 23.3376C39.3556 23.4471 39.2614 23.5355 39.1495 23.5928C39.0375 23.6501 38.9122 23.6741 38.7877 23.6619C38.6744 23.659 38.5618 23.6416 38.4525 23.6102C38.3797 23.5875 38.3122 23.5494 38.2545 23.4983C38.1968 23.4472 38.1501 23.3843 38.1174 23.3135C38.0112 23.0829 37.926 22.8427 37.8626 22.5959C37.762 22.251 37.6548 21.8301 37.5274 21.3644C37.4 20.8987 37.3028 20.4088 37.1922 19.8879C37.0816 19.367 36.9743 18.884 36.8872 18.439C36.8 17.994 36.7196 17.611 36.6593 17.3006C36.5989 16.9901 36.5654 16.8003 36.5553 16.7348C36.5535 16.7084 36.5535 16.6819 36.5553 16.6555V16.6106C36.5535 16.5489 36.5659 16.4877 36.5915 16.4319C36.6172 16.3761 36.6553 16.3274 36.7028 16.2898C36.8055 16.2062 36.934 16.1633 37.0648 16.169C37.1828 16.1637 37.2995 16.195 37.4 16.2587C37.4967 16.3331 37.5616 16.4432 37.581 16.5658C37.581 16.5658 37.6012 16.6934 37.6414 16.9107C37.6816 17.1281 37.7386 17.3868 37.8023 17.7076C37.866 18.0285 37.9397 18.3976 38.0168 18.8012C38.0939 19.2048 38.1777 19.6154 38.2682 20.0293C38.3587 20.4433 38.4425 20.84 38.5296 21.2298C38.6168 21.6197 38.6939 21.9508 38.771 22.2303C38.8447 21.9681 38.9285 21.668 39.019 21.3299C39.1095 20.9918 39.2034 20.6399 39.2939 20.295C39.3844 19.95 39.4682 19.574 39.552 19.2152C39.6358 18.8564 39.7129 18.5252 39.7866 18.2078C39.8604 17.8905 39.9174 17.6248 39.971 17.3834C40.0246 17.1419 40.0648 16.9659 40.095 16.8486C40.1289 16.713 40.2041 16.5921 40.3095 16.5037C40.4119 16.408 40.5435 16.3519 40.6816 16.345C40.8292 16.338 40.9743 16.3857 41.0905 16.4795C41.1948 16.5667 41.266 16.6888 41.2917 16.8245C41.3822 17.2005 41.4693 17.6283 41.5665 18.0975C41.6637 18.5666 41.7676 19.0392 41.8715 19.5188C41.9755 19.9983 42.0894 20.4709 42.2067 20.9332C42.3241 21.3954 42.4313 21.8025 42.5419 22.1578C42.6157 21.8784 42.6995 21.5472 42.7866 21.1608C42.8738 20.7745 42.9576 20.3743 43.0481 19.9603C43.1386 19.5464 43.2291 19.1462 43.3095 18.7426C43.39 18.3389 43.4704 17.9767 43.5375 17.6559C43.6045 17.3351 43.6615 17.0729 43.6984 16.8728C43.7352 16.6727 43.762 16.5623 43.762 16.5554C43.7853 16.4353 43.8495 16.3276 43.9431 16.2518C44.0432 16.1873 44.1602 16.156 44.2782 16.1621C44.41 16.1574 44.5392 16.2001 44.6436 16.2829C44.6905 16.3211 44.7282 16.3699 44.7538 16.4255C44.7794 16.4812 44.7921 16.5422 44.7911 16.6037V16.6486C44.7927 16.6761 44.7927 16.7038 44.7911 16.7314C44.7911 16.7934 44.7475 16.9797 44.6838 17.2971C44.6201 17.6145 44.5431 17.9871 44.4525 18.4321C44.362 18.8771 44.2581 19.3601 44.1475 19.8741C44.0369 20.3881 43.9196 20.878 43.8123 21.3437C43.7051 21.8094 43.5978 22.2199 43.4771 22.5718C43.4143 22.8165 43.329 23.0544 43.2224 23.2824C43.1547 23.4273 43.0343 23.5389 42.8872 23.5929C42.779 23.6305 42.6661 23.6515 42.552 23.655C42.5062 23.6584 42.4603 23.6584 42.4146 23.655C42.3487 23.6454 42.2837 23.6304 42.2201 23.6102C42.1482 23.5838 42.0804 23.5466 42.019 23.4998C41.9487 23.4465 41.8933 23.3751 41.8581 23.2928C41.7602 23.0555 41.6796 22.811 41.6168 22.5614C41.5196 22.2165 41.419 21.837 41.3084 21.4092C41.1978 20.9815 41.0939 20.5261 40.9732 20.0569C40.8525 19.5878 40.7687 19.1496 40.6782 18.7426" fill="#1D1D1B"/>
<path d="M46.6112 21.5024C46.4972 21.875 46.3966 22.22 46.3128 22.5373C46.229 22.8547 46.1419 23.1134 46.0681 23.317C46.0504 23.4542 45.9803 23.5786 45.8735 23.6627C45.7666 23.7468 45.6317 23.7838 45.4983 23.7655C45.365 23.7472 45.2441 23.6751 45.1624 23.5651C45.0807 23.4551 45.0448 23.3162 45.0626 23.179C45.0619 23.1274 45.0698 23.0761 45.086 23.0272L45.2268 22.5477C45.3072 22.2786 45.4112 21.944 45.5385 21.5369C45.6659 21.1298 45.81 20.6952 45.9642 20.2156C46.1184 19.7361 46.2793 19.2601 46.4436 18.7909C46.6078 18.3217 46.7788 17.8836 46.9329 17.48C47.0617 17.1408 47.2129 16.8112 47.3855 16.4934C47.4344 16.3781 47.5209 16.2841 47.6302 16.2277C47.7627 16.1759 47.9041 16.1524 48.0458 16.1587C48.1914 16.1556 48.3362 16.1826 48.4715 16.2381C48.5277 16.2658 48.5781 16.3048 48.6195 16.3528C48.6609 16.4008 48.6927 16.4568 48.7128 16.5175C48.8201 16.7486 48.9475 17.0626 49.0916 17.4524C49.2357 17.8422 49.3966 18.2665 49.5575 18.7219C49.7184 19.1773 49.8927 19.6395 50.0402 20.1018C50.1877 20.5641 50.3452 21.0125 50.476 21.4196C50.6067 21.8267 50.7207 22.1751 50.8112 22.4545C50.9017 22.734 50.9654 22.9272 50.9855 23.0134C51.0016 23.0623 51.0096 23.1136 51.0089 23.1652C51.0123 23.2296 51.0017 23.294 50.978 23.3536C50.9542 23.4133 50.9178 23.4668 50.8715 23.5102C50.8184 23.5589 50.7563 23.5959 50.6889 23.619C50.6214 23.6422 50.5501 23.6509 50.4793 23.6447C50.375 23.6548 50.2709 23.624 50.1877 23.5585C50.1173 23.4905 50.0654 23.4049 50.0369 23.3101C49.9598 23.1065 49.8726 22.8478 49.7687 22.5304C49.6648 22.2131 49.5575 21.8681 49.4335 21.4955H46.6011M49.1151 20.4847C48.9542 19.9811 48.8067 19.5188 48.6626 19.1048C48.5184 18.6909 48.391 18.2941 48.2302 17.9009C48.1933 17.8146 48.1531 17.718 48.1128 17.6007C48.0726 17.4834 48.0458 17.4248 48.0391 17.4041C48.0077 17.4631 47.9829 17.5256 47.9654 17.5904C47.9218 17.7146 47.8849 17.8146 47.8447 17.9009C47.6938 18.2803 47.5497 18.6805 47.4089 19.1048C47.2681 19.5291 47.1207 19.988 46.9631 20.4847H49.1151Z" fill="#1D1D1B"/>
<path d="M52.9664 20.7261C52.9271 20.6856 52.8912 20.6418 52.8591 20.595L52.7485 20.4363C52.6413 20.2811 52.5306 20.0914 52.4133 19.8706C52.296 19.6498 52.1619 19.4152 52.0379 19.1806C51.9139 18.946 51.7932 18.6804 51.6792 18.4286C51.5653 18.1767 51.4513 17.9422 51.3608 17.7386C51.2703 17.5351 51.1832 17.3316 51.1161 17.1729C51.0657 17.0615 51.0243 16.9462 50.9921 16.8279C50.9791 16.7991 50.969 16.7691 50.9619 16.7382C50.9619 16.7382 50.9619 16.6933 50.9619 16.6519C50.9615 16.5876 50.9738 16.5239 50.998 16.4646C51.0222 16.4053 51.0578 16.3517 51.1027 16.307C51.1554 16.2574 51.2174 16.2193 51.2848 16.195C51.3521 16.1707 51.4236 16.1607 51.4949 16.1655C51.5557 16.1585 51.6173 16.1653 51.6752 16.1856C51.7332 16.2059 51.786 16.2391 51.8301 16.2828C51.889 16.3508 51.9355 16.4291 51.9675 16.514L52.0781 16.7692C52.1351 16.9003 52.2055 17.0625 52.2859 17.2557C52.3664 17.4488 52.4636 17.6627 52.5709 17.8973C52.6781 18.1319 52.782 18.3561 52.9061 18.5873L53.2245 19.2324C53.3108 19.406 53.4071 19.5742 53.5128 19.736C53.6837 19.4614 53.8393 19.1769 53.9787 18.8839C54.1429 18.539 54.3139 18.2112 54.4513 17.8766C54.5887 17.542 54.7329 17.2488 54.8468 16.9969L55.0446 16.5174C55.0778 16.4323 55.1255 16.3541 55.1854 16.2863C55.2283 16.2408 55.281 16.2065 55.3393 16.1861C55.3975 16.1657 55.4597 16.1598 55.5206 16.169C55.5919 16.1637 55.6635 16.1736 55.7309 16.1979C55.7984 16.2222 55.8603 16.2605 55.9128 16.3104C55.9588 16.3542 55.9952 16.4077 56.0195 16.4672C56.0438 16.5267 56.0554 16.5909 56.0535 16.6554C56.057 16.684 56.057 16.713 56.0535 16.7416L56.0267 16.8313L55.896 17.1763C55.8323 17.3385 55.7519 17.5213 55.6547 17.7421C55.5575 17.9629 55.4569 18.194 55.3429 18.432C55.229 18.6701 55.1016 18.9322 54.9776 19.1841C54.8535 19.4359 54.7295 19.667 54.6055 19.874C54.4815 20.081 54.3642 20.2914 54.2703 20.4432C54.2061 20.5398 54.1331 20.6299 54.0524 20.7123V23.1272C54.0557 23.1975 54.0449 23.2678 54.0207 23.3337C53.9965 23.3995 53.9593 23.4596 53.9116 23.5101C53.8157 23.6076 53.6862 23.6623 53.5513 23.6623C53.4164 23.6623 53.287 23.6076 53.191 23.5101C53.1396 23.4587 53.099 23.3969 53.0719 23.3287C53.0448 23.2604 53.0317 23.1871 53.0334 23.1134V20.6985" fill="#1D1D1B"/>
</g>
</g>
<defs>
<clipPath id="clip0_3822_6348">
<rect width="64" height="40" fill="white"/>
</clipPath>
<clipPath id="clip1_3822_6348">
<rect width="48" height="24" fill="white" transform="translate(8 8)"/>
</clipPath>
</defs>
</svg>
