<svg width="64" height="24" viewBox="0 0 64 24" fill="none" xmlns="http://www.w3.org/2000/svg">
<g clip-path="url(#clip0)">
<mask id="mask0" mask-type="alpha" maskUnits="userSpaceOnUse" x="12" y="-1" width="40" height="26">
<rect x="12" y="-1" width="40" height="26" fill="white"/>
</mask>
<g mask="url(#mask0)">
</g>
<g clip-path="url(#clip1)">
<path d="M31.9022 18.3038H39.4066C41.1177 18.3038 41.1422 16.4467 40.9711 15.5554C40.8733 14.9364 39.8466 14.9364 39.7244 15.5554V16.2487C39.7245 16.4021 39.6661 16.5496 39.5613 16.6603C39.4565 16.7711 39.3135 16.8365 39.1622 16.8429H24.7644C24.6088 16.8429 24.4596 16.7803 24.3496 16.6689C24.2396 16.5574 24.1777 16.4063 24.1777 16.2487V15.5554C24.0555 14.9364 23.0289 14.9364 22.9311 15.5554C22.76 16.4467 22.7844 18.3038 24.4955 18.3038H31.9022ZM26.5977 0.625H38.1844C38.9911 0.625 39.6511 1.34304 39.6511 2.20965V2.97722C39.6511 4.0419 38.2089 4.0419 38.2089 2.97722V2.55629C38.2089 2.43152 38.1599 2.31186 38.0728 2.22364C37.9857 2.13541 37.8676 2.08585 37.7444 2.08585H26.1577C26.0947 2.08249 26.0317 2.09216 25.9725 2.11429C25.9133 2.13643 25.8592 2.17054 25.8134 2.21457C25.7677 2.25859 25.7313 2.3116 25.7064 2.37035C25.6815 2.42911 25.6688 2.49237 25.6689 2.55629V2.97722C25.6689 4.0419 24.3 4.01714 24.3 2.97722V2.20965C24.3 1.34304 24.9844 0.625 25.7911 0.625H26.5977Z" fill="#2C6CAE"/>
<path d="M39.3578 9.34053C40.1645 9.71193 40.7267 10.5043 40.7267 11.4204C40.7267 12.6832 39.6267 13.7231 38.2822 13.7231H34.4933C34.1511 13.7231 33.8578 13.4507 33.8578 13.1288V5.84935C33.8641 5.68294 33.9339 5.52549 34.0524 5.41006C34.1709 5.29464 34.3289 5.23022 34.4933 5.23035H37.6222C38.9422 5.23035 40.0422 6.31979 40.0422 7.65684C40.0385 8.28679 39.7931 8.89057 39.3578 9.34053ZM36.5467 8.74629H37.7445V8.72153C38.0145 8.68035 38.2612 8.5431 38.4404 8.33438C38.6195 8.12567 38.7195 7.85914 38.7222 7.58256C38.7158 7.27823 38.592 6.98856 38.3772 6.77564C38.1624 6.56273 37.8739 6.44353 37.5733 6.44359H35.1533V12.4603H38.2089C38.363 12.4603 38.5156 12.4296 38.6579 12.3698C38.8003 12.3101 38.9296 12.2226 39.0386 12.1122C39.1475 12.0019 39.234 11.8708 39.2929 11.7266C39.3519 11.5824 39.3822 11.4279 39.3822 11.2718C39.3822 11.1158 39.3519 10.9612 39.2929 10.817C39.234 10.6728 39.1475 10.5418 39.0386 10.4314C38.9296 10.3211 38.8003 10.2335 38.6579 10.1738C38.5156 10.1141 38.363 10.0833 38.2089 10.0833H36.5467C36.3716 10.0833 36.2038 10.0129 36.08 9.88753C35.9562 9.76216 35.8867 9.59212 35.8867 9.41481C35.8867 9.23751 35.9562 9.06747 36.08 8.94209C36.2038 8.81672 36.3716 8.74629 36.5467 8.74629Z" fill="#434142"/>
<path d="M27.0867 20.5322C27.0867 20.4797 27.1073 20.4293 27.144 20.3921C27.1807 20.355 27.2304 20.3341 27.2823 20.3341C27.3341 20.3341 27.3839 20.355 27.4206 20.3921C27.4572 20.4293 27.4778 20.4797 27.4778 20.5322V21.6464C27.4778 21.8894 27.3825 22.1224 27.2129 22.2942C27.0433 22.466 26.8133 22.5625 26.5734 22.5625C26.3335 22.5625 26.1035 22.466 25.9339 22.2942C25.7642 22.1224 25.6689 21.8894 25.6689 21.6464V20.5322C25.6689 20.4797 25.6895 20.4293 25.7262 20.3921C25.7629 20.355 25.8126 20.3341 25.8645 20.3341C25.9164 20.3341 25.9661 20.355 26.0028 20.3921C26.0395 20.4293 26.0601 20.4797 26.0601 20.5322V21.6464C26.0663 21.78 26.1232 21.9059 26.2188 21.9982C26.3144 22.0904 26.4414 22.1417 26.5734 22.1416C26.7054 22.1417 26.8324 22.0904 26.928 21.9982C27.0236 21.9059 27.0804 21.78 27.0867 21.6464V20.5322Z" fill="#434142"/>
<path d="M28.9935 22.1416C29.0486 22.1416 29.1014 22.1638 29.1404 22.2032C29.1793 22.2427 29.2012 22.2962 29.2012 22.3521C29.2012 22.4079 29.1793 22.4614 29.1404 22.5009C29.1014 22.5403 29.0486 22.5625 28.9935 22.5625H28.4312C28.2303 22.5625 28.0375 22.4817 27.8954 22.3377C27.7533 22.1938 27.6735 21.9985 27.6735 21.795V20.5322C27.6735 20.4797 27.6941 20.4293 27.7307 20.3921C27.7674 20.355 27.8172 20.3341 27.869 20.3341C27.9209 20.3341 27.9706 20.355 28.0073 20.3921C28.044 20.4293 28.0646 20.4797 28.0646 20.5322V21.795C28.0708 21.8891 28.1121 21.9773 28.1802 22.0417C28.2483 22.1061 28.3381 22.1418 28.4312 22.1416H28.9935Z" fill="#434142"/>
<path d="M33.2711 13.005C33.2905 13.2085 33.2293 13.4116 33.101 13.5695C32.9726 13.7274 32.7876 13.8271 32.5866 13.8468C32.3856 13.8665 32.1852 13.8046 32.0293 13.6745C31.8734 13.5445 31.775 13.3571 31.7555 13.1535L31.1444 7.38442L28.9444 13.0297V13.0545L28.92 13.0793V13.104L28.8955 13.1288C28.8575 13.2024 28.808 13.2693 28.7488 13.3269L28.7244 13.3516C28.6861 13.3802 28.6451 13.4051 28.6022 13.4259L28.5777 13.4507H28.5533V13.4754H28.48V13.5002C28.4082 13.5193 28.3341 13.5276 28.26 13.5249H28.2111C28.1274 13.5222 28.0448 13.5055 27.9666 13.4754H27.9177V13.4507H27.8688V13.4259C27.8259 13.4051 27.785 13.3802 27.7466 13.3516L27.7222 13.3269L27.6977 13.3021H27.6733L27.6488 13.2773V13.2526C27.6218 13.2216 27.5973 13.1885 27.5755 13.1535V13.1288L27.5511 13.104V13.0793L27.5266 13.0545L25.3266 7.38442L24.7155 13.1535C24.7059 13.2543 24.6767 13.3522 24.6298 13.4416C24.5828 13.531 24.5189 13.6102 24.4417 13.6745C24.3645 13.7389 24.2756 13.7873 24.18 13.8168C24.0843 13.8464 23.9839 13.8566 23.8844 13.8468C23.7849 13.8371 23.6882 13.8076 23.6 13.76C23.5117 13.7124 23.4336 13.6477 23.37 13.5695C23.3065 13.4913 23.2588 13.4012 23.2296 13.3044C23.2004 13.2075 23.1903 13.1058 23.2 13.005L23.9333 6.19593C23.9627 5.91222 24.0842 5.64642 24.2789 5.44027C24.4736 5.23412 24.7303 5.0993 25.0088 5.05697H25.0577C25.1228 5.05198 25.1882 5.05198 25.2533 5.05697C25.3272 5.05885 25.4008 5.06713 25.4733 5.08173C25.6704 5.12773 25.8536 5.22165 26.0069 5.35538C26.1602 5.48911 26.2791 5.65862 26.3533 5.84929L28.2355 10.6775L30.1177 5.84929C30.1919 5.65862 30.3108 5.48911 30.4641 5.35538C30.6174 5.22165 30.8006 5.12773 30.9977 5.08173C31.0702 5.06701 31.1438 5.05872 31.2177 5.05697C31.2828 5.05198 31.3482 5.05198 31.4133 5.05697H31.4622C31.6583 5.0856 31.8449 5.16118 32.0064 5.27744C32.168 5.3937 32.2998 5.5473 32.3911 5.72549C32.4305 5.79647 32.4633 5.87108 32.4888 5.94833C32.5133 6.029 32.5296 6.11195 32.5377 6.19593L33.2711 13.005Z" fill="#434142"/>
<path d="M25.5957 22.3395C25.5989 22.3672 25.5967 22.3952 25.5892 22.422C25.5817 22.4488 25.5691 22.4738 25.5521 22.4956C25.5351 22.5175 25.514 22.5357 25.49 22.5493C25.466 22.5629 25.4396 22.5715 25.4123 22.5748C25.385 22.578 25.3574 22.5758 25.3309 22.5682C25.3045 22.5607 25.2798 22.5479 25.2582 22.5306C25.2367 22.5134 25.2187 22.492 25.2053 22.4677C25.1919 22.4434 25.1833 22.4167 25.1801 22.3891L25.009 20.9035L24.3979 22.3643C24.384 22.4022 24.359 22.4349 24.3262 22.458C24.2934 22.4811 24.2545 22.4935 24.2145 22.4935C24.1746 22.4935 24.1357 22.4811 24.1029 22.458C24.0701 22.4349 24.0451 22.4022 24.0312 22.3643L23.4201 20.9035L23.2245 22.3891C23.2181 22.4416 23.1912 22.4894 23.15 22.5219C23.1087 22.5544 23.0564 22.569 23.0045 22.5624C22.9527 22.5558 22.9055 22.5287 22.8734 22.4869C22.8413 22.4451 22.8269 22.3921 22.8334 22.3395L23.029 20.6063C23.0377 20.5515 23.0603 20.4998 23.0946 20.4565C23.1288 20.4131 23.1736 20.3794 23.2245 20.3587C23.2323 20.3501 23.2405 20.3418 23.249 20.334H23.2734C23.2897 20.3329 23.306 20.3329 23.3223 20.334C23.3736 20.3228 23.4267 20.3236 23.4775 20.3365C23.5284 20.3494 23.5756 20.3739 23.6157 20.4083C23.6458 20.4365 23.6706 20.4701 23.689 20.5073C23.6896 20.5155 23.6896 20.5238 23.689 20.5321L24.2023 21.7453L24.7401 20.5321C24.7623 20.4817 24.7961 20.4375 24.8387 20.403C24.8812 20.3686 24.9312 20.3449 24.9845 20.334C25.0008 20.3329 25.0172 20.3329 25.0334 20.334C25.0497 20.3329 25.066 20.3329 25.0823 20.334C25.1355 20.3359 25.1874 20.3503 25.2341 20.3761C25.2808 20.4019 25.3209 20.4383 25.3512 20.4825C25.3623 20.5062 25.3705 20.5311 25.3757 20.5568C25.376 20.5651 25.376 20.5733 25.3757 20.5816C25.3762 20.5898 25.3762 20.5981 25.3757 20.6063L25.5957 22.3395Z" fill="#434142"/>
<path d="M29.8734 22.3644C29.8734 22.4203 29.8515 22.4738 29.8125 22.5133C29.7736 22.5527 29.7207 22.5749 29.6656 22.5749C29.6105 22.5749 29.5577 22.5527 29.5187 22.5133C29.4797 22.4738 29.4579 22.4203 29.4579 22.3644V20.7303H28.8956C28.8438 20.7303 28.794 20.7094 28.7573 20.6723C28.7207 20.6351 28.7001 20.5847 28.7001 20.5322C28.7001 20.4797 28.7207 20.4293 28.7573 20.3921C28.794 20.355 28.8438 20.3341 28.8956 20.3341H30.4356C30.4875 20.3341 30.5372 20.355 30.5739 20.3921C30.6106 20.4293 30.6312 20.4797 30.6312 20.5322C30.6312 20.5847 30.6106 20.6351 30.5739 20.6723C30.5372 20.7094 30.4875 20.7303 30.4356 20.7303H29.8734V22.3644Z" fill="#434142"/>
<path d="M31.12 22.3644C31.12 22.417 31.0994 22.4674 31.0627 22.5045C31.026 22.5417 30.9763 22.5625 30.9244 22.5625C30.8726 22.5625 30.8228 22.5417 30.7862 22.5045C30.7495 22.4674 30.7289 22.417 30.7289 22.3644V20.5322C30.7289 20.4797 30.7495 20.4293 30.7862 20.3921C30.8228 20.355 30.8726 20.3341 30.9244 20.3341C30.9763 20.3341 31.026 20.355 31.0627 20.3921C31.0994 20.4293 31.12 20.4797 31.12 20.5322V22.3644Z" fill="#434142"/>
<path d="M35.2756 22.3397C35.2821 22.3922 35.2677 22.4452 35.2356 22.487C35.2035 22.5288 35.1564 22.5559 35.1045 22.5625C35.0526 22.5691 35.0003 22.5545 34.9591 22.522C34.9178 22.4895 34.891 22.4417 34.8845 22.3892L34.8112 21.795H34.1023C34.0504 21.795 34.0007 21.7741 33.964 21.7369C33.9273 21.6998 33.9067 21.6494 33.9067 21.5969C33.9067 21.5443 33.9273 21.494 33.964 21.4568C34.0007 21.4197 34.0504 21.3988 34.1023 21.3988H34.7623L34.7378 21.2502V21.2255C34.7318 21.192 34.7236 21.1589 34.7134 21.1264C34.7011 21.0837 34.6847 21.0422 34.6645 21.0026C34.5912 20.8541 34.4445 20.7303 34.2734 20.7303H34.249C34.2155 20.7347 34.1827 20.743 34.1512 20.755C34.126 20.761 34.1015 20.7692 34.0778 20.7798C33.9067 20.8541 33.809 21.0274 33.7845 21.2502L33.6623 22.3892C33.6558 22.4417 33.629 22.4895 33.5877 22.522C33.5465 22.5545 33.4942 22.5691 33.4423 22.5625C33.3904 22.5559 33.3433 22.5288 33.3112 22.487C33.2791 22.4452 33.2647 22.3922 33.2712 22.3397L33.3934 21.2007C33.4178 20.8541 33.6134 20.5569 33.8823 20.4084C33.9373 20.3855 33.9947 20.3689 34.0534 20.3589C34.1174 20.3428 34.183 20.3345 34.249 20.3341H34.2734C34.6156 20.3341 34.8845 20.5322 35.0312 20.8293C35.0605 20.8848 35.0851 20.9428 35.1045 21.0026C35.1169 21.0597 35.1251 21.1176 35.129 21.1759C35.1295 21.1842 35.1295 21.1925 35.129 21.2007L35.2756 22.3397Z" fill="#434142"/>
<path d="M35.8867 22.3644C35.8867 22.417 35.8661 22.4674 35.8295 22.5045C35.7928 22.5417 35.743 22.5625 35.6912 22.5625C35.6393 22.5625 35.5896 22.5417 35.5529 22.5045C35.5162 22.4674 35.4956 22.417 35.4956 22.3644V20.656C35.4951 20.6477 35.4951 20.6395 35.4956 20.6312C35.5002 20.6054 35.5084 20.5804 35.5201 20.5569C35.5198 20.5487 35.5198 20.5404 35.5201 20.5322C35.5375 20.4972 35.5616 20.4661 35.591 20.4406C35.6203 20.4151 35.6544 20.3957 35.6912 20.3836C35.6993 20.3832 35.7075 20.3832 35.7156 20.3836H35.7401C35.7563 20.3824 35.7727 20.3824 35.789 20.3836C35.8305 20.3834 35.8715 20.3922 35.9095 20.4092C35.9474 20.4263 35.9813 20.4513 36.009 20.4827L37.0845 21.8692V20.5322C37.0845 20.4797 37.1051 20.4293 37.1418 20.3921C37.1785 20.355 37.2282 20.3341 37.2801 20.3341C37.3319 20.3341 37.3817 20.355 37.4184 20.3921C37.455 20.4293 37.4756 20.4797 37.4756 20.5322V22.2159C37.4758 22.2579 37.4672 22.2995 37.4504 22.3379C37.4335 22.3763 37.4088 22.4107 37.3779 22.4387C37.3624 22.4485 37.346 22.4568 37.329 22.4635L37.3045 22.4882C37.234 22.5171 37.1551 22.5171 37.0845 22.4882C37.0756 22.4808 37.0674 22.4725 37.0601 22.4635C37.0431 22.4568 37.0267 22.4485 37.0112 22.4387C37.0025 22.4311 36.9943 22.4228 36.9867 22.414V22.3892L35.9112 21.0026L35.8867 22.3644Z" fill="#434142"/>
<path d="M39.0646 22.1416C39.1197 22.1416 39.1726 22.1638 39.2115 22.2032C39.2505 22.2427 39.2724 22.2962 39.2724 22.3521C39.2724 22.4079 39.2505 22.4614 39.2115 22.5009C39.1726 22.5403 39.1197 22.5625 39.0646 22.5625H38.4535C38.2438 22.5561 38.0449 22.4672 37.8988 22.3146C37.7528 22.1621 37.6712 21.9579 37.6713 21.7454V21.1264C37.6774 20.9183 37.7618 20.7203 37.9072 20.5731C38.0526 20.4258 38.248 20.3403 38.4535 20.3341H39.0646C39.1165 20.3341 39.1662 20.355 39.2029 20.3921C39.2395 20.4293 39.2602 20.4797 39.2602 20.5322C39.2602 20.5847 39.2395 20.6351 39.2029 20.6723C39.1662 20.7094 39.1165 20.7303 39.0646 20.7303H38.4535C38.3498 20.7303 38.2503 20.772 38.1769 20.8463C38.1036 20.9206 38.0624 21.0214 38.0624 21.1264V21.7454C38.0624 21.8505 38.1036 21.9513 38.1769 22.0256C38.2503 22.0999 38.3498 22.1416 38.4535 22.1416H39.0646Z" fill="#434142"/>
<path d="M40.2134 20.7302C40.0775 20.7332 39.9472 20.786 39.8468 20.8788C39.7937 20.9248 39.751 20.9817 39.7215 21.0457C39.692 21.1098 39.6763 21.1795 39.6757 21.2502V21.6464C39.6797 21.7128 39.6969 21.7778 39.7263 21.8374C39.7557 21.8969 39.7967 21.9499 39.8468 21.993C39.9472 22.0858 40.0775 22.1386 40.2134 22.1416C40.3578 22.1448 40.4978 22.0916 40.6045 21.993C40.6531 21.9448 40.6913 21.8869 40.7165 21.823C40.7418 21.759 40.7536 21.6904 40.7512 21.6216V21.2502C40.7536 21.1814 40.7418 21.1128 40.7165 21.0488C40.6913 20.9849 40.6531 20.927 40.6045 20.8788C40.4978 20.7803 40.3578 20.7271 40.2134 20.7302ZM40.2134 20.3341C40.3396 20.3313 40.4651 20.354 40.5826 20.4007C40.7001 20.4475 40.8073 20.5174 40.8979 20.6064C41.068 20.7766 41.1646 21.0081 41.1667 21.2502V21.6216C41.169 21.7457 41.1463 21.8689 41.1 21.9838C41.0538 22.0987 40.985 22.203 40.8979 22.2901C40.8073 22.3792 40.7001 22.4491 40.5826 22.4958C40.4651 22.5426 40.3396 22.5653 40.2134 22.5625C39.9669 22.5615 39.7304 22.4639 39.5534 22.2901C39.3833 22.12 39.2867 21.8885 39.2845 21.6464V21.2502C39.2867 21.0081 39.3833 20.7766 39.5534 20.6064C39.7304 20.4327 39.9669 20.335 40.2134 20.3341Z" fill="#434142"/>
<path d="M31.7069 20.7304V22.1417H32.4891C32.5539 22.1417 32.6161 22.1156 32.6619 22.0692C32.7078 22.0227 32.7335 21.9598 32.7335 21.8941C32.7393 21.8321 32.7219 21.7703 32.6846 21.7208H32.6602C32.6151 21.6741 32.5536 21.6474 32.4891 21.6465H32.2202C32.1651 21.6465 32.1122 21.6243 32.0733 21.5848C32.0343 21.5454 32.0124 21.4918 32.0124 21.436C32.0124 21.3802 32.0343 21.3267 32.0733 21.2872C32.1122 21.2477 32.1651 21.2256 32.2202 21.2256H32.318C32.3739 21.2186 32.4257 21.1924 32.4646 21.1513C32.5107 21.1056 32.5371 21.0433 32.538 20.978C32.538 20.9123 32.5122 20.8493 32.4664 20.8029C32.4205 20.7565 32.3584 20.7304 32.2935 20.7304H31.7069ZM31.2913 21.4236V20.5323C31.2945 20.5061 31.3028 20.4809 31.3158 20.458C31.3263 20.4298 31.343 20.4044 31.3646 20.3837C31.3845 20.3658 31.4077 20.3522 31.4329 20.3437C31.4582 20.3351 31.4848 20.3319 31.5113 20.3342H32.2935C32.4621 20.3342 32.6238 20.402 32.7429 20.5228C32.8621 20.6435 32.9291 20.8072 32.9291 20.978C32.9298 21.1006 32.8958 21.2208 32.8313 21.3246C32.8758 21.3526 32.9168 21.3858 32.9535 21.4236C33.0776 21.5481 33.1479 21.7172 33.1491 21.8941C33.1491 22.0714 33.0796 22.2414 32.9558 22.3668C32.832 22.4922 32.6641 22.5626 32.4891 22.5626H31.5113C31.4815 22.5667 31.4511 22.5637 31.4226 22.554C31.394 22.5442 31.3681 22.5279 31.3468 22.5064C31.3255 22.4848 31.3094 22.4586 31.2998 22.4297C31.2902 22.4008 31.2873 22.37 31.2913 22.3398V21.4236Z" fill="#434142"/>
</g>
</g>
<defs>
<clipPath id="clip0">
<rect width="64" height="24" rx="1" fill="white"/>
</clipPath>
<clipPath id="clip1">
<rect width="18.3333" height="21.9375" fill="white" transform="translate(22.8334 0.625)"/>
</clipPath>
</defs>
</svg>
