<svg width="64" height="24" viewBox="0 0 64 24" fill="none" xmlns="http://www.w3.org/2000/svg">
<g clip-path="url(#clip0)">
<path d="M20.3526 9.32148C20.2688 9.23408 20.1639 9.21223 20.0381 9.23408C19.9123 9.25593 19.8284 9.32148 19.7655 9.40889L17.4592 12.7084L15.1528 9.40889C15.0899 9.32148 15.006 9.25593 14.8802 9.23408C14.7544 9.21223 14.6495 9.25593 14.5657 9.32148C14.377 9.47444 14.335 9.6711 14.4818 9.91147L17.0398 13.5169V17.1005C17.0398 17.2098 17.0817 17.319 17.1656 17.4065C17.2495 17.4939 17.3333 17.5376 17.4592 17.5376C17.564 17.5376 17.6688 17.4939 17.7527 17.4065C17.8366 17.319 17.8785 17.2316 17.8785 17.1005V13.5169L20.4365 9.91147C20.4994 9.82406 20.5204 9.71481 20.5204 9.5837C20.4784 9.47444 20.4365 9.36519 20.3526 9.32148Z" fill="black"/>
<path d="M26.1815 9.91153C26.9573 9.91153 27.6492 10.1737 28.2573 10.6545C28.3412 10.72 28.446 10.7637 28.5508 10.7419C28.6766 10.72 28.7605 10.6763 28.8234 10.5889C28.9073 10.5015 28.9492 10.3923 28.9282 10.2611C28.9073 10.1519 28.8653 10.0426 28.7605 9.95523C28.0057 9.34339 27.146 9.03748 26.1815 9.03748C25.0493 9.03748 24.0429 9.45265 23.2461 10.283C22.4494 11.0915 22.03 12.0967 22.03 13.2766C22.03 14.4347 22.4494 15.4399 23.2461 16.2702C24.0429 17.0787 25.0493 17.4939 26.1815 17.4939C27.146 17.4939 28.0057 17.188 28.7605 16.598C28.8444 16.5325 28.9073 16.4232 28.9073 16.2921C28.9073 16.1828 28.8863 16.0736 28.8234 15.9862C28.7605 15.8769 28.6766 15.8332 28.5508 15.8114C28.446 15.7895 28.3412 15.8114 28.2363 15.8988C27.6702 16.4014 26.9573 16.6417 26.0977 16.6417C25.238 16.6417 24.4832 16.3139 23.8332 15.6584C23.1832 15.0029 22.8687 14.2162 22.8687 13.2766C22.8687 12.3589 23.2042 11.5504 23.8332 10.8948C24.4622 10.2611 25.259 9.91153 26.1815 9.91153Z" fill="black"/>
<path d="M47.4424 9.27778C47.3585 9.21223 47.2536 9.21223 47.1488 9.21223C47.023 9.23408 46.9391 9.29963 46.8762 9.38704L44.2553 13.1892L41.6135 9.38704C41.4667 9.16852 41.257 9.14667 41.0473 9.27778L41.0264 9.29963C40.9215 9.38704 40.8586 9.49629 40.8586 9.6274V17.0787C40.8586 17.1879 40.9006 17.2972 40.9844 17.3846C41.1522 17.5376 41.4038 17.5376 41.5506 17.3846C41.6344 17.2972 41.6764 17.2098 41.6764 17.0787V10.8948L43.8989 14.1288C43.9828 14.2599 44.0876 14.3254 44.2763 14.3254C44.4231 14.3254 44.5279 14.2599 44.6118 14.1288L46.8343 10.8729V17.0787C46.8343 17.1879 46.8762 17.2972 46.9601 17.3846C47.044 17.472 47.1278 17.5157 47.2536 17.5157C47.3585 17.5157 47.4633 17.472 47.5472 17.3846C47.6311 17.2972 47.673 17.2098 47.673 17.0787V9.64925C47.673 9.54 47.6101 9.40889 47.5053 9.29963L47.4424 9.27778Z" fill="black"/>
<path d="M62.8745 9.29956C62.7906 9.21216 62.7067 9.16846 62.5809 9.16846H57.402C57.2972 9.16846 57.1923 9.21216 57.1085 9.29956C57.0246 9.38697 56.9827 9.47437 56.9827 9.60548C56.9827 9.71474 57.0246 9.82399 57.0875 9.9114C57.1714 9.99881 57.2552 10.0425 57.381 10.0425H59.5616V17.1005C59.5616 17.2097 59.6036 17.319 59.6874 17.4064C59.7713 17.4938 59.8552 17.5375 59.981 17.5375C60.0858 17.5375 60.1907 17.4938 60.2745 17.4064C60.3584 17.319 60.4003 17.2316 60.4003 17.1005V10.0425H62.5809C62.6858 10.0425 62.7906 9.99881 62.8745 9.9114C62.9583 9.82399 62.9793 9.71474 62.9793 9.60548C63.0003 9.49623 62.9583 9.38697 62.8745 9.29956Z" fill="black"/>
<path d="M10.7706 9.49622C10.7076 9.32141 10.5818 9.23401 10.3931 9.23401C10.2044 9.23401 10.0577 9.32141 9.99476 9.49622L7.29 16.9257C7.24806 17.0349 7.24806 17.1442 7.29 17.2534C7.33193 17.3627 7.4158 17.4282 7.49967 17.4719L7.64644 17.4938C7.83514 17.4938 7.96095 17.3845 8.02385 17.2097L10.3302 10.7854L12.6366 17.2097C12.6995 17.3845 12.8463 17.4938 13.035 17.4938L13.1398 17.4719L13.1818 17.4501C13.2866 17.4064 13.3495 17.319 13.3914 17.2097C13.4334 17.1005 13.4334 16.9912 13.3914 16.882L10.7706 9.49622Z" fill="black"/>
<path d="M54.6972 9.19031H50.2731C50.0425 9.19031 49.8538 9.38697 49.8538 9.62733C49.8538 9.8677 50.0425 10.0644 50.2731 10.0644H54.6972C54.9278 10.0644 55.1165 9.8677 55.1165 9.62733C55.1165 9.38697 54.9278 9.19031 54.6972 9.19031Z" fill="black"/>
<path d="M54.6972 12.9269H50.2731C50.0425 12.9269 49.8538 13.1235 49.8538 13.3639C49.8538 13.6043 50.0425 13.8009 50.2731 13.8009H54.6972C54.9278 13.8009 55.1165 13.6043 55.1165 13.3639C55.1165 13.1235 54.9278 12.9269 54.6972 12.9269Z" fill="black"/>
<path d="M54.6972 16.6853H50.2731C50.0425 16.6853 49.8538 16.882 49.8538 17.1223C49.8538 17.3627 50.0425 17.5594 50.2731 17.5594H54.6972C54.9278 17.5594 55.1165 17.3627 55.1165 17.1223C55.1165 16.882 54.9278 16.6853 54.6972 16.6853Z" fill="black"/>
<path d="M3.57897 9.19031H2.4677H1.39838C1.31451 9.19031 1.23064 9.21216 1.16774 9.27771C1.14677 9.27771 1.1258 9.27771 1.1258 9.29956C1.0629 9.36512 1.04193 9.43067 1.02097 9.49623C1.02097 9.51808 1.02097 9.56178 1.02097 9.58363C1.02097 9.69289 1.0629 9.80214 1.1258 9.88955C1.20967 9.97695 1.29354 10.0207 1.41934 10.0207H1.83869H2.4677H3.57897C3.99831 10.0207 4.35475 10.1736 4.64829 10.4795C4.94183 10.7854 5.0886 11.1569 5.0886 11.5939C5.0886 12.031 4.94183 12.4024 4.64829 12.7084C4.35475 13.0143 3.99831 13.1891 3.57897 13.1891H2.23706H1.81772H1.39838C1.29354 13.1891 1.1887 13.2328 1.10484 13.3202C1.04193 13.4295 1 13.5387 1 13.648V17.1005C1 17.2097 1.04193 17.319 1.1258 17.4064C1.20967 17.4938 1.29354 17.5375 1.41934 17.5375C1.52418 17.5375 1.62902 17.4938 1.71288 17.4282C1.79675 17.3408 1.83869 17.2534 1.83869 17.1223V14.085L3.59993 14.0631C4.22895 14.0631 4.79506 13.8228 5.25634 13.342C5.71762 12.8613 5.94826 12.2932 5.94826 11.6158C5.94826 10.9384 5.71762 10.3703 5.25634 9.88955C4.7741 9.43067 4.22895 9.19031 3.57897 9.19031Z" fill="black"/>
<path d="M10.6242 15.6145H10.1C9.8694 15.6145 9.70166 15.8112 9.70166 16.0297C9.70166 16.27 9.89037 16.4448 10.1 16.4448H10.6242C10.8549 16.4448 11.0226 16.2482 11.0226 16.0297C11.0226 15.9204 10.9807 15.8112 10.8968 15.7238C10.8129 15.6364 10.75 15.6145 10.6242 15.6145Z" fill="black"/>
<path d="M36.7699 14.9591L35.8893 15.8768C34.8409 16.9694 33.1426 16.9694 32.0942 15.8768C31.591 15.3524 31.2975 14.6531 31.2975 13.8883C31.2975 13.1454 31.57 12.4462 32.0942 11.8999L34.4425 9.45254C34.6103 9.27773 34.6103 9.01551 34.4425 8.8407C34.2748 8.66589 34.0232 8.66589 33.8555 8.8407L31.5071 11.288C30.8362 11.9873 30.4797 12.905 30.4797 13.8665C30.4797 14.828 30.8362 15.7676 31.5071 16.4449C32.199 17.166 33.0797 17.5157 33.9813 17.5157C34.8828 17.5157 35.7844 17.166 36.4554 16.4449L37.336 15.5272C37.5037 15.3524 37.5037 15.0902 37.336 14.9154C37.1683 14.7405 36.9167 14.8061 36.7699 14.9591Z" fill="black"/>
<path d="M32.4715 13.189C32.5554 13.2764 32.6602 13.3201 32.765 13.3201C32.8699 13.3201 32.9747 13.2764 33.0586 13.189L38.1955 7.83547C38.3633 7.66066 38.3633 7.39845 38.1955 7.22364C38.0278 7.04883 37.7762 7.04883 37.6085 7.22364L32.4715 12.5772C32.3038 12.752 32.3038 13.0142 32.4715 13.189Z" fill="black"/>
<path d="M36.1204 11.6595C35.9527 11.4847 35.701 11.4847 35.5333 11.6595L34.1495 13.1017C33.9817 13.2765 33.9817 13.5388 34.1495 13.7136C34.2334 13.801 34.3382 13.8447 34.443 13.8447C34.5479 13.8447 34.6527 13.801 34.7366 13.7136L36.1204 12.2714C36.2881 12.0966 36.2881 11.8344 36.1204 11.6595Z" fill="black"/>
<path d="M40.7535 6.8523C40.5858 6.67749 40.3342 6.67749 40.1664 6.8523L37.5665 9.56186C37.3987 9.73667 37.3987 9.99888 37.5665 10.1737C37.6503 10.2611 37.7552 10.3048 37.86 10.3048C37.9649 10.3048 38.0697 10.2611 38.1536 10.1737L40.7535 7.46413C40.9212 7.28932 40.9212 7.00526 40.7535 6.8523Z" fill="black"/>
<path d="M37.001 11.3537L37.2945 11.0478C37.4622 10.8729 37.4622 10.6107 37.2945 10.4359C37.1268 10.2611 36.8752 10.2611 36.7074 10.4359L36.4139 10.7418C36.2462 10.9166 36.2462 11.1789 36.4139 11.3537C36.4978 11.4411 36.6026 11.4848 36.7074 11.4848C36.8123 11.4848 36.9171 11.4411 37.001 11.3537Z" fill="black"/>
<path d="M37.8182 13.8666L37.6295 14.0632C37.4617 14.2381 37.4617 14.5003 37.6295 14.6751C37.7133 14.7625 37.8182 14.8062 37.923 14.8062C38.0278 14.8062 38.1327 14.7625 38.2166 14.6751L38.4053 14.4784C38.573 14.3036 38.573 14.0414 38.4053 13.8666C38.2375 13.6918 37.9859 13.6918 37.8182 13.8666Z" fill="black"/>
<path d="M35.0717 15.4835C35.1765 15.4835 35.2814 15.4398 35.3652 15.3523L36.3717 14.3035C36.5394 14.1287 36.5394 13.8665 36.3717 13.6917C36.2039 13.5168 35.9523 13.5168 35.7846 13.6917L34.7781 14.7405C34.6104 14.9153 34.6104 15.1775 34.7781 15.3523C34.862 15.4398 34.9669 15.4835 35.0717 15.4835Z" fill="black"/>
<path d="M38.0911 11.2881L36.6654 12.774C36.4976 12.9488 36.4976 13.211 36.6654 13.3858C36.7492 13.4732 36.8541 13.5169 36.9589 13.5169C37.0637 13.5169 37.1686 13.4732 37.2524 13.3858L38.6782 11.8999C38.8459 11.7251 38.8459 11.4629 38.6782 11.2881C38.5105 11.1133 38.2589 11.1351 38.0911 11.2881Z" fill="black"/>
<path d="M32.8284 7.07074C32.9333 7.18 33.08 7.18 33.1849 7.07074L33.4994 6.74298C33.6042 6.63372 33.6042 6.48076 33.4994 6.3715L33.1849 6.04373C33.08 5.93448 32.9333 5.93448 32.8284 6.04373L32.5139 6.3715C32.4091 6.48076 32.4091 6.63372 32.5139 6.74298L32.8284 7.07074Z" fill="black"/>
<path d="M31.1087 8.84073C31.1926 8.92813 31.3184 8.92813 31.3813 8.84073L31.6329 8.57851C31.7167 8.49111 31.7167 8.36 31.6329 8.29444L31.3813 8.03223C31.2974 7.94482 31.1716 7.94482 31.1087 8.03223L30.8571 8.29444C30.7732 8.38185 30.7732 8.51296 30.8571 8.57851L31.1087 8.84073Z" fill="black"/>
</g>
<defs>
<clipPath id="clip0">
<rect width="62" height="11.5593" fill="white" transform="translate(1 6)"/>
</clipPath>
</defs>
</svg>
