<svg width="64" height="24" viewBox="0 0 64 24" fill="none" xmlns="http://www.w3.org/2000/svg">
<g clip-path="url(#clip0)">
<mask id="mask0" mask-type="alpha" maskUnits="userSpaceOnUse" x="0" y="-9" width="64" height="43">
<rect y="-9" width="64" height="43" fill="white"/>
</mask>
<g mask="url(#mask0)">
</g>
<g clip-path="url(#clip1)">
<path d="M24.1903 8.01013H20.8076C20.5761 8.01013 20.3792 8.19011 20.3431 8.43468L18.975 17.718C18.9478 17.9011 19.0803 18.0663 19.254 18.0663H20.8689C21.1004 18.0663 21.2972 17.8863 21.3334 17.6412L21.7023 15.1374C21.738 14.8923 21.9353 14.7123 22.1663 14.7123H23.2372C25.4654 14.7123 26.7515 13.5583 27.0873 11.2715C27.2387 10.271 27.0937 9.48492 26.656 8.93439C26.1752 8.32986 25.3225 8.01013 24.1903 8.01013ZM24.5806 11.4007C24.3956 12.6997 23.4681 12.6997 22.5714 12.6997H22.0609L22.4191 10.2737C22.4403 10.127 22.559 10.019 22.6975 10.019H22.9315C23.5423 10.019 24.1186 10.019 24.4163 10.3917C24.5939 10.614 24.6483 10.9444 24.5806 11.4007Z" fill="#253B80"/>
<path d="M34.302 11.3588H32.6821C32.5441 11.3588 32.4249 11.4668 32.4036 11.6135L32.3319 12.0984L32.2186 11.9226C31.8679 11.3779 31.0859 11.1958 30.3054 11.1958C28.5154 11.1958 26.9865 12.6468 26.6887 14.6821C26.5339 15.6974 26.754 16.6683 27.2922 17.3453C27.7858 17.9679 28.4921 18.2272 29.3325 18.2272C30.7748 18.2272 31.5746 17.2347 31.5746 17.2347L31.5024 17.7164C31.4752 17.9006 31.6077 18.0658 31.7804 18.0658H33.2395C33.4715 18.0658 33.6674 17.8858 33.704 17.6407L34.5794 11.7072C34.6071 11.5245 34.4751 11.3588 34.302 11.3588ZM32.044 14.733C31.8877 15.7234 31.1532 16.3883 30.2164 16.3883C29.746 16.3883 29.3701 16.2268 29.1287 15.9208C28.8893 15.617 28.7983 15.1845 28.8745 14.7028C29.0204 13.7208 29.7673 13.0343 30.6897 13.0343C31.1497 13.0343 31.5237 13.1978 31.77 13.5064C32.0168 13.8182 32.1147 14.2534 32.044 14.733Z" fill="#253B80"/>
<path d="M42.9292 11.3588H41.3014C41.1461 11.3588 41.0001 11.4413 40.9121 11.5795L38.667 15.1188L37.7153 11.7177C37.6555 11.5049 37.472 11.3588 37.2642 11.3588H35.6646C35.4702 11.3588 35.3352 11.562 35.397 11.7579L37.1901 17.3892L35.5044 19.9359C35.3718 20.1365 35.5054 20.4123 35.7344 20.4123H37.3602C37.5145 20.4123 37.659 20.3319 37.7465 20.1964L43.1607 11.8325C43.2902 11.6324 43.1572 11.3588 42.9292 11.3588Z" fill="#253B80"/>
<path d="M48.3185 8.01013H44.9352C44.7043 8.01013 44.5074 8.19011 44.4713 8.43468L43.1032 17.718C43.076 17.9011 43.2085 18.0663 43.3811 18.0663H45.1173C45.2785 18.0663 45.4165 17.9403 45.4417 17.7688L45.83 15.1374C45.8656 14.8923 46.063 14.7123 46.294 14.7123H47.3643C49.5931 14.7123 50.8786 13.5583 51.215 11.2715C51.3668 10.271 51.2209 9.48492 50.7832 8.93439C50.3029 8.32986 49.4507 8.01013 48.3185 8.01013ZM48.7087 11.4007C48.5242 12.6997 47.5968 12.6997 46.6996 12.6997H46.1896L46.5482 10.2737C46.5695 10.127 46.6872 10.019 46.8262 10.019H47.0602C47.6705 10.019 48.2472 10.019 48.545 10.3917C48.7226 10.614 48.7765 10.9444 48.7087 11.4007Z" fill="#179BD7"/>
<path d="M58.4297 11.3588H56.8108C56.6718 11.3588 56.5536 11.4668 56.5329 11.6135L56.4611 12.0984L56.3474 11.9226C55.9967 11.3779 55.2152 11.1958 54.4347 11.1958C52.6446 11.1958 51.1162 12.6468 50.8185 14.6821C50.6641 15.6974 50.8833 16.6683 51.4214 17.3453C51.916 17.9679 52.6214 18.2272 53.4617 18.2272C54.9041 18.2272 55.7039 17.2347 55.7039 17.2347L55.6316 17.7164C55.6044 17.9006 55.737 18.0658 55.9106 18.0658H57.3693C57.6003 18.0658 57.7971 17.8858 57.8332 17.6407L58.7092 11.7072C58.7359 11.5245 58.6033 11.3588 58.4297 11.3588ZM56.1718 14.733C56.0165 15.7234 55.281 16.3883 54.3441 16.3883C53.8747 16.3883 53.4978 16.2268 53.2565 15.9208C53.0171 15.617 52.927 15.1845 53.0022 14.7028C53.1491 13.7208 53.895 13.0343 54.8175 13.0343C55.2775 13.0343 55.6514 13.1978 55.8978 13.5064C56.1456 13.8182 56.2435 14.2534 56.1718 14.733Z" fill="#179BD7"/>
<path d="M60.3395 8.26479L58.9511 17.718C58.9239 17.9012 59.0564 18.0664 59.229 18.0664H60.6249C60.8569 18.0664 61.0537 17.8864 61.0893 17.6413L62.4584 8.35849C62.4857 8.17533 62.3531 8.00964 62.1805 8.00964H60.6175C60.4795 8.01017 60.3607 8.11816 60.3395 8.26479Z" fill="#179BD7"/>
<path d="M4.92723 19.8704L5.18592 18.1119L4.60968 18.0976H1.85809L3.77031 5.12148C3.77624 5.08231 3.79553 5.04578 3.82373 5.01985C3.85192 4.99391 3.88803 4.97961 3.92562 4.97961H8.56519C10.1054 4.97961 11.1684 5.32264 11.7234 5.99968C11.9835 6.3173 12.1492 6.6492 12.2294 7.01446C12.3134 7.39771 12.3149 7.85561 12.2328 8.41408L12.2269 8.45484V8.81268L12.4871 8.97043C12.7062 9.09483 12.8803 9.23723 13.0138 9.40027C13.2364 9.67183 13.3804 10.017 13.4412 10.4262C13.504 10.847 13.4832 11.3478 13.3804 11.9147C13.2616 12.5669 13.0697 13.1349 12.8105 13.5996C12.5721 14.0279 12.2684 14.3831 11.9079 14.6584C11.5636 14.9199 11.1545 15.1184 10.6921 15.2454C10.2439 15.3703 9.733 15.4333 9.17259 15.4333H8.81151C8.55332 15.4333 8.30254 15.5329 8.10568 15.7113C7.90833 15.8933 7.77775 16.1421 7.73768 16.4142L7.71048 16.5725L7.25345 19.6719L7.23267 19.7857C7.22723 19.8217 7.21784 19.8397 7.20399 19.8519C7.19162 19.863 7.17381 19.8704 7.1565 19.8704H4.92723Z" fill="#253B80"/>
<path d="M12.7335 8.49609C12.7196 8.59085 12.7038 8.68772 12.686 8.78724C12.0741 12.1492 9.9809 13.3106 7.30746 13.3106H5.94625C5.61931 13.3106 5.3438 13.5647 5.29285 13.9098L4.59593 18.6401L4.39857 19.981C4.36543 20.2076 4.52866 20.4119 4.74234 20.4119H7.1566C7.44249 20.4119 7.68535 20.1896 7.73036 19.8878L7.7541 19.7566L8.20866 16.6694L8.23784 16.5C8.28236 16.1972 8.52571 15.9748 8.81161 15.9748H9.17268C11.5118 15.9748 13.3429 14.9585 13.878 12.0174C14.1016 10.7887 13.9859 9.76284 13.3943 9.04133C13.2152 8.82377 12.9932 8.64325 12.7335 8.49609Z" fill="#179BD7"/>
<path d="M12.0935 8.22295C12 8.19383 11.9036 8.16737 11.8046 8.14355C11.7052 8.12025 11.6033 8.09961 11.4985 8.08161C11.1314 8.01809 10.7293 7.98792 10.2985 7.98792H6.66203C6.5725 7.98792 6.48742 8.00962 6.41125 8.04879C6.24357 8.13508 6.11893 8.305 6.08876 8.51304L5.31517 13.7568L5.29291 13.9098C5.34385 13.5647 5.61936 13.3106 5.94631 13.3106H7.30751C9.98095 13.3106 12.0742 12.1487 12.686 8.78724C12.7044 8.68772 12.7197 8.59085 12.7335 8.4961C12.5787 8.40822 12.411 8.33306 12.2305 8.269C12.186 8.25312 12.14 8.23777 12.0935 8.22295Z" fill="#222D65"/>
<path d="M6.08862 8.51301C6.11879 8.30498 6.24344 8.13505 6.41111 8.0493C6.48778 8.01012 6.57236 7.98842 6.66189 7.98842H10.2984C10.7292 7.98842 11.1313 8.01859 11.4983 8.08212C11.6032 8.10011 11.7051 8.12076 11.8045 8.14405C11.9034 8.16787 11.9999 8.19434 12.0934 8.22345C12.1398 8.23828 12.1858 8.25363 12.2309 8.26898C12.4114 8.33303 12.5791 8.40873 12.7339 8.49607C12.9159 7.25367 12.7324 6.40776 12.1047 5.64179C11.4127 4.79852 10.1638 4.4375 8.5657 4.4375H3.92613C3.59967 4.4375 3.3212 4.69159 3.27075 5.03726L1.33825 18.1468C1.30017 18.4061 1.48714 18.6401 1.73148 18.6401H4.59585L5.31503 13.7568L6.08862 8.51301Z" fill="#253B80"/>
</g>
</g>
<defs>
<clipPath id="clip0">
<rect width="64" height="24" rx="1" fill="white"/>
</clipPath>
<clipPath id="clip1">
<rect width="61.3333" height="17.4688" fill="white" transform="translate(1.33331 4.4375)"/>
</clipPath>
</defs>
</svg>
