<svg width="64" height="24" viewBox="0 0 64 24" fill="none" xmlns="http://www.w3.org/2000/svg">
<g clip-path="url(#clip0)">
<mask id="mask0" mask-type="alpha" maskUnits="userSpaceOnUse" x="0" y="-9" width="64" height="42">
<rect y="-9" width="64" height="42" fill="white"/>
</mask>
<g mask="url(#mask0)">
</g>
<g clip-path="url(#clip1)">
<path d="M11.7434 12.0617C11.7363 11.8336 11.6327 11.7159 11.4316 11.7082H10.3577C10.1035 11.7243 9.97217 11.8691 9.96608 12.1415V14.1475C9.97217 14.4287 10.1174 14.5721 10.3997 14.5801H11.3839C11.4861 14.5801 11.5711 14.5408 11.6388 14.4603C11.7095 14.3998 11.7434 14.3222 11.7434 14.2258V12.0617ZM8.58716 11.777C8.59427 11.2751 8.7019 10.8938 8.91073 10.633C9.02006 10.5236 9.1568 10.4323 9.32333 10.3567C9.49628 10.2762 9.66383 10.2372 9.82629 10.2372H11.7975C12.6671 10.2449 13.1091 10.7388 13.123 11.7198V14.739C13.1165 15.0873 12.9852 15.3896 12.7314 15.6423C12.4799 15.9081 12.1797 16.0434 11.83 16.0515H9.96608V18.2282H8.58716V11.777Z" fill="#008AC9"/>
<path d="M15.6119 14.2888C15.6119 14.3728 15.6492 14.4392 15.7219 14.4891C15.7869 14.5489 15.8688 14.5801 15.9724 14.5801H17.0315C17.2708 14.5801 17.395 14.4838 17.4021 14.2888V13.8782C17.4021 13.654 17.2758 13.5408 17.0213 13.5408H15.9724C15.8343 13.5408 15.7388 13.5647 15.6857 13.6097C15.6366 13.6628 15.6119 13.7679 15.6119 13.9236V14.2888ZM17.4021 12.0262C17.4092 11.8062 17.2856 11.7011 17.0311 11.7082H14.254V10.2372H17.3808C18.2916 10.2526 18.7539 10.7096 18.7695 11.6118V14.6891C18.7617 15.0782 18.647 15.3991 18.4243 15.6543C18.1914 15.9186 17.8912 16.0515 17.5232 16.0515H15.6332C14.7133 16.0434 14.2469 15.6072 14.2327 14.7401V13.5528C14.2398 12.6466 14.6855 12.1862 15.5679 12.1704H17.4021V12.0262Z" fill="#008AC9"/>
<path d="M22.6425 16.7569C22.7518 16.7499 22.8466 16.7091 22.9234 16.636C22.9972 16.5678 23.0344 16.4894 23.0344 16.4005V16.0515H21.269C21.0388 16.0515 20.8547 16.0209 20.7173 15.9601C20.5721 15.9049 20.4275 15.8019 20.282 15.6557C20.1442 15.5007 20.0451 15.3387 19.9848 15.1692C19.9222 15.0142 19.8904 14.817 19.8904 14.5801V10.2372H21.269V14.1141C21.269 14.4248 21.3911 14.5801 21.6386 14.5801H22.612C22.7278 14.5801 22.8283 14.5408 22.9126 14.4603C22.9938 14.3921 23.0344 14.3113 23.0344 14.2164V10.2372H24.4018V16.6441C24.394 17.1182 24.2769 17.4978 24.0512 17.7857C23.822 18.0736 23.5086 18.2208 23.1089 18.2282H19.8904V16.7569H22.6425Z" fill="#008AC9"/>
<path d="M25.4844 14.5801H27.9413C28.1661 14.5721 28.2828 14.4786 28.2899 14.2993V14.1671C28.2899 14.1288 28.2788 14.0863 28.2571 14.0406C28.2023 13.9295 28.1349 13.8744 28.0547 13.8744H26.8366C26.4751 13.867 26.1667 13.7376 25.9075 13.4881C25.6451 13.2575 25.5108 12.9739 25.503 12.641V11.544C25.5172 10.6881 25.965 10.2526 26.847 10.2372H29.6966V11.7082H27.2823C26.999 11.7082 26.8562 11.7985 26.8562 11.9784V12.1208C26.8562 12.3074 27.0021 12.4009 27.2928 12.4009H28.5072C28.8308 12.4087 29.1067 12.5373 29.3365 12.7883C29.5687 13.041 29.6892 13.3415 29.6966 13.6905V14.7636C29.6892 15.0652 29.5548 15.3661 29.2965 15.6662C29.1706 15.8135 29.0417 15.9147 28.9127 15.972C28.7794 16.0248 28.5983 16.0515 28.3671 16.0515H25.4844V14.5801Z" fill="#008AC9"/>
<path d="M32.0561 14.2888C32.0561 14.3728 32.0934 14.4392 32.1678 14.4891C32.2321 14.5489 32.3144 14.5801 32.4166 14.5801H33.4777C33.717 14.5801 33.8405 14.4838 33.8476 14.2888V13.8782C33.8476 13.654 33.7197 13.5408 33.4662 13.5408H32.4166C32.2788 13.5408 32.1837 13.5647 32.1309 13.6097C32.0818 13.6628 32.0561 13.7679 32.0561 13.9236V14.2888ZM33.8476 12.0262C33.8537 11.8062 33.7302 11.7011 33.4753 11.7082H30.6989V10.2372H33.8267C34.7365 10.2526 35.1991 10.7096 35.2134 11.6118V14.6891C35.2059 15.0782 35.0902 15.3991 34.8688 15.6543C34.6376 15.9186 34.3371 16.0515 33.9688 16.0515H32.0771C31.1578 16.0434 30.6911 15.6072 30.6782 14.7401V13.5528C30.6843 12.6466 31.1297 12.1862 32.0128 12.1704H33.8476V12.0262Z" fill="#008AC9"/>
<path d="M36.3345 9.40304C36.3429 9.00586 36.4837 8.68706 36.7599 8.44805C37.028 8.20517 37.38 8.08039 37.8153 8.07336H38.6909V9.49442H38.1605C37.8691 9.50145 37.7205 9.64626 37.7141 9.92605V10.2375H38.6909V11.7098H37.7141V16.0521H36.3345V9.40304Z" fill="#008AC9"/>
<path d="M42.6122 11.9988V11.9647C42.6122 11.8892 42.5827 11.8248 42.5235 11.777C42.4592 11.7306 42.3807 11.7082 42.2862 11.7082H41.3263C41.2031 11.7082 41.104 11.744 41.0271 11.8175C40.9317 11.8853 40.8833 11.9746 40.8833 12.0846V12.6751L42.6122 11.9988ZM40.9053 14.0782V14.17C40.9053 14.2877 40.9347 14.3812 40.9946 14.449C41.038 14.5359 41.0962 14.5801 41.1737 14.5801H44.0063V16.0515H40.9946C40.7198 16.0515 40.5056 16.0248 40.3543 15.9713C40.1888 15.9147 40.0402 15.8223 39.9105 15.6937C39.7589 15.5379 39.6557 15.3794 39.6039 15.2163C39.547 15.0462 39.5189 14.8206 39.5189 14.5394L39.5071 11.595C39.5223 10.7054 39.9698 10.2526 40.8491 10.2372H42.708C43.5667 10.2526 44.0016 10.7212 44.0155 11.6452V12.8083L40.9053 14.0782Z" fill="#008AC9"/>
<path d="M46.9347 16.0515C46.7259 16.0515 46.5353 16.0314 46.3624 15.9949C46.1813 15.9643 46.0009 15.8771 45.8164 15.7299C45.6272 15.5587 45.4962 15.3668 45.4245 15.1548C45.3486 14.9464 45.3121 14.7102 45.3121 14.4445V11.699C45.3043 11.4751 45.326 11.2786 45.3764 11.1082C45.4228 10.938 45.5202 10.7714 45.6675 10.6083C45.8354 10.4372 46.0066 10.3233 46.1874 10.2674C46.3613 10.2221 46.5573 10.1992 46.777 10.1992H48.8904V10.5433H46.8261C46.4615 10.5433 46.1752 10.621 45.9657 10.7767C45.7514 10.9465 45.6421 11.2393 45.6421 11.6519V14.3991C45.6421 14.5924 45.6705 14.7805 45.7271 14.9619C45.7849 15.1401 45.8814 15.2965 46.0198 15.4332C46.1701 15.5516 46.3197 15.6255 46.4656 15.6557C46.6176 15.6905 46.7807 15.707 46.9537 15.707H48.9235V16.0515H46.9347Z" fill="#008AC9"/>
<path d="M54.3257 12.4895H51.555C51.2233 12.4972 50.9634 12.6037 50.7762 12.809C50.5826 13.0174 50.4868 13.3032 50.4868 13.6663V14.5425C50.4868 14.7123 50.5037 14.8677 50.5389 15.0075C50.5738 15.1548 50.6608 15.2863 50.7982 15.3991C51.0375 15.6051 51.3025 15.707 51.5923 15.707H53.2711C53.9727 15.6993 54.3257 15.3155 54.3257 14.5534V12.4895ZM54.6551 14.4677C54.6551 14.6888 54.6388 14.8828 54.6114 15.0536C54.5667 15.2392 54.475 15.4181 54.3359 15.5882C54.0465 15.9049 53.6877 16.0592 53.2596 16.0515H51.6122C51.1841 16.0515 50.8371 15.9186 50.5684 15.6543C50.2939 15.3931 50.1548 15.03 50.1548 14.5643V13.6793C50.1687 12.6807 50.6476 12.1693 51.5912 12.1461H54.3359V11.7588C54.3359 11.4396 54.2469 11.1602 54.0699 10.9198C53.9575 10.7637 53.8245 10.6593 53.6735 10.6055C53.5209 10.5641 53.3496 10.5433 53.1587 10.5433H50.1646V10.1992H53.003C53.2626 10.1992 53.4972 10.2182 53.7097 10.2555C53.819 10.278 53.9182 10.3222 54.0099 10.3862C54.1071 10.447 54.1978 10.5359 54.2817 10.6526C54.5363 10.9936 54.6605 11.3869 54.6551 11.8298V14.4677Z" fill="#008AC9"/>
<path d="M57.7533 10.5433C56.9849 10.5581 56.6062 10.9936 56.6204 11.8505V16.0515H56.2904V11.8519C56.2748 10.7496 56.7802 10.1992 57.8064 10.1992H58.1733V10.5433H57.7533Z" fill="#008AC9"/>
<path d="M63.3347 10.545H60.723C60.5349 10.545 60.3663 10.5668 60.2143 10.6083C60.0553 10.6455 59.9016 10.7457 59.7577 10.9088C59.62 11.0575 59.5333 11.2047 59.4971 11.352C59.4487 11.5007 59.4267 11.6789 59.4345 11.8866V14.5649C59.4345 15.0103 59.5587 15.3133 59.8105 15.476C59.9348 15.5516 60.0712 15.6082 60.2241 15.6461C60.3765 15.6883 60.5464 15.709 60.7335 15.709H61.8755C62.302 15.709 62.651 15.6071 62.919 15.4015C63.1884 15.2085 63.3255 14.8757 63.3347 14.4012V10.545ZM63.6643 14.4247C63.6352 15.5333 63.0703 16.0767 61.97 16.0538H60.7457C60.4871 16.0538 60.256 16.0303 60.0515 15.9857C59.841 15.9291 59.6396 15.7959 59.4457 15.5881C59.2998 15.4015 59.206 15.2127 59.1685 15.0194C59.118 14.8265 59.096 14.6117 59.1038 14.3773V11.8778C59.118 10.752 59.664 10.1925 60.743 10.2009H63.3347V8.30322H63.6643V14.4247Z" fill="#008AC9"/>
<path d="M0.927501 10.0161C1.03581 9.96654 1.14412 9.92787 1.25243 9.90362C1.45145 8.91665 2.29322 8.17642 3.30219 8.17642C4.31184 8.17642 5.15395 8.9177 5.35263 9.90432C5.66233 9.96548 5.91855 10.0955 6.11825 10.2892C6.12637 10.0998 6.11892 9.91733 6.09726 9.74545C5.96966 8.25445 4.76573 7.08435 3.29779 7.08435C1.78653 7.08435 0.556201 8.32826 0.492231 9.88324C0.483431 10.0175 0.480723 10.1574 0.485462 10.3036C0.612387 10.1925 0.757252 10.0927 0.927501 10.0161Z" fill="#E3001B"/>
<path d="M4.94292 10.2372H1.57516C1.41304 10.2372 1.24516 10.2762 1.0722 10.3567C0.905335 10.4323 0.768594 10.5236 0.658931 10.633C0.450096 10.8938 0.34314 11.2751 0.335693 11.777V14.5109C0.34314 15.0139 0.450096 15.3949 0.658931 15.6543C0.768594 15.7654 0.905335 15.8567 1.0722 15.933C1.24516 16.0117 1.41304 16.0515 1.57516 16.0515H4.94292C5.81278 16.0434 6.25516 15.5478 6.26904 14.5682V11.7198C6.25516 10.7388 5.81278 10.2449 4.94292 10.2372Z" fill="#E3001B"/>
</g>
</g>
<defs>
<clipPath id="clip0">
<rect width="64" height="24" rx="1" fill="white"/>
</clipPath>
<clipPath id="clip1">
<rect width="64" height="11.8125" fill="white" transform="translate(0 6.75)"/>
</clipPath>
</defs>
</svg>
