<svg width="64" height="24" viewBox="0 0 64 24" fill="none" xmlns="http://www.w3.org/2000/svg">
<g clip-path="url(#clip0)">
<mask id="mask0" mask-type="alpha" maskUnits="userSpaceOnUse" x="0" y="-9" width="64" height="44">
<rect y="-9" width="64" height="44" fill="white"/>
</mask>
<g mask="url(#mask0)">
</g>
<g clip-path="url(#clip1)">
<path d="M0 22.625H63.9987V4.74856H0V22.625Z" fill="#FCD205"/>
<path d="M53.1482 18.5386L53.7736 15.6119H2.73197L2.10596 18.5386H53.1482Z" fill="white"/>
<path d="M59.2962 11.6229C59.2962 11.6229 59.9806 8.52226 59.9901 8.49316H55.6407C55.6407 8.51277 54.7415 12.608 54.7415 12.6274C54.751 12.6274 55.856 12.6274 55.856 12.6274C55.8654 12.6274 56.54 9.53635 56.54 9.53635H58.6509C58.6509 9.53635 57.9863 12.6369 57.9669 12.6565C57.9863 12.6565 61.1824 12.6565 61.1824 12.6565L60.7623 14.5688C60.7623 14.5688 57.5761 14.5688 57.5657 14.5688C57.5657 14.5882 56.9209 17.4859 56.9209 17.4859C56.9209 17.4859 54.5263 17.4859 54.5069 17.4859C54.5069 17.4954 54.2917 18.5289 54.2822 18.5386H57.8395C57.8395 18.5289 58.4753 15.6119 58.4753 15.6119C58.4753 15.6119 61.6516 15.6119 61.6714 15.6119C61.6714 15.6022 62.5121 11.642 62.5121 11.6229H59.2962Z" fill="#ED1C24"/>
<path d="M51.4255 12.5407C51.8848 12.5407 52.1977 12.8496 52.1977 13.3616C52.1977 13.4483 52.1878 13.5256 52.1784 13.6125H50.194C50.3993 12.9656 50.8388 12.5407 51.4255 12.5407ZM52.4125 16.385L52.6669 15.2355C52.2369 15.3801 51.8163 15.4959 51.2791 15.4959C50.6533 15.4959 50.1061 15.2837 50.0769 14.5398H53.3023C53.4194 14.1629 53.4878 13.7865 53.4878 13.4389C53.4878 12.3762 52.8623 11.5067 51.5232 11.5067C49.7833 11.5067 48.7278 12.9174 48.7278 14.4725C48.7278 15.8051 49.627 16.5878 51.0247 16.5878C51.5916 16.5878 52.041 16.5005 52.4125 16.385ZM47.1054 15.4091C46.4701 15.4091 46.0401 15.1388 46.0401 14.3565C46.0401 13.4389 46.6264 12.6756 47.5553 12.6756C47.8484 12.6756 48.1807 12.7626 48.513 12.8883L48.7476 11.7872C48.3662 11.6521 47.9164 11.5553 47.467 11.5553C45.9325 11.5553 44.6226 12.6853 44.6226 14.4243C44.6226 15.8536 45.5123 16.5294 46.7925 16.5294C47.2225 16.5294 47.5841 16.4524 47.8484 16.3463L48.1024 15.2159C47.8092 15.3222 47.4864 15.4091 47.1054 15.4091ZM40.3517 16.4427L40.8892 13.9989C41.1041 13.0138 41.5931 12.6756 42.1012 12.6756C42.7562 12.6756 42.8344 13.1589 42.7071 13.7092L42.1206 16.4427H43.5185L44.134 13.6416C44.4371 12.2411 43.7823 11.5067 42.7562 11.5067C42.189 11.5067 41.6419 11.729 41.1726 12.2217L41.2995 11.6521H39.9998L38.9539 16.4427H40.3517ZM35.328 15.0615C35.328 14.5788 35.7579 14.3079 36.4712 14.3079C36.6084 14.3079 36.9109 14.3179 37.185 14.3565L37.1261 14.627C36.9597 15.1964 36.491 15.5833 35.9342 15.5833C35.5331 15.5833 35.328 15.39 35.328 15.0615ZM36.6769 11.5357C36.0317 11.5357 35.3768 11.6808 35.1618 11.7484L34.9273 12.8593C35.2395 12.7725 35.8555 12.608 36.4031 12.608C37.1359 12.608 37.3999 12.8302 37.3999 13.207C37.3999 13.2744 37.3999 13.352 37.3805 13.4289L37.3607 13.5256C37.009 13.4871 36.6769 13.4583 36.52 13.4583C35.1324 13.4583 34.0185 13.9892 34.0185 15.2451C34.0185 16.066 34.6633 16.5587 35.5037 16.5587C36.1001 16.5587 36.6084 16.3269 36.9405 15.9405L36.8329 16.4427H38.0742L38.6803 13.6998C38.7291 13.4965 38.7484 13.2843 38.7484 13.0816C38.7484 12.2602 38.2894 11.5357 36.6769 11.5357ZM29.9034 16.4427L30.4408 13.9989C30.6561 13.0138 31.1443 12.6756 31.6532 12.6756C32.3081 12.6756 32.3861 13.1589 32.2593 13.7092L31.6725 16.4427H33.0701L33.6856 13.6416C33.9887 12.2411 33.3341 11.5067 32.3081 11.5067C31.7404 11.5067 31.1931 11.729 30.7242 12.2217L30.8511 11.6521H29.5513L28.5055 16.4427H29.9034ZM27.4014 10.3285C27.3716 10.763 27.6945 11.1012 28.1244 11.1012C28.6033 11.1012 28.9455 10.763 28.9744 10.3285C29.004 9.894 28.6815 9.55582 28.2514 9.55582C27.7727 9.55582 27.4305 9.894 27.4014 10.3285ZM27.2055 11.6521L26.1598 16.4427H27.5479L28.5937 11.6521H27.2055ZM23.2566 16.4427L23.8039 13.941H25.9155L26.1699 12.7144H24.0681L24.3909 11.1785H26.6096L26.8832 9.95164H23.2181L21.8301 16.4427H23.2566ZM21.8787 12.7047L22.1036 11.6521H20.6085L20.9013 10.3191L19.4449 10.6376L18.5359 14.7328C18.2822 15.8923 18.9268 16.5294 20.0996 16.5294C20.3445 16.5294 20.7546 16.4814 21.0482 16.385L21.2827 15.3319C21.0482 15.39 20.7546 15.4478 20.5009 15.4478C20.0996 15.4478 19.8163 15.3127 19.9144 14.8295L20.3739 12.7047H21.8787ZM16.5812 15.0324C16.5812 15.4191 16.1025 15.4864 15.7018 15.4864C15.1933 15.4864 14.6267 15.3515 14.324 15.2546L14.0889 16.3364C14.5289 16.4427 15.086 16.5294 15.6137 16.5294C16.8645 16.5294 17.8814 16.066 17.8814 14.907C17.8814 13.4098 16.0635 13.6707 16.0635 13.0043C16.0635 12.7047 16.3567 12.5984 16.8157 12.5984C17.2554 12.5984 17.8719 12.7725 18.0768 12.8302L18.3114 11.739C17.8912 11.623 17.3927 11.5553 16.9428 11.5553C15.5846 11.5553 14.7637 12.1544 14.7637 13.1492C14.7637 14.6074 16.5812 14.3661 16.5812 15.0324ZM11.3229 16.5878C12.8576 16.5878 13.8935 15.4864 14.1281 14.0474C14.3726 12.608 13.5615 11.5067 12.0266 11.5067C10.4923 11.5067 9.45616 12.608 9.22156 14.0474C8.97728 15.4864 9.78856 16.5878 11.3229 16.5878ZM11.4504 15.4769C10.893 15.4769 10.4533 15.0422 10.6582 14.0474C10.8634 13.0525 11.3523 12.618 11.9094 12.618C12.4666 12.618 12.9065 13.062 12.6913 14.0474C12.486 15.0324 12.0073 15.4769 11.4504 15.4769ZM5.55633 14.4625H6.17227C8.13686 14.4625 9.23168 13.5065 9.23168 11.9126C9.23168 10.7245 8.38067 9.95164 6.92453 9.95164H5.10706L3.71899 16.4427H5.12639L5.55633 14.4625ZM5.80066 13.2744L6.26004 11.1399H6.84653C7.4917 11.1399 7.80412 11.4008 7.80412 12.0093C7.80412 12.7916 7.30591 13.2744 6.38749 13.2744H5.80066Z" fill="#231F20"/>
</g>
</g>
<defs>
<clipPath id="clip0">
<rect width="64" height="24" rx="1" fill="white"/>
</clipPath>
<clipPath id="clip1">
<rect width="64" height="17.875" fill="white" transform="translate(0 4.75)"/>
</clipPath>
</defs>
</svg>
