<svg width="64" height="24" viewBox="0 0 64 24" fill="none" xmlns="http://www.w3.org/2000/svg">
<g clip-path="url(#clip0)">
<mask id="mask0" mask-type="alpha" maskUnits="userSpaceOnUse" x="2" y="-8" width="60" height="40">
<rect x="2" y="-8" width="60" height="40" fill="white"/>
</mask>
<g mask="url(#mask0)">
</g>
<g clip-path="url(#clip1)">
<path d="M5.75 18.2694L7.14333 10.463H10.7367C11.6167 10.463 12.2033 10.6819 12.4233 10.9737C12.6433 11.2655 12.7167 11.9951 12.57 12.9436C12.4233 13.819 12.13 14.4027 11.7633 14.7675C11.3967 15.1323 10.7367 15.2052 9.78333 15.2052H7.14333L6.63 18.2694H5.75ZM7.29 14.4757H9.41667C10.2967 14.4757 10.8833 14.4027 11.1033 14.1838C11.3233 13.965 11.6167 13.6002 11.69 12.9436C11.8367 12.214 11.8367 11.7762 11.7633 11.5574C11.69 11.3385 11.25 11.2655 10.59 11.2655H7.87667L7.29 14.4757ZM13.3767 12.7976H14.1833L13.9633 13.4543H14.0367C14.4033 12.9436 14.99 12.7247 15.7233 12.7247C16.75 12.7247 17.1656 13.2354 16.97 14.2568L16.8967 14.6216H16.09L16.1633 14.4757V14.1838C16.31 13.6731 16.0167 13.3813 15.43 13.3813C14.55 13.3813 13.9633 13.892 13.8167 15.0593L13.23 18.2694H12.4233L13.3767 12.7976ZM17.63 12.7976H21.59L21.4433 13.6002L17.4833 17.6128H20.7833L20.6367 18.2694H16.3833L16.53 17.5399L20.5633 13.5272H17.5567L17.63 12.7976ZM25.55 16.6644H26.3567V16.8103C26.2833 17.3939 25.99 17.8317 25.6233 18.0506C25.2567 18.2694 24.5967 18.3424 23.7167 18.3424C22.7633 18.3424 22.1033 18.1965 21.8833 17.8317C21.6633 17.4669 21.59 16.6644 21.81 15.4971C21.9567 14.4027 22.25 13.6731 22.69 13.3083C23.13 12.9436 23.7167 12.7247 24.5967 12.7247C25.6233 12.7247 26.2833 12.9436 26.5033 13.2354C26.7233 13.5272 26.7967 14.2568 26.65 15.2782L26.5767 15.7159H22.6167C22.47 16.5914 22.47 17.1021 22.6167 17.321C22.7633 17.5399 23.13 17.6858 23.79 17.6858C24.4744 17.6858 24.9144 17.6371 25.11 17.5399C25.3056 17.4426 25.4522 17.1994 25.55 16.8103V16.6644ZM25.8433 15.0593V14.8404C25.99 14.2568 25.9167 13.892 25.77 13.6731C25.6233 13.4543 25.1833 13.4543 24.5967 13.4543C24.01 13.4543 23.4967 13.5272 23.2767 13.7461C23.0567 13.965 22.8367 14.4027 22.69 15.0593H25.8433ZM29.2167 10.463L27.8233 18.2694H27.0167L28.41 10.463H29.2167ZM33.03 16.6644H33.8367V16.8103C33.7633 17.3939 33.47 17.8317 33.1033 18.0506C32.7367 18.2694 32.0767 18.3424 31.1967 18.3424C30.17 18.3424 29.5833 18.1965 29.3633 17.8317C29.1433 17.4669 29.07 16.6644 29.29 15.4971C29.4367 14.4027 29.73 13.6731 30.17 13.3083C30.61 12.9436 31.1967 12.7247 32.0767 12.7247C33.1033 12.7247 33.7633 12.9436 33.9833 13.2354C34.2033 13.5272 34.2767 14.2568 34.13 15.2782L34.0567 15.7159H30.0967C29.95 16.5914 29.95 17.1021 30.0967 17.321C30.2433 17.5399 30.61 17.6858 31.27 17.6858C31.9544 17.6858 32.3944 17.6371 32.59 17.5399C32.7856 17.4426 32.9322 17.1994 33.03 16.8103V16.6644ZM33.3233 15.0593V14.8404C33.47 14.2568 33.3967 13.892 33.25 13.6731C33.1033 13.4543 32.6633 13.4543 32.0767 13.4543C31.49 13.4543 30.9767 13.5272 30.7567 13.7461C30.5367 13.965 30.3167 14.4027 30.17 15.0593H33.3233ZM42.49 12.7976L39.9967 18.2694H38.8233L38.6033 15.2782L38.53 14.3297V13.3813H38.4567L38.31 13.892L38.09 14.3297L37.7233 15.2782L36.4767 18.2694H35.23L34.7167 12.7976H35.5233L35.8167 15.8618L35.89 16.8103V17.7587H35.9633L36.11 17.248L36.33 16.8103L36.6967 15.8618L38.0167 12.7976H39.19L39.41 15.8618L39.4833 16.8103V17.7587H39.5567L39.7033 17.248L39.9233 16.8103L40.3633 15.8618L41.6833 12.7976H42.49ZM46.5967 12.7976L45.4967 15.2782L44.9833 16.4455L44.7633 17.1021L44.47 17.6858L44.3233 17.1021L44.25 16.4455L44.03 15.2782L43.6633 12.7976H42.7833L43.8833 18.7801L43.7367 18.999C43.4433 19.7286 43.0033 20.0934 42.5633 20.0934C42.4885 20.0737 42.415 20.0493 42.3433 20.0204L42.1967 20.677C42.3165 20.712 42.4392 20.7364 42.5633 20.75C43.0767 20.75 43.5167 20.6041 43.81 20.3122C44.1033 20.0204 44.47 19.4367 44.8367 18.6342L47.4033 12.7976H46.5967Z" fill="#CE4749"/>
<path d="M52.5367 17.6128L52.4634 18.3424H46.89L47.1834 16.8833C47.33 16.0564 47.5745 15.5214 47.9167 15.2782C48.2834 14.9864 49.09 14.8405 50.2634 14.6946C51.2411 14.5973 51.8278 14.4514 52.0234 14.2568C52.2434 14.0379 52.4634 13.6002 52.61 12.8706C52.6834 12.214 52.6834 11.7763 52.4634 11.5574C52.2434 11.3385 51.8767 11.2656 51.1434 11.2656C50.19 11.2656 49.6034 11.3385 49.31 11.4844C49.0167 11.6304 48.87 12.0681 48.7967 12.6518L48.65 13.2354H47.8434L47.9167 12.8706C48.0634 11.9222 48.3567 11.2656 48.7967 10.9737C49.2367 10.6819 50.0434 10.536 51.2167 10.536C52.2434 10.536 52.9034 10.6819 53.1967 11.0467C53.49 11.4115 53.5634 11.9951 53.4167 12.9436C53.2211 13.8677 52.9278 14.5 52.5367 14.8405C52.1456 15.1809 51.4123 15.3755 50.3367 15.4241C49.31 15.57 48.7234 15.716 48.5034 15.8619C48.2834 16.0078 48.0634 16.5185 47.9167 17.321V17.6128H52.5367ZM59.7967 10.6089L58.9167 15.7889H60.0167L59.87 16.5185H58.77L58.4767 18.3424H57.5967L57.89 16.5185H53.6367L53.7834 15.4971L58.4767 10.6089H59.7967ZM58.0367 15.7889L58.8434 11.1926L54.4434 15.7889H58.0367ZM23.9367 8.12841C25.6324 7.14332 27.4265 6.33645 29.29 5.72082L28.9234 3.82393C26.5342 4.56745 24.2251 5.545 22.03 6.74222L23.9367 8.12841ZM45.2034 7.107L51.8034 3.45914C49.09 2.65661 45.57 2 41.2434 2H41.17L39.63 4.99125C41.59 5.39404 43.4719 6.10845 45.2034 7.107ZM20.3434 7.69066C17.4834 9.51459 15.9434 11.0467 15.9434 11.0467H19.61L22.25 9.14981L20.3434 7.69066ZM39.0434 2.07296C36.1194 2.19535 33.2177 2.63571 30.39 3.38619L30.6834 5.35603C33.47 4.62646 35.9634 4.48054 38.1634 4.77237L39.0434 2.07296ZM55.3234 4.91829L46.7434 8.05545C47.1837 8.36485 47.6004 8.70625 47.99 9.07685H60.75C60.75 9.07685 59.2834 6.81518 55.3234 4.91829Z" fill="#AFB2BA"/>
</g>
</g>
<defs>
<clipPath id="clip0">
<rect width="64" height="24" rx="1" fill="white"/>
</clipPath>
<clipPath id="clip1">
<rect width="55" height="18.75" fill="white" transform="translate(5.75 2)"/>
</clipPath>
</defs>
</svg>
