<svg width="64" height="24" viewBox="0 0 64 24" fill="none" xmlns="http://www.w3.org/2000/svg">
<g clip-path="url(#clip0)">
<mask id="mask0" mask-type="alpha" maskUnits="userSpaceOnUse" x="7" y="-5" width="50" height="36">
<rect x="7" y="-5" width="50" height="36" fill="white"/>
</mask>
<g mask="url(#mask0)">
</g>
<g clip-path="url(#clip1)">
<path d="M31.5242 13.9867H32.2688V15.7981H32.8068L33.7722 13.9867H34.5863L33.4276 16.1126V16.1275L34.6553 18.4475H33.8138L32.8205 16.5012H32.283V18.4475H31.5379V13.9862H31.5242V13.9867ZM36.3242 15.1695C37.2202 15.1695 37.9516 15.873 37.9516 16.846C37.9516 17.8343 37.2344 18.5229 36.338 18.5229C35.4411 18.5229 34.7239 17.8343 34.7239 16.846C34.7102 15.8581 35.4274 15.1695 36.3242 15.1695ZM38.5307 15.2439H39.2342V17.7594H40.1585V15.2444H40.8615V17.7594H41.7858V15.2444H42.4893V18.4475H38.5582V15.2439H38.5307ZM44.5723 15.1695C45.4134 15.1695 45.8824 15.8432 45.8824 16.6817C45.8801 16.787 45.8709 16.8919 45.8549 16.9958H43.8272C43.8688 17.5495 44.2688 17.8492 44.7103 17.8492C45.0134 17.8492 45.3169 17.6993 45.5514 17.5048L45.8412 18.0739C45.5377 18.3577 45.0824 18.5378 44.655 18.5378C43.6755 18.5378 43.0689 17.7743 43.0689 16.8609C43.0689 15.8581 43.6892 15.1695 44.5723 15.1695ZM46.227 17.7742C46.5858 17.7142 46.8478 17.3853 46.8478 16.2471V15.2444H48.9998V18.4475H48.2685V15.8874H47.5513V16.2467C47.5513 17.6388 47.2066 18.4475 46.227 18.4773V17.7738V17.7742ZM51.0961 15.1695C51.9372 15.1695 52.4062 15.8432 52.4062 16.6817C52.4039 16.787 52.3947 16.8919 52.3788 16.9958H50.3511C50.3926 17.5495 50.7926 17.8492 51.2342 17.8492C51.5372 17.8492 51.8408 17.6993 52.0753 17.5048L52.3651 18.0739C52.0615 18.3577 51.6063 18.5378 51.1789 18.5378C50.1997 18.5378 49.5927 17.7743 49.5927 16.8609C49.5927 15.8581 50.2134 15.1695 51.0961 15.1695ZM53.0132 15.2439H53.7442V16.4719H54.103L54.8202 15.2444H55.6338L54.6959 16.7711V16.7864L55.744 18.4475H54.8892L54.1167 17.1456H53.7309V18.4475H52.9991V15.2439H53.0128H53.0132ZM36.3242 17.8343C36.8069 17.8343 37.2069 17.4299 37.2069 16.8311C37.2069 16.2471 36.8069 15.8279 36.3238 15.8279C35.8415 15.8279 35.4553 16.2327 35.4553 16.8311C35.4553 17.4299 35.8411 17.8343 36.3242 17.8343ZM45.1377 16.4421C45.1377 16.0228 44.8754 15.7683 44.5444 15.7683C44.1723 15.7683 43.8962 16.0377 43.8272 16.4421H45.1377ZM51.6616 16.4421C51.6616 16.0228 51.3996 15.7683 51.0687 15.7683C50.6957 15.7683 50.4201 16.0377 50.3511 16.4421H51.6616Z" fill="#2D3540"/>
<path d="M41.8274 4.27068V11.831C41.828 11.8586 41.8234 11.8861 41.8139 11.9118C41.8045 11.9375 41.7903 11.9609 41.7722 11.9804C41.7542 12 41.7327 12.0154 41.709 12.0257C41.6854 12.036 41.66 12.041 41.6345 12.0403H40.2138C40.1883 12.041 40.163 12.036 40.1393 12.0257C40.1157 12.0154 40.0942 12 40.0761 11.9804C40.0581 11.9609 40.0439 11.9375 40.0344 11.9118C40.0249 11.8861 40.0203 11.8586 40.0209 11.831V4.27068C40.0203 4.24301 40.0249 4.21549 40.0344 4.1898C40.0439 4.16411 40.0581 4.14077 40.0761 4.1212C40.0942 4.10163 40.1157 4.08623 40.1393 4.07593C40.163 4.06564 40.1883 4.06065 40.2138 4.06129H41.6345C41.66 4.06065 41.6854 4.06564 41.709 4.07593C41.7327 4.08623 41.7542 4.10163 41.7722 4.1212C41.7903 4.14077 41.8045 4.16411 41.8139 4.1898C41.8234 4.21549 41.828 4.24301 41.8274 4.27068ZM52.9169 4.06129C52.9721 4.06129 53.0412 4.09107 53.1098 4.1511C53.1513 4.19576 53.1513 4.27068 53.1376 4.3307L50.7927 11.9059C50.7784 11.9451 50.7538 11.9788 50.7219 12.0028C50.69 12.0268 50.6523 12.0401 50.6135 12.0408H49.3446C49.2618 12.0408 49.1928 11.9957 49.1654 11.9059L47.7991 7.48966L46.4337 11.9054C46.4195 11.9446 46.3949 11.9783 46.363 12.0024C46.3311 12.0264 46.2934 12.0396 46.2545 12.0403H44.9856C44.9029 12.0403 44.8339 11.9957 44.8064 11.9054L42.4615 4.33024C42.4478 4.27068 42.4478 4.21065 42.4889 4.1511C42.5168 4.09107 42.5858 4.06129 42.6407 4.06129H44.2268C44.3096 4.06129 44.3786 4.12085 44.4064 4.21065L45.6612 8.68689L47.0408 4.21065C47.055 4.17145 47.0796 4.13771 47.1115 4.1137C47.1434 4.08968 47.1811 4.07646 47.22 4.07572H48.3371C48.4199 4.07572 48.4889 4.12085 48.5163 4.21065L49.8959 8.68689L51.1511 4.21065C51.1623 4.16825 51.1858 4.13087 51.218 4.10399C51.2503 4.07712 51.2896 4.06215 51.3303 4.06129H52.9164H52.9169ZM55.3167 4.06129C55.4131 4.06129 55.4959 4.1511 55.5096 4.27068V11.831C55.5102 11.8586 55.5056 11.8861 55.4961 11.9118C55.4866 11.9375 55.4724 11.9609 55.4544 11.9804C55.4364 12 55.4149 12.0154 55.3912 12.0257C55.3675 12.036 55.3422 12.041 55.3167 12.0403H53.896C53.8705 12.041 53.8451 12.036 53.8215 12.0257C53.7978 12.0154 53.7763 12 53.7583 11.9804C53.7402 11.9609 53.7261 11.9375 53.7166 11.9118C53.7071 11.8861 53.7025 11.8586 53.7031 11.831V4.27068C53.7025 4.24301 53.7071 4.21549 53.7166 4.1898C53.7261 4.16411 53.7402 4.14077 53.7583 4.1212C53.7763 4.10163 53.7978 4.08623 53.8215 4.07593C53.8451 4.06564 53.8705 4.06065 53.896 4.06129H55.3167ZM39.1931 11.7714C39.2759 11.8761 39.2068 12.0255 39.0825 12.0255H37.3446C37.3104 12.0265 37.2764 12.0189 37.2453 12.0033C37.2142 11.9877 37.1869 11.9646 37.1654 11.9356L36.876 11.5467C36.269 11.9654 35.5514 12.2204 34.793 12.2204C32.6693 12.2204 30.9451 10.349 30.9451 8.04337C30.9451 5.73779 32.6693 3.86633 34.793 3.86633C36.9172 3.86633 38.6414 5.73779 38.6414 8.04337C38.6414 8.86696 38.4206 9.64542 38.0344 10.3038L39.1931 11.7709V11.7714ZM24.669 15.4389C25.0278 15.5888 25.1659 16.1722 25.1933 16.4268C25.2486 16.8911 25.1247 17.0708 24.9867 17.0708C24.8486 17.0708 24.6553 16.8911 24.4487 16.5319C24.2416 16.1723 24.1589 15.7684 24.2695 15.5585C24.3381 15.4236 24.4898 15.364 24.6694 15.4389H24.669ZM22.5727 17.1308C22.7935 17.1308 23.0417 17.2355 23.2625 17.4449C23.6899 17.8343 23.8142 18.2833 23.5934 18.6128C23.4691 18.7775 23.2625 18.8822 23.028 18.8822C22.7935 18.8822 22.5453 18.7924 22.3798 18.6277C21.9936 18.2684 21.8834 17.6691 22.1312 17.3402C22.228 17.2052 22.3798 17.1308 22.5727 17.1308ZM17.7456 21.4572C12.504 21.4572 8.2561 16.846 8.2561 11.1572C8.2561 5.46837 12.5044 0.857666 17.7452 0.857666C22.9864 0.857666 27.2347 5.46884 27.2347 11.1572C27.2347 13.0882 26.7383 14.9001 25.8972 16.4421C25.8694 16.4868 25.8003 16.4719 25.7866 16.4119C25.4557 13.882 24.035 12.4894 21.9661 12.0706C21.7865 12.0403 21.7591 11.9208 21.9936 11.891C22.628 11.831 23.5244 11.8458 23.9934 11.9356C24.0208 11.6811 24.035 11.4117 24.035 11.1423C24.035 7.3845 21.221 4.33024 17.7589 4.33024C14.2972 4.33024 11.4833 7.3845 11.4833 11.1423C11.4833 14.9001 14.2972 17.9544 17.7594 17.9544H18.0487C17.9504 17.3466 17.9088 16.7296 17.9244 16.1127C17.9385 15.6935 18.0213 15.6334 18.1868 15.9629C19.0557 17.5947 20.2972 19.0618 22.7245 19.6458C24.7106 20.125 26.6967 20.6787 28.8346 23.6278C29.0275 23.8824 28.7382 24.1518 28.5174 23.9424C26.3383 21.8462 24.3522 21.1575 22.5453 21.1575C20.5176 21.1729 19.1385 21.4572 17.7452 21.4572H17.7456ZM35.7447 10.0944L34.9859 9.09124C34.9036 8.98654 34.9726 8.82183 35.0965 8.82183H36.6964C36.7792 8.58219 36.8207 8.31278 36.8207 8.04337C36.8207 6.80101 35.9655 5.7229 34.793 5.7229C33.621 5.7229 32.7653 6.80101 32.7653 8.04337C32.7653 9.28574 33.621 10.349 34.793 10.349C35.124 10.3638 35.4554 10.2592 35.7447 10.0944Z" fill="#FF8C00"/>
</g>
</g>
<defs>
<clipPath id="clip0">
<rect width="64" height="24" rx="1" fill="white"/>
</clipPath>
<clipPath id="clip1">
<rect width="47.9167" height="23.625" fill="white" transform="translate(8.04175 0.625)"/>
</clipPath>
</defs>
</svg>
