<svg width="64" height="40" viewBox="0 0 64 40" fill="none" xmlns="http://www.w3.org/2000/svg">
<path d="M0 8C0 3.58172 3.58172 0 8 0H56C60.4183 0 64 3.58172 64 8V32C64 36.4183 60.4183 40 56 40H8C3.58172 40 0 36.4183 0 32V8Z" fill="white"/>
<mask id="mask0" mask-type="alpha" maskUnits="userSpaceOnUse" x="8" y="4" width="48" height="32">
<rect x="8" y="4" width="48" height="32" fill="white"/>
</mask>
<g mask="url(#mask0)">
<path d="M38.6989 23.6058C39.1639 23.8051 39.3633 24.4695 39.3633 24.8016C39.4297 25.3331 39.2968 25.5989 39.0975 25.5989C38.8982 25.5989 38.6324 25.3996 38.3667 24.9345C38.101 24.4695 37.9681 24.0044 38.101 23.7386C38.3003 23.6058 38.4996 23.5393 38.6989 23.6058Z" fill="#F28A1A"/>
<path d="M35.975 25.6647C36.2408 25.6647 36.573 25.7975 36.9052 26.0633C37.4367 26.5284 37.636 27.0598 37.3702 27.4585C37.2373 27.6578 36.9052 27.7906 36.6394 27.7906C36.3072 27.7906 35.975 27.6578 35.7757 27.4585C35.2442 26.9934 35.1114 26.329 35.4436 25.9304C35.51 25.7975 35.7093 25.6647 35.975 25.6647Z" fill="#F28A1A"/>
<path d="M29.6634 30.9138C22.754 30.9138 17.1733 25.3331 17.1733 18.4901C17.1733 11.6471 22.754 6 29.6634 6C36.5729 6 42.1536 11.5807 42.1536 18.4901C42.1536 20.8154 41.4892 23.0078 40.4262 24.868C40.3598 24.9345 40.2933 24.9345 40.2933 24.8016C39.8283 21.7455 37.968 20.0846 35.3106 19.5531C35.0448 19.4867 35.0448 19.3538 35.377 19.3538C36.2407 19.2873 37.3701 19.2873 38.0345 19.4202C38.1009 19.088 38.1009 18.7559 38.1009 18.4901C38.1009 13.9724 34.3805 10.252 29.8628 10.252C25.3451 10.252 21.6246 13.9724 21.6246 18.4901C21.6246 23.0078 25.3451 26.7283 29.8628 26.7283H30.2614C30.1285 25.9975 30.0621 25.2667 30.1285 24.4694C30.1285 23.9379 30.2614 23.8715 30.4607 24.2701C31.5901 26.2632 33.251 27.9906 36.44 28.7214C39.031 29.3193 41.6221 29.9837 44.4788 33.5048C44.7446 33.837 44.346 34.1692 44.0802 33.9034C41.2234 31.3788 38.6324 30.5152 36.2407 30.5152C33.251 30.5816 31.4572 30.9138 29.6634 30.9138Z" fill="#F28A1A"/>
</g>
</svg>
