<svg width="64" height="24" viewBox="0 0 64 24" fill="none" xmlns="http://www.w3.org/2000/svg">
<g clip-path="url(#clip0)">
<mask id="mask0" mask-type="alpha" maskUnits="userSpaceOnUse" x="0" y="-9" width="64" height="42">
<rect y="-9" width="64" height="42" fill="white"/>
</mask>
<g mask="url(#mask0)">
<path fill-rule="evenodd" clip-rule="evenodd" d="M42.0383 3.86598C42.0383 2.55966 43.0895 1.5 44.3839 1.5C45.6805 1.5 46.7309 2.55966 46.7309 3.86598C46.7309 5.17307 45.6805 6.23042 44.3839 6.23042C43.0895 6.23042 42.0383 5.17307 42.0383 3.86598ZM48.7823 3.43433L53.5397 2.576V20.9898H48.7823V3.43433ZM55.731 3.43433V20.9898H60.4914V2.576L55.731 3.43433ZM42.0056 7.52196V20.9901H46.7653V7.52196H42.0056ZM32.6889 13.4135C32.6889 9.45765 34.9232 7.46743 39.3207 7.32451C39.3207 7.32451 40.115 7.29377 40.5838 7.39443V11.3311C37.7962 11.4279 37.4882 12.443 37.4882 14.8105V20.9902H32.6889V13.4135ZM26.3837 7.56948L26.3836 7.56965C26.2132 8.02061 25.4377 10.073 23.6971 12.1951V2.576L18.785 3.55574V20.9898H23.6971V15.6C25.1196 17.7516 25.8224 20.9898 25.8224 20.9898H31.7049C31.1232 18.5508 28.578 14.0547 28.578 14.0547C30.8633 11.1332 31.8657 8.02182 32.0258 7.50621H26.4078C26.4019 7.52137 26.3939 7.54257 26.3837 7.56948ZM8.55321 8.03181C8.55321 9.29587 9.94665 9.38731 10.5481 9.4265C14.9594 9.72465 17.5885 11.9016 17.5885 15.2512C17.5885 18.2065 15.2376 21.1872 9.99315 21.1872C7.56149 21.1872 5.48657 20.946 3.64644 20.458V16.1564C4.87523 16.6658 6.89983 17.2007 8.98542 17.2007C10.8888 17.2007 12.0208 16.5659 12.0208 15.4871C12.0208 14.1855 10.648 14.1007 10.1216 14.0681L10.1159 14.0678C3.97269 13.6459 3.31104 9.98207 3.31104 8.42678C3.31104 5.72577 5.21215 2.576 10.5778 2.576C13.6902 2.576 15.368 3.06548 16.8132 3.57495L16.8856 3.59723V7.77516L16.8315 7.75979C16.2514 7.51236 15.57 7.26953 15.57 7.26953C14.3457 6.89992 12.6337 6.50649 11.3104 6.50649C10.558 6.50649 8.55321 6.50649 8.55321 8.03181Z" fill="#862165"/>
</g>
</g>
<defs>
<clipPath id="clip0">
<rect width="64" height="24" rx="1" fill="white"/>
</clipPath>
</defs>
</svg>
