<svg width="64" height="40" viewBox="0 0 64 40" fill="none" xmlns="http://www.w3.org/2000/svg">
<path d="M0 8C0 3.58172 3.58172 0 8 0H56C60.4183 0 64 3.58172 64 8V32C64 36.4183 60.4183 40 56 40H8C3.58172 40 0 36.4183 0 32V8Z" fill="white"/>
<mask id="mask0" mask-type="alpha" maskUnits="userSpaceOnUse" x="8" y="4" width="48" height="32">
<rect x="8" y="4" width="48" height="32" fill="white"/>
</mask>
<g mask="url(#mask0)">
<path fill-rule="evenodd" clip-rule="evenodd" d="M39.5287 13.8027C39.5287 12.8074 40.317 12 41.2878 12C42.2603 12 43.0481 12.8074 43.0481 13.8027C43.0481 14.7985 42.2603 15.6041 41.2878 15.6041C40.317 15.6041 39.5287 14.7985 39.5287 13.8027ZM44.5866 13.4738L48.1546 12.8198V26.8493H44.5866V13.4738ZM49.7981 13.4738V26.8493H53.3685V12.8198L49.7981 13.4738ZM39.5041 16.5882V26.8496H43.0738V16.5882H39.5041ZM32.5166 21.077C32.5166 18.063 34.1922 16.5466 37.4904 16.4377C37.4904 16.4377 38.0861 16.4143 38.4377 16.491V19.4903C36.347 19.5641 36.116 20.3375 36.116 22.1413V26.8497H32.5166V21.077ZM27.7877 16.6242L27.7876 16.6245C27.6598 16.9681 27.0781 18.5318 25.7727 20.1487V12.8198L22.0887 13.5663V26.8493H25.7727V22.7429C26.8396 24.3822 27.3667 26.8493 27.3667 26.8493H31.7785C31.3423 24.9911 29.4334 21.5655 29.4334 21.5655C31.1474 19.3396 31.8992 16.969 32.0192 16.5762H27.8057C27.8013 16.5877 27.7953 16.6038 27.7877 16.6242ZM14.4148 16.9766C14.4148 17.9397 15.4599 18.0094 15.9109 18.0392C19.2194 18.2664 21.1912 19.925 21.1912 22.4771C21.1912 24.7288 19.4281 26.9998 15.4947 26.9998C13.671 26.9998 12.1148 26.816 10.7347 26.4442V23.1667C11.6563 23.5549 13.1748 23.9624 14.7389 23.9624C16.1665 23.9624 17.0155 23.4788 17.0155 22.6568C17.0155 21.6651 15.9859 21.6005 15.5911 21.5757L15.5868 21.5754C10.9794 21.254 10.4832 18.4625 10.4832 17.2775C10.4832 15.2196 11.909 12.8198 15.9332 12.8198C18.2675 12.8198 19.5258 13.1927 20.6098 13.5809L20.6641 13.5979V16.7811L20.6235 16.7694C20.1885 16.5808 19.6773 16.3958 19.6773 16.3958C18.7592 16.1142 17.4751 15.8145 16.4826 15.8145C15.9184 15.8145 14.4148 15.8145 14.4148 16.9766Z" fill="#862165"/>
</g>
</svg>
