<svg width="64" height="24" viewBox="0 0 64 24" fill="none" xmlns="http://www.w3.org/2000/svg">
<g clip-path="url(#clip0)">
<mask id="mask0" mask-type="alpha" maskUnits="userSpaceOnUse" x="-3" y="-11" width="69" height="46">
<rect x="-3" y="-11" width="69" height="46" fill="white"/>
</mask>
<g mask="url(#mask0)">
</g>
<g clip-path="url(#clip1)">
<path fill-rule="evenodd" clip-rule="evenodd" d="M39.4398 12.8422C39.4398 13.5437 39.4398 14.2462 39.4398 14.9488C39.4374 15.2348 39.3759 15.5173 39.2591 15.7794C39.1565 16.0375 38.9775 16.2599 38.7452 16.4181C38.5128 16.5763 38.2375 16.6633 37.9544 16.6679C37.9104 16.6679 37.8663 16.6679 37.8234 16.6679C36.8096 16.6679 35.7946 16.6679 34.7807 16.6679C34.586 16.668 34.3918 16.6483 34.2013 16.6089C33.5582 16.4673 33.1736 16.0616 33.0241 15.4452C32.9732 15.2384 32.9464 15.0266 32.9441 14.814C32.9372 13.4813 32.9441 12.1487 32.9441 10.8161C32.9449 10.7058 32.962 10.5962 32.9951 10.4908C33.019 10.3909 33.0792 10.3029 33.1644 10.2431C33.2497 10.1833 33.3542 10.1558 33.4586 10.1656C33.7378 10.1656 34.0159 10.1656 34.294 10.1656C34.5721 10.1656 34.8433 10.1599 35.1167 10.1656C35.221 10.1671 35.3244 10.1855 35.4226 10.22C35.5266 10.2547 35.6162 10.3219 35.6775 10.4111C35.7388 10.5003 35.7685 10.6067 35.7621 10.7141C35.7621 11.7181 35.7621 12.7228 35.7621 13.7284C35.7603 13.8387 35.7708 13.9489 35.7934 14.057C35.8078 14.1529 35.8568 14.2406 35.9317 14.3042C36.0065 14.3679 36.1021 14.4032 36.2013 14.4037C36.3079 14.4206 36.4172 14.3995 36.5094 14.3445C36.6016 14.2894 36.6707 14.2039 36.7041 14.1035C36.7371 14.0024 36.7535 13.8968 36.7528 13.7907C36.7528 12.7901 36.7528 11.7895 36.7528 10.79C36.7519 10.6796 36.7605 10.5693 36.7783 10.4602C36.7866 10.385 36.8219 10.315 36.8779 10.2628C36.9339 10.2105 37.0069 10.1793 37.0842 10.1747C37.1403 10.1675 37.1968 10.1637 37.2534 10.1633H38.8072C38.8848 10.1636 38.9624 10.17 39.0389 10.1826C39.1462 10.1959 39.2453 10.2454 39.3191 10.3226C39.3929 10.3998 39.4369 10.4998 39.4433 10.6053C39.4491 10.6644 39.4515 10.7238 39.4503 10.7832C39.4503 11.4684 39.4503 12.154 39.4503 12.8399L39.4398 12.8422Z" fill="#13110C"/>
<path fill-rule="evenodd" clip-rule="evenodd" d="M22.9595 7.82901H26.2885C26.3927 7.8284 26.4966 7.83751 26.599 7.8562C26.6329 7.85932 26.6658 7.86897 26.6958 7.88458C26.7258 7.9002 26.7523 7.92148 26.7739 7.94719C26.7954 7.9729 26.8115 8.00253 26.8213 8.03438C26.8311 8.06622 26.8343 8.09964 26.8308 8.1327C26.8308 8.27775 26.8308 8.4228 26.8308 8.56672C26.8308 8.92934 26.8308 9.29083 26.8308 9.65232C26.8308 9.88576 26.7717 9.95261 26.533 9.95715C26.212 9.96508 25.8899 9.95715 25.5678 9.95715H24.679C24.4531 9.96281 24.4079 10.0081 24.4068 10.2325V16.1308C24.4066 16.2031 24.4023 16.2754 24.394 16.3472C24.3904 16.4054 24.3678 16.461 24.3297 16.5058C24.2916 16.5506 24.2398 16.5824 24.182 16.5965C24.095 16.6221 24.005 16.6365 23.9143 16.6396C23.5783 16.6464 23.2434 16.6453 22.9085 16.6453C22.5435 16.6453 22.1774 16.6453 21.8124 16.6453C21.7299 16.6435 21.6479 16.6324 21.5679 16.6124C21.5202 16.6027 21.4768 16.5785 21.4439 16.5433C21.4111 16.5081 21.3904 16.4637 21.3848 16.4164C21.3739 16.3451 21.3681 16.2731 21.3675 16.2011V10.3152C21.3675 10.2563 21.3675 10.1963 21.3617 10.1362C21.3628 10.1158 21.3597 10.0954 21.3526 10.0763C21.3455 10.0571 21.3346 10.0395 21.3204 10.0245C21.3063 10.0095 21.2892 9.9974 21.2702 9.98895C21.2512 9.9805 21.2307 9.97586 21.2099 9.97528C21.1544 9.96606 21.0981 9.96189 21.0419 9.96281H19.4915C19.4175 9.96438 19.3435 9.96021 19.2702 9.95035C19.2194 9.94688 19.1718 9.92451 19.1374 9.88784C19.1029 9.85117 19.0841 9.80298 19.0848 9.75317C19.0796 9.70234 19.0773 9.65127 19.0778 9.60019C19.0778 9.14691 19.0778 8.69137 19.0778 8.23356C19.0778 7.94006 19.1694 7.84714 19.473 7.83354C19.5332 7.83354 19.5946 7.83354 19.656 7.83354L22.9595 7.82901Z" fill="#13110C"/>
<path fill-rule="evenodd" clip-rule="evenodd" d="M59.5956 13.0599L60.0197 12.031C60.2051 11.5777 60.3897 11.1278 60.5736 10.6813C60.6345 10.5206 60.739 10.3792 60.876 10.2723C60.9687 10.1995 61.0839 10.1596 61.2027 10.1589C61.7033 10.1589 62.2039 10.1589 62.7091 10.1589C62.8 10.1599 62.8903 10.1725 62.9779 10.1963C63.0053 10.2007 63.0313 10.2111 63.0541 10.2265C63.0768 10.242 63.0958 10.2623 63.1096 10.2858C63.1233 10.3094 63.1316 10.3357 63.1336 10.3627C63.1357 10.3898 63.1316 10.4169 63.1216 10.4422C63.1069 10.4997 63.0872 10.5558 63.0625 10.6099C61.9154 13.248 60.7682 15.8857 59.6211 18.523C59.5648 18.6619 59.4801 18.788 59.372 18.8936C59.3168 18.9481 59.2508 18.9911 59.1781 19.0199C59.1054 19.0487 59.0275 19.0628 58.9491 19.0613C58.5145 19.0613 58.0789 19.0613 57.6444 19.0613C57.5668 19.0609 57.4893 19.0548 57.4126 19.0432C57.2156 19.0126 57.1507 18.9117 57.2075 18.7281C57.2251 18.6753 57.2456 18.6235 57.2689 18.5729C57.5517 17.9141 57.8355 17.2561 58.1206 16.5989C58.1369 16.5648 58.1454 16.5277 58.1454 16.4901C58.1454 16.4525 58.1369 16.4153 58.1206 16.3813C57.3327 14.4775 56.5455 12.5734 55.7591 10.6689C55.7342 10.6145 55.7133 10.5585 55.6966 10.5012C55.6824 10.4671 55.6766 10.4302 55.6798 10.3936C55.683 10.357 55.6951 10.3216 55.715 10.2904C55.7349 10.2592 55.7621 10.2331 55.7943 10.2141C55.8266 10.1952 55.863 10.1841 55.9005 10.1816C55.9769 10.1677 56.0545 10.1605 56.1322 10.1601C56.7718 10.1601 57.4126 10.1601 58.0522 10.1601C58.1349 10.1589 58.217 10.1744 58.2934 10.2056C58.3697 10.2368 58.4387 10.283 58.496 10.3414C58.5975 10.4417 58.6733 10.564 58.7173 10.6983C58.9846 11.444 59.255 12.1896 59.5284 12.9353C59.5435 12.9783 59.5609 13.0202 59.5782 13.0622L59.5956 13.0599Z" fill="#13110C"/>
<path fill-rule="evenodd" clip-rule="evenodd" d="M43.3573 16.8278C42.527 16.8253 41.6998 16.7303 40.8916 16.5445C40.807 16.5241 40.7259 16.4923 40.6413 16.4719C40.6053 16.4639 40.5728 16.445 40.5482 16.418C40.5237 16.391 40.5085 16.3571 40.5046 16.3212C40.4516 16.0536 40.429 15.7811 40.4374 15.5087C40.4374 15.3523 40.464 15.1948 40.4802 15.0384C40.485 15.0049 40.4932 14.9719 40.5046 14.9399C40.5625 14.7483 40.6077 14.7212 40.8058 14.7733C41.4224 14.9268 42.0592 14.9879 42.6945 14.9546C42.8072 14.9488 42.9189 14.9321 43.0282 14.9047C43.0915 14.8891 43.1508 14.8605 43.202 14.8209C43.2284 14.8034 43.2502 14.7802 43.2657 14.753C43.2812 14.7258 43.2899 14.6954 43.2912 14.6642C43.2924 14.6331 43.2861 14.6022 43.2729 14.5739C43.2596 14.5455 43.2397 14.5207 43.2148 14.5013C43.1422 14.4404 43.0615 14.3893 42.9749 14.3495C42.8197 14.2747 42.6563 14.2135 42.4999 14.1398C42.2333 14.0163 41.9634 13.8962 41.705 13.7591C41.4296 13.6184 41.1886 13.4212 40.9982 13.1811C40.7829 12.9219 40.643 12.6107 40.5932 12.2802C40.5435 11.9498 40.5857 11.6124 40.7154 11.3034C40.8453 10.9981 41.0677 10.7391 41.3527 10.5612C41.7295 10.3145 42.1524 10.1431 42.5972 10.0569C43.1261 9.94852 43.6667 9.90475 44.2066 9.92661C44.611 9.92575 45.0147 9.96027 45.4128 10.0297C45.5067 10.049 45.5971 10.0819 45.6898 10.1034C45.7313 10.1095 45.7691 10.1303 45.796 10.1618C45.8229 10.1933 45.8371 10.2334 45.8358 10.2745C45.845 10.4311 45.845 10.5881 45.8358 10.7448C45.8152 10.9696 45.7637 11.1906 45.6828 11.402C45.6712 11.4341 45.6577 11.4655 45.6423 11.4961C45.5403 11.7103 45.4847 11.7375 45.2471 11.708C44.8845 11.6638 44.5218 11.6219 44.1591 11.5856C44.0461 11.5771 43.9326 11.5771 43.8196 11.5856C43.7504 11.5911 43.682 11.604 43.6157 11.6241C43.5706 11.6339 43.5296 11.6566 43.4978 11.6893C43.466 11.722 43.4449 11.7632 43.4372 11.8077C43.421 11.9052 43.4871 11.9584 43.5531 12.0026C43.669 12.0717 43.7849 12.1375 43.9007 12.1975C44.1684 12.329 44.4418 12.4491 44.7118 12.5862C45.0339 12.748 45.3283 12.9579 45.5843 13.2083C45.8068 13.4203 45.9778 13.6784 46.0849 13.9635C46.192 14.2486 46.2324 14.5536 46.2031 14.856C46.1913 15.0425 46.1603 15.2274 46.1104 15.4079C46.0461 15.6298 45.9358 15.8364 45.7863 16.0148C45.6367 16.1932 45.4513 16.3395 45.2414 16.4447C44.9023 16.6204 44.5316 16.73 44.1499 16.7677C43.8393 16.8085 43.5218 16.8164 43.3573 16.8278Z" fill="#13110C"/>
<path fill-rule="evenodd" clip-rule="evenodd" d="M47.5126 11.9255H47.2148C47.1494 11.9266 47.0841 11.9244 47.019 11.9187C46.9662 11.9151 46.9159 11.8959 46.8746 11.8637C46.8332 11.8316 46.8027 11.7879 46.7872 11.7385C46.764 11.6744 46.7514 11.6071 46.7501 11.5391C46.7501 11.2161 46.7501 10.892 46.7501 10.5691C46.749 10.5521 46.749 10.5351 46.7501 10.5181C46.7485 10.473 46.7564 10.4281 46.7733 10.3861C46.7902 10.3442 46.8157 10.3061 46.8483 10.2742C46.881 10.2423 46.9199 10.2173 46.9628 10.2008C47.0057 10.1843 47.0517 10.1765 47.0977 10.1781C47.2287 10.1713 47.3596 10.1781 47.4894 10.1781H47.6447C47.6447 10.1283 47.6516 10.0863 47.6516 10.0455C47.6516 9.81891 47.6516 9.59227 47.6516 9.36563C47.6456 9.27784 47.667 9.19034 47.713 9.11468C47.7589 9.03901 47.8272 8.97874 47.9088 8.94182C48.0039 8.88908 48.1067 8.85087 48.2136 8.8285C48.7269 8.74124 49.2425 8.66079 49.7581 8.5826C49.8266 8.57354 49.896 8.57354 49.9644 8.5826C50.0109 8.58614 50.0545 8.60618 50.0869 8.63895C50.1193 8.67172 50.1384 8.71495 50.1405 8.76051C50.1525 8.8488 50.1587 8.93774 50.1591 9.02681C50.1591 9.37243 50.1591 9.71692 50.1591 10.0614C50.1591 10.0909 50.1591 10.1203 50.166 10.1611C50.2054 10.1611 50.2425 10.1691 50.2819 10.1691C50.4951 10.1691 50.7083 10.1691 50.9215 10.1691C51.0001 10.1619 51.0786 10.1829 51.1426 10.2281C51.2065 10.2733 51.2515 10.3397 51.2691 10.415C51.3002 10.5122 51.317 10.6134 51.3189 10.7153C51.3259 11.0042 51.3189 11.2932 51.3189 11.5833C51.3189 11.6082 51.3189 11.6343 51.3189 11.6592C51.305 11.8723 51.2274 11.9482 51.0095 11.9527C50.7917 11.9572 50.5739 11.9527 50.356 11.9527C50.3224 11.9527 50.2888 11.9527 50.2483 11.9595C50.2483 12.0082 50.2425 12.049 50.2425 12.091C50.2425 12.8955 50.2425 13.7001 50.2425 14.5047C50.2425 14.746 50.3259 14.8446 50.5716 14.8786C50.6535 14.8877 50.736 14.89 50.8184 14.8854C50.9122 14.8854 50.9342 14.8854 50.9644 14.9738C51.0048 15.0945 51.0377 15.2175 51.0629 15.3421C51.1296 15.6679 51.1641 15.9991 51.166 16.3314C51.166 16.3744 51.166 16.4164 51.166 16.4594C51.1686 16.4773 51.1675 16.4956 51.1627 16.513C51.1579 16.5305 51.1496 16.5469 51.1383 16.5611C51.1269 16.5754 51.1128 16.5873 51.0966 16.5961C51.0805 16.6049 51.0627 16.6105 51.0443 16.6124C50.8184 16.6577 50.5959 16.7178 50.3688 16.7507C49.9823 16.8156 49.5884 16.8274 49.1985 16.7858C48.761 16.7509 48.3483 16.5728 48.027 16.2804C47.7404 16.0068 47.5651 15.6408 47.5334 15.2503C47.5114 15.0305 47.5103 14.8084 47.5103 14.5874C47.5103 13.7284 47.5103 12.8683 47.5103 12.0082C47.5172 11.9958 47.5149 11.9708 47.5126 11.9255Z" fill="#13110C"/>
<path fill-rule="evenodd" clip-rule="evenodd" d="M52.3142 12.1917V8.1564C52.3142 8.10541 52.3142 8.05328 52.3142 8.00342C52.3171 7.92582 52.3493 7.85202 52.4045 7.79618C52.4596 7.74034 52.534 7.70639 52.6132 7.70086C52.6609 7.69612 52.7089 7.69423 52.7568 7.69519C53.3095 7.69519 53.8622 7.69519 54.415 7.69519C54.528 7.69383 54.641 7.70332 54.7521 7.72352C54.7884 7.72567 54.8239 7.73486 54.8566 7.75054C54.8892 7.76622 54.9183 7.78808 54.9423 7.81486C54.9662 7.84163 54.9845 7.87279 54.996 7.90652C55.0075 7.94025 55.0121 7.97589 55.0094 8.01135C55.0094 8.05781 55.0094 8.10428 55.0094 8.15074V16.1466C55.0136 16.216 55.0136 16.2856 55.0094 16.3551C55.0088 16.4309 54.9784 16.5036 54.9245 16.558C54.8705 16.6125 54.7972 16.6445 54.7197 16.6474C54.6631 16.6535 54.6063 16.6561 54.5494 16.6554C53.9573 16.6554 53.3652 16.6554 52.7742 16.6554C52.687 16.6559 52.5999 16.6503 52.5135 16.6384C52.4673 16.634 52.4241 16.6139 52.3915 16.5816C52.3589 16.5493 52.3389 16.5068 52.3351 16.4616C52.326 16.4072 52.321 16.3523 52.32 16.2973C52.32 15.4927 52.32 14.6881 52.32 13.8836L52.3142 12.1917Z" fill="#13110C"/>
<path fill-rule="evenodd" clip-rule="evenodd" d="M27.2732 13.734C27.2732 13.0405 27.2732 12.3458 27.2732 11.6523C27.2738 11.4951 27.2877 11.3381 27.3149 11.1832C27.3438 11.0013 27.4204 10.8298 27.5371 10.6854C27.6539 10.5411 27.8069 10.4287 27.9812 10.3593C28.2203 10.255 28.4774 10.1954 28.739 10.1837C29.0425 10.1678 29.3473 10.1633 29.652 10.161C30.3693 10.161 31.0877 10.161 31.8061 10.161H31.8582C32.0633 10.161 32.1212 10.2199 32.1212 10.4205V11.7226C32.123 11.7524 32.123 11.7823 32.1212 11.8121C32.1197 11.8684 32.0967 11.922 32.0569 11.9627C32.017 12.0033 31.9631 12.028 31.9057 12.0319C31.8061 12.0444 31.7053 12.0387 31.6056 12.0466C31.3855 12.0625 31.1641 12.0784 30.944 12.101C30.7626 12.1266 30.5883 12.1879 30.4318 12.2812C30.2997 12.3487 30.1886 12.4495 30.1099 12.5733C30.0312 12.6971 29.988 12.8392 29.9846 12.9849C29.9846 13.0563 29.9846 13.1288 29.9846 13.2014C29.9846 14.1638 29.9846 15.1255 29.9846 16.0865C29.985 16.1757 29.9773 16.2649 29.9614 16.3528C29.9531 16.4345 29.9139 16.5103 29.8516 16.5654C29.7893 16.6205 29.7082 16.6509 29.6242 16.6508C29.5937 16.6525 29.5632 16.6525 29.5327 16.6508C28.98 16.6508 28.4273 16.6508 27.8746 16.6508C27.7964 16.6504 27.7186 16.6409 27.6428 16.6225C27.5518 16.6043 27.4691 16.5582 27.4066 16.491C27.3441 16.4238 27.3051 16.3389 27.2952 16.2485C27.2815 16.1646 27.2753 16.0797 27.2767 15.9947C27.2744 15.2407 27.2732 14.4872 27.2732 13.734Z" fill="#13110C"/>
<path fill-rule="evenodd" clip-rule="evenodd" d="M13.9927 7.83344C14.0703 7.83344 14.126 7.84251 14.1816 7.84251C14.8386 7.84251 15.4967 7.84251 16.1514 7.84251C16.387 7.84153 16.6197 7.89348 16.8315 7.99436C17.2382 8.1938 17.3808 8.51789 17.295 8.93717C17.1513 9.61709 16.9891 10.2902 16.8315 10.9656C16.5534 12.1864 16.2757 13.4061 15.9984 14.6247C15.9196 14.9646 15.842 15.3137 15.7609 15.657C15.7297 15.8274 15.6608 15.9891 15.5589 16.1306C15.457 16.2721 15.3246 16.3901 15.1711 16.4763C14.9732 16.5761 14.7541 16.6289 14.5315 16.6304C14.4017 16.6361 14.2708 16.6304 14.1399 16.6304H4.1344C3.85836 16.64 3.58603 16.566 3.35459 16.4185C3.11111 16.2552 2.94136 16.0064 2.88068 15.7239C2.77292 15.2819 2.67211 14.8377 2.5713 14.3935C2.19665 12.7594 1.82278 11.1254 1.44967 9.49131C1.40796 9.30886 1.35814 9.12755 1.3338 8.94284C1.31354 8.80872 1.31354 8.67241 1.3338 8.53829C1.35416 8.43074 1.39955 8.32922 1.46646 8.24158C1.53336 8.15394 1.62 8.08253 1.71965 8.03289C1.95171 7.90454 2.21434 7.83847 2.48092 7.84138C3.13444 7.84138 3.78679 7.84138 4.4403 7.84138C4.63497 7.84138 4.63497 7.84138 4.63612 7.65213V6.50421C4.63405 5.8612 4.77114 5.22505 5.03841 4.63757C5.30567 4.05009 5.69705 3.52458 6.18682 3.09558C6.67658 2.66659 7.25364 2.34383 7.88006 2.14852C8.50647 1.9532 9.16807 1.88976 9.82135 1.96237C10.7063 2.04661 11.546 2.38489 12.2349 2.93465C13.0811 3.58731 13.6663 4.50968 13.8884 5.54099C13.9583 5.84831 13.9937 6.16218 13.9939 6.47701C13.9939 6.8725 13.9939 7.27025 13.9939 7.6646L13.9927 7.83344ZM9.31036 7.84251H12.1388C12.1782 7.84251 12.2176 7.84251 12.2546 7.84251C12.3392 7.84251 12.352 7.82664 12.3601 7.74506C12.3601 7.71106 12.3601 7.67706 12.3601 7.64307C12.3601 7.24758 12.3659 6.84983 12.3601 6.45661C12.3592 6.25697 12.3426 6.05768 12.3103 5.86055C12.194 5.16384 11.8189 4.53358 11.257 4.09051C10.9398 3.82724 10.5696 3.63201 10.1705 3.51743C9.77126 3.40284 9.35193 3.37147 8.93957 3.42532C8.4972 3.47209 8.07218 3.61957 7.69859 3.85593C6.77162 4.44746 6.29192 5.29169 6.26411 6.37389C6.25252 6.80337 6.26411 7.23398 6.26411 7.66347C6.26411 7.84364 6.26411 7.84364 6.45414 7.84364L9.31036 7.84251ZM9.30225 9.68508C8.70203 9.68508 8.10066 9.68508 7.50045 9.68508C7.3 9.68508 7.23511 9.75081 7.23395 9.94685C7.23279 10.1429 7.23395 10.3559 7.23395 10.5599C7.23395 10.8103 7.27219 10.8489 7.5271 10.85H8.22233C8.44017 10.85 8.44132 10.85 8.44132 11.0608V13.9856C8.43998 14.045 8.44269 14.1044 8.44944 14.1635C8.46913 14.304 8.51317 14.3516 8.66148 14.355C9.02647 14.3629 9.39147 14.364 9.75762 14.3652C9.80543 14.3655 9.85315 14.3614 9.90014 14.3527C9.94635 14.3498 9.99004 14.331 10.0235 14.2997C10.057 14.2684 10.0781 14.2266 10.0832 14.1816C10.0923 14.1227 10.0962 14.0632 10.0948 14.0037C10.0948 13.0125 10.0948 12.0206 10.0948 11.0279C10.0948 10.8545 10.0948 10.8511 10.2802 10.85C10.5455 10.85 10.8109 10.85 11.0762 10.85C11.1369 10.8481 11.1973 10.8417 11.257 10.8307C11.2834 10.827 11.3077 10.8148 11.3264 10.7962C11.345 10.7776 11.3568 10.7535 11.3601 10.7276C11.367 10.6902 11.3708 10.6523 11.3717 10.6143C11.3717 10.3877 11.3717 10.1712 11.3717 9.95025C11.3717 9.75081 11.308 9.68961 11.1075 9.68508H9.29645H9.30225Z" fill="#73B72B"/>
<path fill-rule="evenodd" clip-rule="evenodd" d="M10.6309 18.8049C10.6135 17.8644 11.442 17.0133 12.4848 17.0235C12.8493 17.026 13.2047 17.1342 13.5062 17.3344C13.8078 17.5346 14.0417 17.8179 14.1785 18.1482C14.3153 18.4786 14.3488 18.8412 14.2747 19.1902C14.2006 19.5391 14.0223 19.8588 13.7623 20.1086C13.5024 20.3583 13.1725 20.5271 12.8144 20.5934C12.4563 20.6596 12.0861 20.6205 11.7508 20.4809C11.4155 20.3413 11.1301 20.1075 10.9307 19.8092C10.7313 19.5108 10.627 19.1613 10.6309 18.8049Z" fill="#73B72B"/>
<path fill-rule="evenodd" clip-rule="evenodd" d="M7.98304 18.822C7.98281 19.1779 7.87453 19.5257 7.67194 19.8213C7.46936 20.117 7.18158 20.3471 6.84509 20.4827C6.50859 20.6182 6.13854 20.6529 5.78182 20.5825C5.4251 20.5121 5.09779 20.3398 4.84136 20.0872C4.58494 19.8347 4.41095 19.5134 4.34144 19.1641C4.27194 18.8147 4.31006 18.453 4.45097 18.1249C4.59187 17.7968 4.82922 17.517 5.13292 17.3209C5.43663 17.1248 5.79302 17.0214 6.15692 17.0236C6.64221 17.0275 7.10632 17.2186 7.44829 17.5554C7.79027 17.8921 7.98245 18.3473 7.98304 18.822Z" fill="#73B72B"/>
</g>
</g>
<defs>
<clipPath id="clip0">
<rect width="64" height="24" rx="1" fill="white"/>
</clipPath>
<clipPath id="clip1">
<rect width="61.8125" height="18.6875" fill="white" transform="translate(1.3125 1.9375)"/>
</clipPath>
</defs>
</svg>
