<svg width="64" height="40" viewBox="0 0 282 108" fill="none" xmlns="http://www.w3.org/2000/svg">
<rect x="0" y="-40" width="282" height="190" rx="50" fill="white"/>
<g clip-path="url(#clip0_2622_492)">
<mask id="mask0_2622_492" style="mask-type:luminance" maskUnits="userSpaceOnUse" x="20" y="20" width="242" height="67">
<path d="M261.584 20.8889H20.8889V86.3843H261.584V20.8889Z" fill="white"/>
</mask>
<g mask="url(#mask0_2622_492)">
<path d="M26.6122 70.8086C24.5557 64.2591 23.0581 57.9183 22.132 51.7986C21.2018 45.6666 20.8431 39.6942 21.0433 33.8856H29.7701C29.6199 38.8101 29.7701 43.7386 30.2206 48.6876C30.6711 53.6366 31.4261 58.3932 32.4774 62.9819C35.435 58.2049 38.1548 53.3746 40.6452 48.4665C43.1272 43.5667 45.3172 38.7118 47.232 33.8856H55.9587C56.2591 39.3995 56.7513 44.4877 57.4313 49.1297C58.1071 53.7839 58.9205 58.5242 59.8716 63.3503C63.4841 58.1312 66.425 53.1822 68.7152 48.5075C70.997 43.8286 72.8366 38.9574 74.2424 33.8856H82.819C81.6135 38.4621 80.095 42.7234 78.2637 46.6613C76.4325 50.5992 74.2758 54.5044 71.7937 58.3686C69.3117 62.2328 66.4584 66.3754 63.2589 70.8168H54.0023C53.1013 66.4859 52.2795 62.1755 51.562 57.8938C50.8361 53.612 50.2646 49.3016 49.8725 44.9707C47.9661 49.3016 45.8429 53.6366 43.511 57.9674C41.1791 62.2983 38.6303 66.5842 35.8771 70.8168H26.6289L26.6122 70.8086Z" fill="#001E37"/>
<path d="M100.569 72.139C96.6058 72.139 93.1684 71.1771 90.2609 69.2613C87.3534 67.3415 85.2718 64.6725 84.0162 61.2545C82.7606 57.8324 82.6104 53.9354 83.5657 49.5554C84.2665 46.3052 85.714 43.4029 87.8957 40.8404C90.0774 38.282 92.8097 36.2639 96.0968 34.7862C99.384 33.3084 103.026 32.5716 107.039 32.5716C111.602 32.5716 115.473 33.5254 118.669 35.4125C121.856 37.3078 124.121 39.9808 125.481 43.4193C126.837 46.866 126.987 50.9758 125.931 55.7529L122.694 70.8168H114.718L116.074 64.6152C114.318 67.0754 112.061 68.9461 109.304 70.2274C106.546 71.5086 103.635 72.1472 100.577 72.1472H100.569V72.139ZM102.825 65.0491C106.538 65.0491 109.721 64.0299 112.382 61.9872C115.04 59.9446 116.771 57.202 117.576 53.7512C118.227 50.9963 118.185 48.5566 117.467 46.4403C116.742 44.324 115.461 42.6661 113.63 41.4503C111.798 40.2428 109.5 39.6369 106.751 39.6369C103.088 39.6369 99.9138 40.6644 97.2357 42.707C94.5534 44.7497 92.8055 47.5005 92.0004 50.9431C91.3997 53.6489 91.4498 56.0722 92.1506 58.2131C92.8514 60.3539 94.1321 62.0282 95.9884 63.2357C97.8447 64.4433 100.127 65.0491 102.834 65.0491H102.825Z" fill="#001E37"/>
<path d="M127.779 86.1673C126.123 86.1673 124.167 85.9463 121.91 85.5042L123.266 78.6353C124.267 78.8318 125.156 78.9546 125.931 79.0037C126.707 79.0529 127.421 79.0774 128.08 79.0774C129.435 79.0774 130.695 78.9382 131.876 78.6681C133.056 78.3979 134.266 77.8821 135.53 77.1167C136.786 76.3553 138.212 75.205 139.818 73.6863C137.912 68.4181 136.431 63.6041 135.38 59.2528C134.329 54.8974 133.582 50.677 133.156 46.5835C132.731 42.4983 132.522 38.2656 132.522 33.8815H141.629C141.529 37.9177 141.612 41.7246 141.887 45.2859C142.163 48.8554 142.647 52.3758 143.36 55.847C144.061 59.3183 145.041 62.9778 146.293 66.8175C148.8 63.7638 151.165 60.4276 153.409 56.809C155.641 53.1904 157.606 49.4408 159.312 45.552C161.018 41.6632 162.369 37.7744 163.375 33.8856H172.327C170.921 39.203 168.923 44.3976 166.341 49.4653C163.759 54.5371 160.914 59.3019 157.806 63.7515C154.694 68.2052 151.586 72.1759 148.474 75.6799C145.917 78.4839 143.585 80.6534 141.479 82.1803C139.372 83.7071 137.232 84.7469 135.042 85.3241C132.86 85.8889 130.445 86.1755 127.784 86.1755V86.1673H127.779Z" fill="#001E37"/>
<path d="M170.813 70.8086L181.646 20.8889H190.223L179.389 70.8086H170.813Z" fill="#001E37"/>
<path d="M210.617 72.139C205.903 72.139 201.915 71.2057 198.653 69.335C195.391 67.4643 193.059 64.9059 191.658 61.6557C190.256 58.4055 189.976 54.6886 190.832 50.5051C191.582 46.8619 193.138 43.7018 195.495 41.0123C197.852 38.3311 200.814 36.2517 204.372 34.778C207.935 33.3003 211.873 32.5634 216.186 32.5634C219.748 32.5634 222.739 33.0956 225.176 34.1476C227.608 35.2078 229.364 36.6815 230.444 38.5767C231.52 40.472 231.792 42.6784 231.237 45.1836C229.531 53.0103 220.149 56.9236 203.096 56.9236C201.54 56.9236 200.184 56.8991 199.033 56.8499C199.433 59.5066 200.664 61.537 202.72 62.9369C204.777 64.341 207.559 65.0369 211.072 65.0369C215.035 65.0369 219.173 64.0503 223.486 62.0814L225.968 68.5818C221.304 70.9437 216.186 72.1267 210.617 72.1267V72.1431V72.139ZM203.542 50.5747C209.411 50.5747 214.008 50.0343 217.354 48.9496C220.691 47.8648 222.581 46.3175 223.031 44.2953C223.382 42.7684 222.906 41.5977 221.601 40.7913C220.295 39.9808 218.313 39.5674 215.656 39.5674C211.493 39.5674 207.947 40.5539 205.006 42.5228C202.074 44.4918 200.201 47.1771 199.396 50.5706H203.542V50.5747Z" fill="#001E37"/>
<path d="M248.461 71.6191C243.597 71.6191 240.018 70.2888 237.736 67.6321C235.454 64.9714 234.808 61.2832 235.821 56.5552L242.291 26.7221H250.868L249.287 33.8856H261.401L259.97 40.5334H247.856L244.243 57.3698C243.793 59.5352 243.977 61.2995 244.802 62.6463C245.628 64.0012 247.293 64.6725 249.812 64.6725C250.613 64.6725 251.418 64.6152 252.219 64.4924C253.02 64.3696 253.9 64.1568 254.852 63.8702L256.433 70.0718C255.027 70.6122 253.675 71.0051 252.37 71.2548C251.064 71.5004 249.762 71.6232 248.457 71.6232L248.461 71.6191Z" fill="#001E37"/>
</g>
</g>
<defs>
<clipPath id="clip0_2622_492">
<rect width="240.695" height="65.4954" fill="white" transform="translate(20.8889 20.8889)"/>
</clipPath>
</defs>
</svg>
