<svg width="64" height="24" viewBox="0 0 64 24" fill="none" xmlns="http://www.w3.org/2000/svg">
<g clip-path="url(#clip0_3822_6348)">
<path d="M0 4.8C0 2.14903 3.58172 0 8 0H56C60.4183 0 64 2.14903 64 4.8V19.2C64 21.851 60.4183 24 56 24H8C3.58172 24 0 21.851 0 19.2V4.8Z" fill="white"/>
<mask id="mask0_3822_6348" style="mask-type:alpha" maskUnits="userSpaceOnUse" x="4" y="-5" width="64" height="24">
<rect x="4" y="-5" width="64" height="24" fill="white"/>
</mask>
<g mask="url(#mask0_3822_6348)">
</g>
<mask id="mask1_3822_6348" style="mask-type:luminance" maskUnits="userSpaceOnUse" x="4" y="6" width="56" height="16">
<path d="M59.7531 6.07617H4V21.2569H59.7531V6.07617Z" fill="white"/>
</mask>
<g mask="url(#mask1_3822_6348)">
<path d="M57.4496 12.3868C56.1913 12.3868 55.1715 11.3722 55.1715 10.1207V10.0559C55.1715 8.80438 56.1913 7.78979 57.4496 7.78979C58.7079 7.78979 59.7281 8.80438 59.7281 10.0559V10.1207C59.7281 11.3722 58.7079 12.3868 57.4496 12.3868Z" fill="#FF8200"/>
<path d="M13.8437 17.7511H12.1309C11.6081 17.7511 11.3016 17.5864 11.1033 17.0191L9.3533 11.0401L11.8975 10.5224L12.0135 10.8965C12.4462 12.4519 12.753 14.0365 13.0234 15.5735C13.2939 14.0365 14.2329 10.8342 14.6476 9.27885L14.9432 8.17401L17.6781 7.59308L14.8714 17.0191C14.6731 17.5864 14.3666 17.7511 13.8437 17.7511ZM7.95799 15.6284L8.74637 12.9385C8.76442 12.8836 8.78243 12.847 8.83651 12.847C8.89062 12.847 8.90864 12.8836 8.92668 12.9385L9.89528 16.2872L9.66089 17.0191C9.4626 17.5864 9.15608 17.7511 8.63322 17.7511H6.99256C6.46971 17.7511 6.16321 17.5864 5.96489 17.0191L4 9.58923L6.34483 9.02674L6.84951 10.9806C7.28221 12.536 7.65147 14.0914 7.95799 15.6284ZM21.1387 12.1313H21.8599C22.1664 12.1313 22.2565 12.2411 22.2565 12.4973V14.1442H21.1567C20.5437 14.1442 20.3274 14.3272 20.3274 14.9127C20.3274 15.4983 20.5437 15.6813 21.1567 15.6813H22.7433C22.8515 15.6813 22.9056 15.6629 22.9777 15.6263L23.1039 15.5532C23.194 15.4982 23.194 15.4617 23.194 15.3702V11.5641C23.194 11.253 23.14 11.0517 23.0318 10.9419C22.9056 10.8138 22.6892 10.7772 22.3466 10.7772H21.4812C20.4175 10.7772 19.8045 10.9785 19.1374 11.4177L18.0917 9.67933C18.9932 8.91079 20.0389 8.58142 21.337 8.58142H22.4909C23.6448 8.58142 24.4561 8.8376 24.979 9.38655C25.4477 9.88063 25.7001 10.6125 25.7001 11.6556V16.0472C25.7001 16.6328 25.5739 16.8524 24.9429 17.2366L24.6364 17.4196C24.0594 17.7673 23.7349 17.8588 23.0858 17.8588H21.1387C20.0569 17.8588 19.1735 17.6392 18.5966 17.0902C18.1278 16.6328 17.8573 15.9191 17.8573 14.9859C17.8573 14.0527 18.1278 13.339 18.5966 12.8816C19.1735 12.3326 20.0569 12.1313 21.1387 12.1313ZM32.6517 15.9761L31.4617 12.6092L32.7418 8.5835H35.4823L32.832 15.9761C32.8139 16.031 32.7959 16.0676 32.7418 16.0676C32.6877 16.0676 32.6697 16.031 32.6517 15.9761ZM26.9724 19.1051H27.6756C28.2886 19.1051 28.5771 19.0503 28.8655 18.8856C29.172 18.7026 29.3163 18.5196 29.4785 18.117L29.5867 17.8425C29.6227 17.7327 29.6227 17.6596 29.5867 17.5498L26.1611 8.5835H28.9917L31.9665 16.9642C32.0387 17.1472 32.0567 17.2387 32.0567 17.4583V17.9158C32.0567 18.1353 32.0387 18.2451 31.9665 18.4281L31.9125 18.5745C31.4798 19.7273 31.1011 20.3129 30.4701 20.7337C29.9833 21.0631 29.2982 21.2278 28.2525 21.2278H27.3691L26.9003 19.2149C26.8823 19.1417 26.9183 19.1051 26.9724 19.1051ZM37.3934 16.9642C36.7443 16.3238 36.528 15.6101 36.528 14.3658V6.58841L39.0341 6.07617V14.3658C39.0341 14.8782 39.1063 15.1527 39.3225 15.354C39.5387 15.5552 39.8994 15.6284 40.4584 15.6284H40.873V17.7511H40.3683C39.2324 17.7511 38.0426 17.6047 37.3934 16.9642ZM46.5404 17.8588H45.134C43.9982 17.8588 43.169 17.6026 42.6461 17.0536C42.1772 16.5596 41.9248 15.8093 41.9248 14.7846V11.6556C41.9248 10.6309 42.1772 9.88063 42.6461 9.38655C43.169 8.8376 43.9982 8.58142 45.134 8.58142H46.5583C47.6942 8.58142 48.5237 8.8376 49.0466 9.38655C49.5152 9.88063 49.7675 10.6309 49.7675 11.6556V13.3573C49.7675 13.9612 49.5152 14.2174 48.8482 14.2174H45.3685V12.2411H47.2978V11.5641C47.2978 11.253 47.2435 11.0517 47.1355 10.9419C47.009 10.8138 46.7928 10.7772 46.4504 10.7772H45.2784C44.9357 10.7772 44.7194 10.8138 44.5933 10.9419C44.485 11.0517 44.431 11.253 44.431 11.5641V14.8761C44.431 15.1872 44.485 15.3885 44.5933 15.4983C44.7194 15.6263 44.9357 15.6629 45.2784 15.6629H46.3961C47.4601 15.6629 48.073 15.4617 48.74 15.0225L49.7857 16.7608C48.9562 17.4745 47.9286 17.8588 46.5404 17.8588ZM57.0576 17.8588H55.0926C53.9567 17.8588 53.0911 17.6209 52.5685 17.0719C52.0996 16.5779 51.8834 15.8093 51.8834 14.7846V10.9947H50.5309V8.79892H51.8834V6.61932L54.3892 6.08077V14.7297C54.3892 15.0408 54.4435 15.2421 54.5515 15.3519C54.6776 15.48 54.8942 15.5166 55.2366 15.5166H57.0576V17.8588Z" fill="#00809A"/>
</g>
</g>
<defs>
<clipPath id="clip0_3822_6348">
<rect width="64" height="24" fill="white"/>
</clipPath>
</defs>
</svg>
