<svg width="64" height="40" viewBox="0 0 64 40" fill="none" xmlns="http://www.w3.org/2000/svg">
<g clip-path="url(#clip0_4010_6311)">
<path d="M0 8C0 3.58172 3.58172 0 8 0H56C60.4183 0 64 3.58172 64 8V32C64 36.4183 60.4183 40 56 40H8C3.58172 40 0 36.4183 0 32V8Z" fill="white"/>
<g clip-path="url(#clip1_4010_6311)">
<path d="M52.9144 12.928C52.9144 15.5238 52.9144 18.1193 52.9144 20.7145C52.9144 21.5579 52.9893 21.6307 53.8234 21.638C54.2903 21.638 54.7594 21.638 55.2222 21.6484C55.2695 21.6576 55.3155 21.6722 55.3594 21.6921V23.9135C54.3486 23.8521 53.3429 23.8719 52.3694 23.7055C51.136 23.5027 50.5734 22.6 50.5484 21.04C50.5338 20.0603 50.5484 19.0796 50.5484 18.0999V17.504H49.3347V15.4448H50.5453C50.5453 14.9102 50.565 14.4183 50.539 13.9274C50.5193 13.5593 50.6066 13.3804 51.0226 13.3221C51.5572 13.2473 52.0772 13.0642 52.6024 12.928H52.9144Z" fill="#00819C"/>
<path d="M38.5904 12.928C38.6039 13.787 38.6268 14.645 38.6299 15.5041C38.6362 17.1036 38.6299 18.7041 38.6299 20.3037C38.6299 21.5454 38.7735 21.6921 40.01 21.7534C40.114 21.7534 40.2097 21.7825 40.322 21.8002V23.6649C38.5665 24.1995 36.655 23.2313 36.3492 21.638C36.2871 21.2645 36.2592 20.8861 36.266 20.5075C36.2587 18.3058 36.266 16.1031 36.2556 13.9014C36.2556 13.5385 36.318 13.3502 36.7371 13.2961C37.2571 13.2306 37.7615 13.0559 38.2732 12.928H38.5904Z" fill="#00819C"/>
<path d="M6 16.1279L8.21936 15.6714C8.7144 17.6287 9.20424 19.5683 9.71488 21.5838L10.4481 19.2095H10.576C10.8287 20.0716 11.0586 20.9421 11.3435 21.7939C11.4756 22.1813 11.4653 22.6031 11.3144 22.9836C11.1293 23.5036 10.8069 23.7751 10.2411 23.7584C9.80952 23.7449 9.37792 23.7584 8.94528 23.7584C8.20896 23.7584 7.95936 23.5743 7.76904 22.864C7.248 20.9078 6.7332 18.9526 6.208 16.9995C6.14823 16.8089 6.07881 16.6214 6 16.4379V16.1279Z" fill="#00819C"/>
<path d="M44.5372 20.4555V18.6251H46.2844C46.2844 18.3838 46.2844 18.1997 46.2844 18.0156C46.274 17.4623 46.1346 17.3074 45.5855 17.2876C45.1539 17.272 44.7213 17.2783 44.2897 17.2876C43.8737 17.2991 43.6605 17.4956 43.6657 17.9345C43.6761 19.0005 43.673 20.0665 43.6657 21.1335C43.6657 21.4663 43.7697 21.7513 44.1243 21.7648C45.311 21.8106 46.5163 21.9375 47.6478 21.1918L48.6306 22.8079C47.8839 23.4975 47.003 23.7855 46.0629 23.8375C45.2188 23.8887 44.3719 23.8675 43.5315 23.7741C42.1577 23.6119 41.438 22.9629 41.3475 21.5901C41.2615 20.1163 41.2859 18.6382 41.4203 17.168C41.5077 16.1135 42.3324 15.4 43.413 15.3272C44.4455 15.2565 45.4817 15.2565 46.5142 15.3272C47.6229 15.4052 48.4143 16.1769 48.5402 17.271C48.6338 18.0874 48.6202 18.9173 48.6244 19.741C48.6244 20.1175 48.4466 20.444 48.0264 20.4523C46.872 20.4711 45.7176 20.4555 44.5372 20.4555Z" fill="#00819C"/>
<path d="M23.0143 20.4275C22.563 20.4275 22.1823 20.4275 21.8079 20.4275C21.3566 20.4337 21.2328 20.7052 21.2307 21.1087C21.2287 21.5122 21.3743 21.7857 21.8079 21.8003C22.3435 21.818 22.8791 21.8097 23.4147 21.8065C23.7361 21.8065 23.8651 21.6422 23.8619 21.3177C23.8501 20.2008 23.8501 19.0835 23.8619 17.9658C23.8619 17.5145 23.6539 17.294 23.2078 17.2877C22.1376 17.2701 21.0602 17.2191 20.0992 17.8951C19.7643 17.3418 19.4471 16.8177 19.1216 16.2779C19.7061 15.7423 20.3759 15.4053 21.1174 15.3325C22.0097 15.2374 22.9088 15.2228 23.8037 15.2889C25.3845 15.4189 26.1323 16.1843 26.2061 17.7755C26.2758 19.2679 26.2383 20.7655 26.2155 22.261C26.2104 22.5171 26.1068 22.7615 25.9263 22.9433C25.3023 23.4633 24.6097 23.8897 23.7423 23.8585C22.8115 23.8262 21.8755 23.8429 20.952 23.7472C19.8371 23.6328 19.1435 22.9256 18.9625 21.8253C18.6817 20.1228 19.2953 18.7053 21.3399 18.5503C21.7559 18.5191 22.1719 18.5191 22.5827 18.5129C22.876 18.5077 23.0268 18.647 23.0206 18.9538C23.0081 19.4177 23.0143 19.8805 23.0143 20.4275Z" fill="#00819C"/>
<path d="M14.4053 21.4246C14.8972 19.613 15.3829 17.8325 15.8613 16.051C16.192 14.8175 16.192 14.8175 17.44 14.5918C17.8446 14.518 18.2481 14.4338 18.7494 14.335C18.4665 15.2762 18.2044 16.1498 17.9434 17.0223C17.3617 18.9637 16.7807 20.905 16.2004 22.8463C15.9716 23.6024 15.7521 23.7584 14.9804 23.7615C14.5312 23.7615 14.0808 23.7522 13.6284 23.7615C13.0845 23.7761 12.7372 23.5265 12.5884 23.0169C12.0549 21.2042 11.5266 19.3946 10.9785 17.5226C11.7689 17.3582 12.5385 17.2002 13.4152 17.0192C13.747 18.496 14.0715 19.9416 14.4053 21.4246Z" fill="#00819C"/>
<path d="M26.6388 15.2317C27.4708 15.2317 28.229 15.2161 28.9882 15.2452C29.0711 15.2611 29.1492 15.2962 29.2162 15.3477C29.2832 15.3992 29.3372 15.4656 29.374 15.5416C30.2809 18.0376 31.2013 20.5336 32.052 23.0525C32.6157 24.7248 31.0276 26.8121 29.1514 26.9452C28.7053 26.9775 28.255 26.9504 27.7537 26.9504C27.6039 26.3264 27.4542 25.6962 27.2919 25.0129C27.7308 24.9869 28.1364 24.9349 28.5399 24.9464C29.3719 24.9682 30.0053 23.9178 29.6756 23.1284C28.6606 20.6896 27.7526 18.2072 26.8052 15.7444C26.7522 15.5999 26.7116 15.4543 26.6388 15.2317Z" fill="#00819C"/>
<path d="M57.8959 16.672C57.891 16.9519 57.831 17.2282 57.7193 17.485C57.6076 17.7418 57.4464 17.9741 57.245 18.1686C57.0435 18.363 56.8058 18.516 56.5452 18.6186C56.2847 18.7212 56.0065 18.7714 55.7265 18.7665C55.4465 18.7616 55.1702 18.7016 54.9134 18.5899C54.6567 18.4782 54.4244 18.3171 54.2299 18.1156C54.0354 17.9142 53.8825 17.6764 53.7799 17.4158C53.6773 17.1553 53.627 16.8771 53.6319 16.5971C53.6368 16.3171 53.6969 16.0408 53.8085 15.7841C53.9202 15.5273 54.0814 15.295 54.2828 15.1005C54.4843 14.906 54.7221 14.7531 54.9826 14.6505C55.2432 14.5479 55.5214 14.4976 55.8014 14.5025C56.0813 14.5074 56.3576 14.5675 56.6144 14.6791C56.8712 14.7908 57.1034 14.952 57.2979 15.1534C57.4924 15.3549 57.6454 15.5927 57.748 15.8532C57.8506 16.1138 57.9008 16.392 57.8959 16.672Z" fill="#FF8300"/>
<path d="M35.328 15.2317C34.4762 17.6081 33.6536 19.8857 32.832 22.1664L32.7072 22.1726C32.4638 21.507 32.2621 20.8206 31.9688 20.18C31.5975 19.3688 31.5674 18.6065 31.9293 17.7745C32.2361 17.0704 32.4014 16.305 32.6635 15.5801C32.7166 15.4345 32.9204 15.2535 33.0618 15.2473C33.7836 15.2161 34.5085 15.2317 35.328 15.2317Z" fill="#00819C"/>
</g>
</g>
<defs>
<clipPath id="clip0_4010_6311">
<rect width="64" height="40" fill="white"/>
</clipPath>
<clipPath id="clip1_4010_6311">
<rect width="52" height="14.144" fill="white" transform="translate(6 12.928)"/>
</clipPath>
</defs>
</svg>
