<svg width="64" height="40" viewBox="0 0 64 40" fill="none" xmlns="http://www.w3.org/2000/svg">
<path d="M0 8C0 3.58172 3.58172 0 8 0H56C60.4183 0 64 3.58172 64 8V32C64 36.4183 60.4183 40 56 40H8C3.58172 40 0 36.4183 0 32V8Z" fill="white"/>
<mask id="mask0" mask-type="alpha" maskUnits="userSpaceOnUse" x="8" y="4" width="48" height="32">
<rect x="8" y="4" width="48" height="32" fill="white"/>
</mask>
<g mask="url(#mask0)">
<path d="M35.797 19.47L32.8157 16.2237L29.503 19.1388L32.4844 22.4514L35.797 19.47Z" fill="#137ABE"/>
<path d="M27.1179 13.5736L30.0993 16.8199L33.4119 13.9048L30.4306 10.6584L27.1179 13.5736Z" fill="#137ABE"/>
<path d="M38.1159 25.1015L35.1345 21.8551L31.8219 24.8365L34.8032 28.0829L38.1159 25.1015Z" fill="#137ABE"/>
<path d="M34.6707 30.5342L29.238 24.5052L30.7618 23.1802L26.9192 18.94L28.443 17.615L24.6003 13.3748L30.6293 8.00833L32.5506 10.0622L35.8633 7.2133L37.7846 9.20088L39.0434 8.07459C38.7784 7.94208 38.4471 7.74332 38.1821 7.61082C36.2608 6.81579 34.207 6.28577 32.0206 6.28577C24.4016 6.28577 18.1738 12.4473 18.1738 20.0001C18.1738 27.5528 24.4016 33.7143 32.0869 33.7143C34.6045 33.7143 36.9233 33.0518 38.9109 31.9255C39.5734 31.528 40.1697 31.1305 40.766 30.733L37.9834 27.6191L34.6707 30.5342Z" fill="#137ABE"/>
<path d="M33.2132 11.9835L35.3995 14.4348L37.9171 12.2485L35.6645 9.79715L33.2132 11.9835Z" fill="#137ABE"/>
<path d="M40.1697 17.1512L37.9171 14.6998L35.4658 16.9524L37.7183 19.3375L40.1697 17.1512Z" fill="#137ABE"/>
<path d="M42.2898 22.3189L40.0372 19.8675L37.5858 22.0539L39.8384 24.5715L42.2898 22.3189Z" fill="#137ABE"/>
<path d="M42.4223 14.2361L40.766 15.6936L42.2898 17.35L43.8798 15.8924L42.4223 14.2361Z" fill="#137ABE"/>
<path d="M42.886 20.5301L44.3436 22.1864L45.9999 20.7288L44.4761 19.0725L42.886 20.5301Z" fill="#137ABE"/>
<path d="M38.6459 10.8572L40.1697 12.5135L41.7597 11.056L40.3022 9.39964L38.6459 10.8572Z" fill="#137ABE"/>
<path d="M39.7722 27.0228L42.0248 29.4742L44.4761 27.2878L42.2235 24.8365L39.7722 27.0228Z" fill="#137ABE"/>
</g>
</svg>
