<svg width="64" height="24" viewBox="0 0 64 24" fill="none" xmlns="http://www.w3.org/2000/svg">
<path fill-rule="evenodd" clip-rule="evenodd" d="M8.06577 3.00001C9.29536 2.99805 10.5089 3.2928 11.6129 3.86152C11.7819 3.94701 11.9479 4.03908 12.1169 4.13773L11.3718 4.84141L10.2541 3.62477L8.37571 5.39383L7.25492 4.10813L3.72974 7.43909L5.98698 10.0532L5.10099 10.872L7.3238 13.5025L6.44094 14.3213L9.61861 18.0337L11.497 16.2087L13.125 18.1619C12.7888 18.4388 12.433 18.6884 12.0606 18.9084C10.983 19.545 9.78082 19.9139 8.54638 19.9866C7.31195 20.0594 6.07805 19.8341 4.9394 19.3281C3.80075 18.8221 2.78762 18.0488 1.97777 17.0676C1.16793 16.0864 0.582901 14.9233 0.267595 13.6677C-0.0477117 12.4121 -0.0849126 11.0972 0.158847 9.82415C0.402607 8.55106 0.920846 7.35356 1.67379 6.32355C2.42673 5.29355 3.39435 4.45844 4.50239 3.88231C5.61042 3.30618 6.8294 3.00436 8.06577 3.00001Z" fill="#0761AF"/>
<path fill-rule="evenodd" clip-rule="evenodd" d="M6.5625 11.3992L8.63576 9.53845L10.5 11.6041L8.43012 13.4615L6.5625 11.3992Z" fill="#0761AF"/>
<path fill-rule="evenodd" clip-rule="evenodd" d="M7.875 15.013L9.94648 13.1538L11.8125 15.2177L9.74102 17.0769L7.875 15.013Z" fill="#0761AF"/>
<path fill-rule="evenodd" clip-rule="evenodd" d="M5.25 7.47454L7.32326 5.61536L9.1875 7.67925L7.11762 9.53843L5.25 7.47454Z" fill="#0761AF"/>
<path fill-rule="evenodd" clip-rule="evenodd" d="M9.1875 6.85438L10.5689 5.61536L11.8125 6.99172L10.4311 8.23074L9.1875 6.85438Z" fill="#0761AF"/>
<path fill-rule="evenodd" clip-rule="evenodd" d="M11.8125 13.3914L13.1939 12.1538L14.4375 13.5286L13.0561 14.7692L11.8125 13.3914Z" fill="#0761AF"/>
<path fill-rule="evenodd" clip-rule="evenodd" d="M13.125 16.0099L14.5064 14.7693L15.75 16.1441L14.3686 17.3847L13.125 16.0099Z" fill="#0761AF"/>
<path fill-rule="evenodd" clip-rule="evenodd" d="M13.125 9.47123L14.5049 8.23071L15.75 9.61006L14.3701 10.8461L13.125 9.47123Z" fill="#0761AF"/>
<path fill-rule="evenodd" clip-rule="evenodd" d="M11.8125 6.23561L13.1924 5.61536L14.4375 6.30503L13.0576 6.92305L11.8125 6.23561Z" fill="#0761AF"/>
<path fill-rule="evenodd" clip-rule="evenodd" d="M14.4375 12.0822L15.8174 10.8462L17.0625 12.2211L15.6826 13.4616L14.4375 12.0822Z" fill="#0761AF"/>
<path fill-rule="evenodd" clip-rule="evenodd" d="M10.5 9.46974L11.8814 8.23071L13.125 9.60707L11.7436 10.8461L10.5 9.46974Z" fill="#0761AF"/>
<path fill-rule="evenodd" clip-rule="evenodd" d="M39.4008 8.61856L39.3586 8.64718L39.3192 8.61856C39.0417 8.35844 38.6749 8.21967 38.2977 8.23218C37.3606 8.23218 36.75 8.89332 36.75 9.9294V14.7692H37.6871V9.9294C37.6871 9.23963 38.1486 9.18525 38.2977 9.18525C38.4441 9.18332 38.5869 9.23172 38.7029 9.32263C38.7756 9.40434 38.8311 9.50033 38.866 9.60469C38.9008 9.70904 38.9143 9.81955 38.9055 9.9294V14.7692H39.8426V9.9294C39.8426 9.23963 40.3041 9.18525 40.4532 9.18525C40.6005 9.18356 40.7441 9.23191 40.8613 9.32263C40.934 9.40434 40.9895 9.50033 41.0243 9.60469C41.0591 9.70904 41.0726 9.81955 41.0639 9.9294V14.7692H41.9981V9.9294C42.0089 9.6952 41.9736 9.46117 41.8944 9.241C41.8151 9.02084 41.6935 8.81896 41.5366 8.64718C41.242 8.37125 40.8536 8.22246 40.4532 8.23218C40.066 8.21472 39.6877 8.3536 39.4008 8.61856Z" fill="#0761AF"/>
<path fill-rule="evenodd" clip-rule="evenodd" d="M46.7044 11.3332C46.3217 11.0207 45.8117 10.8462 45.2813 10.8462C44.7508 10.8462 44.2408 11.0207 43.8581 11.3332C43.4021 11.7548 43.3125 12.3491 43.3125 12.8133C43.3125 13.2776 43.4021 13.8607 43.8581 14.2823C44.2408 14.5948 44.7508 14.7693 45.2813 14.7693C45.8117 14.7693 46.3217 14.5948 46.7044 14.2823C47.1604 13.8607 47.25 13.2664 47.25 12.8133C47.25 12.3603 47.1604 11.7548 46.7044 11.3332ZM46.3618 12.9748C46.3618 13.3314 46.3618 13.7328 46.0429 14.0244C45.9402 14.1082 45.8186 14.1735 45.6854 14.2163C45.5523 14.2591 45.4103 14.2785 45.2681 14.2733C45.1301 14.2763 44.9928 14.2559 44.8643 14.2131C44.7358 14.1704 44.6186 14.1062 44.5196 14.0244C44.2007 13.7328 44.2007 13.3314 44.2007 12.9748V12.6407C44.2007 12.2841 44.2007 11.8826 44.5196 11.6023C44.6159 11.5168 44.7324 11.4496 44.8614 11.4051C44.9904 11.3607 45.129 11.34 45.2681 11.3444C45.4114 11.3379 45.5546 11.3576 45.6883 11.4021C45.8219 11.4465 45.9428 11.5148 46.0429 11.6023C46.3618 11.8826 46.3618 12.2751 46.3618 12.6407V12.9748Z" fill="#0761AF"/>
<path fill-rule="evenodd" clip-rule="evenodd" d="M48.5625 10.9253H49.3825V11.265C49.5945 11.1413 49.828 11.0415 50.0761 10.9686C50.3304 10.8818 50.6066 10.8405 50.8843 10.8477C51.1094 10.8388 51.3343 10.8687 51.5427 10.9353C51.7511 11.0019 51.9378 11.1036 52.0893 11.2331C52.3744 11.5096 52.5197 11.8574 52.4978 12.2112V14.7693H51.5926V12.145C51.5926 11.5203 51.0812 11.3562 50.658 11.3562C50.2029 11.3691 49.7702 11.513 49.4442 11.7597V14.7693H48.5625V10.9253Z" fill="#0761AF"/>
<path fill-rule="evenodd" clip-rule="evenodd" d="M57.4765 13.9538C57.2949 14.0235 57.1063 14.0813 56.9127 14.1264C56.6768 14.1908 56.4291 14.2234 56.1797 14.2228C55.9857 14.2396 55.7894 14.221 55.6059 14.1684C55.4223 14.1158 55.2562 14.0306 55.1203 13.9193C54.9843 13.808 54.8821 13.6735 54.8214 13.526C54.7608 13.3785 54.7432 13.222 54.7701 13.0683V12.9697H57.7049V12.7971C57.7049 12.1919 57.6767 11.6965 57.2003 11.2952C57.0217 11.1478 56.8062 11.0317 56.5678 10.9545C56.3294 10.8773 56.0733 10.8406 55.816 10.8469C55.5427 10.8415 55.2712 10.8831 55.0201 10.969C54.769 11.0549 54.5443 11.183 54.3613 11.3445C53.9726 11.7446 53.7793 12.2431 53.8172 12.7478C53.8172 13.1692 53.8989 13.7969 54.381 14.2272C54.5912 14.4078 54.8485 14.5497 55.1348 14.643C55.4211 14.7363 55.7296 14.7788 56.0387 14.7675C56.4233 14.7753 56.8061 14.7243 57.1664 14.6173C57.3658 14.5509 57.5606 14.4761 57.75 14.3931L57.4681 13.9448L57.4765 13.9538ZM54.7729 12.3846C54.7461 12.0978 54.8546 11.8133 55.0774 11.5866C55.167 11.506 55.2779 11.442 55.4022 11.3994C55.5264 11.3568 55.661 11.3365 55.7963 11.34C55.917 11.3338 56.0381 11.3468 56.1524 11.3784C56.2666 11.4099 56.3718 11.4594 56.4616 11.5238C56.5828 11.6289 56.6736 11.7538 56.7276 11.8897C56.7817 12.0256 56.7977 12.1693 56.7745 12.3107V12.4743H54.7644L54.7729 12.3846Z" fill="#0761AF"/>
<path fill-rule="evenodd" clip-rule="evenodd" d="M63 10.8462L60.7874 16.1692C60.6788 16.4737 60.4978 16.7587 60.2543 17.0085C60.1134 17.1321 59.9406 17.2297 59.7478 17.2945C59.555 17.3594 59.3469 17.3899 59.1379 17.3839C58.8273 17.3868 58.5211 17.3249 58.2495 17.2043C58.0788 17.1256 57.9211 17.0301 57.7802 16.92L58.2663 16.4266C58.3552 16.4955 58.4529 16.5566 58.558 16.6089C58.7196 16.6846 58.9037 16.7244 59.091 16.7243C59.2061 16.7257 59.32 16.7056 59.4236 16.6656C59.5272 16.6255 59.6177 16.5666 59.6877 16.4936C59.8147 16.3169 59.9181 16.1299 59.9962 15.9359L60.1236 15.5738L57.75 10.8462H58.863L60.2845 13.6753C60.4204 13.9366 60.5325 14.2055 60.6197 14.4798H60.6533C60.7651 14.1212 60.9005 13.7677 61.0589 13.4205L62.0647 10.8489L63 10.8462Z" fill="#0761AF"/>
<path fill-rule="evenodd" clip-rule="evenodd" d="M21.6256 14.3743L21.6572 14.3343L21.7098 14.3743C22.0685 14.632 22.5334 14.7698 23.0114 14.7603C24.1762 14.7603 24.9375 14.0856 24.9375 13.065V8.23071H23.7552V13.0736C23.7552 13.7625 23.1798 13.8054 23.0114 13.8054C22.8258 13.8155 22.6428 13.7651 22.5027 13.6653C22.4122 13.5866 22.3429 13.4932 22.2994 13.3913C22.2559 13.2893 22.2391 13.1811 22.2501 13.0736V8.23071H21.0678V13.0736C21.0678 13.7625 20.4924 13.8054 20.3065 13.8054C20.2172 13.8104 20.1277 13.8006 20.0432 13.7765C19.9588 13.7524 19.8812 13.7146 19.8153 13.6653C19.7248 13.5866 19.6555 13.4932 19.612 13.3913C19.5685 13.2893 19.5517 13.1811 19.5627 13.0736V8.23071H18.3769V13.0736C18.365 13.3056 18.4097 13.5373 18.5084 13.7552C18.6072 13.9731 18.7581 14.1728 18.9523 14.3429C19.3174 14.6244 19.8039 14.7774 20.3065 14.7688C20.7903 14.7717 21.2589 14.6315 21.6256 14.3743Z" fill="#0761AF"/>
<path fill-rule="evenodd" clip-rule="evenodd" d="M29.8901 13.9559C29.7129 14.0234 29.5303 14.0813 29.3434 14.1292C29.1064 14.1941 28.8575 14.2268 28.6069 14.226C28.4099 14.2341 28.213 14.2104 28.0279 14.1562C27.8429 14.1021 27.6736 14.0186 27.5304 13.9109C27.2913 13.6724 27.174 13.3711 27.2018 13.0669V12.9679H30.1223V12.7946C30.1223 12.1869 30.0969 11.6895 29.6323 11.2867C29.2478 10.9963 28.7347 10.8381 28.2043 10.8465C27.6739 10.8549 27.1691 11.0293 26.7996 11.3317C26.407 11.7324 26.2134 12.2338 26.2557 12.7406C26.2557 13.1637 26.3237 13.7939 26.8223 14.226C27.0362 14.4044 27.2952 14.545 27.5822 14.6385C27.8692 14.7319 28.1778 14.7762 28.4879 14.7684C28.875 14.7711 29.2593 14.7161 29.621 14.6063C29.8172 14.5436 30.0066 14.4684 30.1875 14.3813L29.9042 13.9469L29.8901 13.9559ZM27.2018 12.3805C27.1737 12.0906 27.2862 11.8031 27.5163 11.577C27.6043 11.497 27.7133 11.4334 27.8357 11.3906C27.9581 11.3478 28.0908 11.3269 28.2244 11.3294C28.3464 11.3251 28.4683 11.3399 28.583 11.3732C28.6978 11.4064 28.8031 11.4573 28.893 11.523C29.0183 11.6294 29.1117 11.7569 29.1661 11.8961C29.2206 12.0352 29.2347 12.1824 29.2074 12.3265V12.4795H27.2018V12.3805Z" fill="#0761AF"/>
<path fill-rule="evenodd" clip-rule="evenodd" d="M34.7302 10.3321C34.3659 10.0239 33.9026 9.85624 33.4245 9.8595C33.2186 9.86508 33.0135 9.88766 32.8113 9.92701C32.6756 9.96639 32.4976 10.0339 32.3478 10.0902V8.23071H31.5V14.2648C32.0376 14.59 32.6541 14.7631 33.2832 14.7655C33.6018 14.7848 33.9204 14.7271 34.2117 14.5973C34.5031 14.4675 34.7585 14.2695 34.9563 14.0201C35.2974 13.507 35.4648 12.8988 35.4339 12.2844C35.4339 11.7696 35.3943 10.8778 34.7387 10.3321H34.7302ZM33.2606 10.4699C33.4276 10.4634 33.5943 10.4899 33.751 10.5479C33.9076 10.6058 34.0512 10.6941 34.1735 10.8075C34.473 11.1338 34.473 11.6205 34.473 12.0425V12.4475C34.473 13.2493 34.3374 13.5728 34.213 13.75C34.1025 13.8823 33.9624 13.9869 33.8038 14.0553C33.6452 14.1237 33.4727 14.154 33.3002 14.1438C33.1088 14.1327 32.9193 14.1007 32.735 14.0482C32.598 13.9954 32.4657 13.9314 32.3393 13.8569V10.7625" fill="#0761AF"/>
</svg>
