<svg width="64" height="24" viewBox="0 0 64 24" fill="none" xmlns="http://www.w3.org/2000/svg">
<g clip-path="url(#clip0)">
<mask id="mask0" mask-type="alpha" maskUnits="userSpaceOnUse" x="5" y="-6" width="54" height="38">
<rect x="5" y="-6" width="54" height="38" fill="white"/>
</mask>
<g mask="url(#mask0)">
</g>
<g clip-path="url(#clip1)">
<path d="M12.2253 21.0612V14.8022L16.6503 1.54272H14.7721L11.3163 12.1331L8.31877 3.37673H6.26782L10.3397 14.732V21.0612H12.2253Z" fill="#FF0000"/>
<path d="M20.3691 18.6185C20.0311 19.157 19.3925 19.6018 18.7464 19.6018C17.7923 19.6018 17.3416 18.6653 17.3416 17.2293C17.3416 15.6216 17.8449 14.5602 20.1513 14.5602H20.3691V18.6185ZM22.2022 18.2439V12.3829C22.2022 9.3626 21.0303 8.42608 18.9117 8.42608C17.7022 8.42608 16.6053 8.94116 16.0569 9.40942L16.41 11.1186C17.0335 10.5488 17.8449 10.0338 18.7915 10.0338C19.8433 10.0338 20.3691 10.7205 20.3691 12.3594V13.1008H20.1062C16.7481 13.1008 15.4333 14.7788 15.4333 17.4556C15.4333 19.9062 16.6053 21.2407 18.3182 21.2407C19.37 21.2407 20.0311 20.7647 20.557 20.0779H20.6772C20.6997 20.3979 20.7748 20.7959 20.8424 21.0612H22.4126C22.3224 20.4681 22.2022 19.4301 22.2022 18.2439ZM26.3717 11.3917C26.8 10.7752 27.4611 10.1586 28.2499 10.1586C28.9636 10.1586 29.3693 10.4786 29.3693 11.4151V21.0612H31.2474V11.2434C31.2474 9.33918 30.4135 8.42608 28.8434 8.42608C27.724 8.42608 26.8225 9.1909 26.4844 9.65916H26.3717V8.57436H24.5086V21.0612H26.3717V11.3917ZM36.7241 21.2407C37.7008 21.2407 38.3694 20.7647 38.8953 20.0779H39.0155L39.1582 21.0612H40.5406V3.37671H38.6774V8.89434C38.3243 8.62119 37.7308 8.42608 37.1599 8.42608C34.7483 8.42608 33.0805 10.6737 33.0805 15.3017C33.0805 19.157 34.3727 21.2407 36.7241 21.2407ZM38.6774 18.6419C38.3694 19.1336 37.8736 19.6018 36.942 19.6018C35.5822 19.6018 35.0639 17.8224 35.0639 14.9036C35.0639 12.3594 35.7776 10.0104 37.2726 10.0104C37.8961 10.0104 38.3018 10.2055 38.6774 10.6035V18.6419ZM49.2777 20.2262L48.8495 18.7433C48.3762 19.0867 47.6099 19.5784 46.5657 19.5784C45.0857 19.5784 44.3269 18.0956 44.3269 15.2782H49.3228V14.2091C49.3228 9.97913 48.0156 8.42608 46.0173 8.42608C43.4705 8.42608 42.3962 11.3449 42.3962 15.3485C42.3962 19.1882 43.9212 21.2407 46.3929 21.2407C47.5874 21.2407 48.519 20.8427 49.2777 20.2262ZM46.0173 10.0104C47.0841 10.0104 47.4221 11.5634 47.4221 13.694H44.3495C44.4697 11.4698 44.8753 10.0104 46.0173 10.0104ZM55.5884 8.59778L53.9431 13.1243L52.3955 8.59778H50.4723L52.7336 14.6071L50.2319 21.0612H52.0649L53.8755 15.9182L55.7311 21.0612H57.6618L55.1601 14.4354L57.3989 8.59778H55.5884Z" fill="black"/>
</g>
</g>
<defs>
<clipPath id="clip0">
<rect width="64" height="24" rx="1" fill="white"/>
</clipPath>
<clipPath id="clip1">
<rect width="51.75" height="29.6875" fill="white" transform="translate(6.125 -2.4375)"/>
</clipPath>
</defs>
</svg>
