<svg width="64" height="40" viewBox="0 0 64 40" fill="none" xmlns="http://www.w3.org/2000/svg">
<path d="M0 8C0 3.58172 3.58172 0 8 0H56C60.4183 0 64 3.58172 64 8V32C64 36.4183 60.4183 40 56 40H8C3.58172 40 0 36.4183 0 32V8Z" fill="white"/>
<mask id="mask0" mask-type="alpha" maskUnits="userSpaceOnUse" x="8" y="4" width="48" height="32">
<rect x="8" y="4" width="48" height="32" fill="white"/>
</mask>
<g mask="url(#mask0)">
<path d="M46.0001 17.3471C45.85 16.4463 45.0243 15.8458 43.8983 15.8458C43.523 15.8458 43.2227 15.8458 42.8474 15.8458C42.1718 15.7707 42.0217 15.9959 42.0217 16.5214C42.0217 19.1487 42.0217 21.7009 42.0217 24.3282C42.0217 25.6794 40.6705 27.1056 39.0941 27.4059C34.1398 28.5318 29.1855 29.5828 24.2312 30.7087C23.7057 30.8589 23.1052 30.8589 22.5047 30.8589C22.2795 30.8589 21.9042 30.7087 21.8291 30.4835C21.754 30.3334 21.9792 30.0332 22.1294 29.883C22.3546 29.7329 22.6548 29.5828 22.9551 29.4326C23.8559 29.1324 24.8317 28.8321 25.7325 28.5318C29.4107 27.3308 33.0889 26.1298 36.7671 24.8536C38.4185 24.3282 39.3193 23.2022 39.3193 21.776C39.3944 17.2721 39.3193 12.6931 39.3193 8.18915C39.3193 7.4385 38.944 6.83798 38.1183 6.53772C37.1424 6.16239 36.2416 6.46265 35.4159 6.83797C30.1613 9.31513 24.9818 11.7923 19.7273 14.2694C18.226 15.0201 17.3252 16.071 17.3252 17.5723C17.3252 21.851 17.3252 26.1298 17.3252 30.4085C17.3252 30.6337 17.3252 30.8589 17.4002 31.009C17.9257 32.4352 19.2769 33.336 21.0785 33.336C24.7567 33.336 28.4348 33.336 32.113 33.336C35.7912 33.336 39.3944 33.336 43.0726 33.336C43.8983 33.336 44.5739 33.1859 45.1744 32.6604C45.9251 32.0599 45.9251 31.2342 45.9251 30.4835C45.9251 26.7905 46.0001 17.3471 46.0001 17.3471ZM30.6868 15.9959C31.0621 15.0201 31.8879 14.4196 33.0889 14.2694C33.9146 14.1944 34.5902 14.6448 34.7403 15.3954C34.8905 16.5214 33.5393 17.8726 32.113 17.8726C30.9871 17.8726 30.3115 17.0469 30.6868 15.9959Z" fill="#E47418"/>
</g>
</svg>
