<svg width="64" height="40" viewBox="0 0 64 40" fill="none" xmlns="http://www.w3.org/2000/svg">
<g clip-path="url(#clip0)">
<path d="M0 8C0 3.58172 3.58172 0 8 0H56C60.4183 0 64 3.58172 64 8V32C64 36.4183 60.4183 40 56 40H8C3.58172 40 0 36.4183 0 32V8Z" fill="white"/>
<path d="M20.7331 17.4763C20.652 17.3858 20.5505 17.3632 20.4287 17.3858C20.3069 17.4084 20.2257 17.4763 20.1648 17.5667L17.9323 20.9807L15.6997 17.5667C15.6389 17.4763 15.5577 17.4084 15.4359 17.3858C15.3141 17.3632 15.2126 17.4084 15.1315 17.4763C14.9488 17.6345 14.9082 17.838 15.0503 18.0867L17.5264 21.8173V25.5253C17.5264 25.6383 17.567 25.7513 17.6482 25.8418C17.7293 25.9322 17.8105 25.9774 17.9323 25.9774C18.0338 25.9774 18.1353 25.9322 18.2164 25.8418C18.2976 25.7513 18.3382 25.6609 18.3382 25.5253V21.8173L20.8143 18.0867C20.8752 17.9963 20.8955 17.8832 20.8955 17.7476C20.8549 17.6345 20.8143 17.5215 20.7331 17.4763Z" fill="black"/>
<path d="M26.3753 18.0868C27.1262 18.0868 27.796 18.3581 28.3846 18.8555C28.4658 18.9233 28.5672 18.9685 28.6687 18.9459C28.7905 18.9233 28.8717 18.8781 28.9326 18.7876C29.0138 18.6972 29.0543 18.5842 29.0341 18.4485C29.0138 18.3355 28.9732 18.2224 28.8717 18.132C28.141 17.4989 27.3089 17.1824 26.3753 17.1824C25.2793 17.1824 24.3051 17.612 23.5339 18.4711C22.7626 19.3077 22.3567 20.3477 22.3567 21.5686C22.3567 22.7669 22.7626 23.8069 23.5339 24.6661C24.3051 25.5027 25.2793 25.9322 26.3753 25.9322C27.3089 25.9322 28.141 25.6157 28.8717 25.0053C28.9529 24.9374 29.0138 24.8244 29.0138 24.6887C29.0138 24.5757 28.9935 24.4626 28.9326 24.3722C28.8717 24.2591 28.7905 24.2139 28.6687 24.1913C28.5672 24.1687 28.4658 24.1913 28.3643 24.2817C27.8163 24.8018 27.1262 25.0505 26.2941 25.0505C25.462 25.0505 24.7313 24.7113 24.1021 24.033C23.473 23.3548 23.1685 22.5408 23.1685 21.5686C23.1685 20.619 23.4933 19.7825 24.1021 19.1042C24.711 18.4485 25.4823 18.0868 26.3753 18.0868Z" fill="black"/>
<path d="M46.9552 17.431C46.874 17.3632 46.7725 17.3632 46.6711 17.3632C46.5493 17.3858 46.4681 17.4536 46.4072 17.544L43.8702 21.4781L41.3129 17.544C41.1709 17.3179 40.9679 17.2953 40.7649 17.431L40.7446 17.4536C40.6432 17.544 40.5823 17.6571 40.5823 17.7927V25.5026C40.5823 25.6156 40.6229 25.7287 40.704 25.8191C40.8664 25.9774 41.11 25.9774 41.252 25.8191C41.3332 25.7287 41.3738 25.6382 41.3738 25.5026V19.1041L43.5252 22.4503C43.6064 22.5859 43.7079 22.6538 43.8905 22.6538C44.0326 22.6538 44.1341 22.5859 44.2153 22.4503L46.3666 19.0815V25.5026C46.3666 25.6156 46.4072 25.7287 46.4884 25.8191C46.5696 25.9095 46.6508 25.9548 46.7725 25.9548C46.874 25.9548 46.9755 25.9095 47.0567 25.8191C47.1379 25.7287 47.1785 25.6382 47.1785 25.5026V17.8153C47.1785 17.7023 47.1176 17.5666 47.0161 17.4536L46.9552 17.431Z" fill="black"/>
<path d="M61.8933 17.4535C61.8122 17.3631 61.731 17.3179 61.6092 17.3179H56.5961C56.4946 17.3179 56.3931 17.3631 56.312 17.4535C56.2308 17.544 56.1902 17.6344 56.1902 17.7701C56.1902 17.8831 56.2308 17.9962 56.2917 18.0866C56.3728 18.177 56.454 18.2222 56.5758 18.2222H58.6866V25.5251C58.6866 25.6382 58.7272 25.7512 58.8084 25.8416C58.8895 25.9321 58.9707 25.9773 59.0925 25.9773C59.194 25.9773 59.2955 25.9321 59.3767 25.8416C59.4578 25.7512 59.4984 25.6608 59.4984 25.5251V18.2222H61.6092C61.7107 18.2222 61.8122 18.177 61.8933 18.0866C61.9745 17.9962 61.9948 17.8831 61.9948 17.7701C62.0151 17.657 61.9745 17.544 61.8933 17.4535Z" fill="black"/>
<path d="M11.4577 17.6571C11.3968 17.4762 11.275 17.3857 11.0923 17.3857C10.9097 17.3857 10.7676 17.4762 10.7067 17.6571L8.08855 25.3443C8.04796 25.4573 8.04796 25.5704 8.08855 25.6834C8.12914 25.7965 8.21032 25.8643 8.29151 25.9095L8.43358 25.9321C8.61624 25.9321 8.73802 25.8191 8.79891 25.6382L11.0315 18.991L13.264 25.6382C13.3249 25.8191 13.467 25.9321 13.6496 25.9321L13.7511 25.9095L13.7917 25.8869C13.8932 25.8417 13.9541 25.7512 13.9947 25.6382C14.0353 25.5252 14.0353 25.4121 13.9947 25.2991L11.4577 17.6571Z" fill="black"/>
<path d="M53.9777 17.3406H49.6952C49.472 17.3406 49.2893 17.5441 49.2893 17.7928C49.2893 18.0415 49.472 18.245 49.6952 18.245H53.9777C54.2009 18.245 54.3836 18.0415 54.3836 17.7928C54.3836 17.5441 54.2009 17.3406 53.9777 17.3406Z" fill="black"/>
<path d="M53.9777 21.2068H49.6952C49.472 21.2068 49.2893 21.4103 49.2893 21.659C49.2893 21.9077 49.472 22.1112 49.6952 22.1112H53.9777C54.2009 22.1112 54.3836 21.9077 54.3836 21.659C54.3836 21.4103 54.2009 21.2068 53.9777 21.2068Z" fill="black"/>
<path d="M53.9777 25.0956H49.6952C49.472 25.0956 49.2893 25.2991 49.2893 25.5478C49.2893 25.7965 49.472 26 49.6952 26H53.9777C54.2009 26 54.3836 25.7965 54.3836 25.5478C54.3836 25.2991 54.2009 25.0956 53.9777 25.0956Z" fill="black"/>
<path d="M4.4964 17.3406H3.42072H2.38562C2.30444 17.3406 2.22326 17.3632 2.16237 17.431C2.14207 17.431 2.12178 17.431 2.12178 17.4536C2.06089 17.5215 2.04059 17.5893 2.0203 17.6571C2.0203 17.6797 2.0203 17.7249 2.0203 17.7475C2.0203 17.8606 2.06089 17.9736 2.12178 18.0641C2.20296 18.1545 2.28414 18.1997 2.40592 18.1997H2.81184H3.42072H4.4964C4.90232 18.1997 5.24735 18.358 5.53149 18.6745C5.81564 18.9911 5.95771 19.3754 5.95771 19.8276C5.95771 20.2798 5.81564 20.6642 5.53149 20.9807C5.24735 21.2972 4.90232 21.4781 4.4964 21.4781H3.19746H2.79154H2.38562C2.28414 21.4781 2.18266 21.5233 2.10148 21.6138C2.04059 21.7268 2 21.8399 2 21.9529V25.5252C2 25.6383 2.04059 25.7513 2.12178 25.8417C2.20296 25.9322 2.28414 25.9774 2.40592 25.9774C2.5074 25.9774 2.60888 25.9322 2.69006 25.8643C2.77125 25.7739 2.81184 25.6835 2.81184 25.5478V22.4051L4.5167 22.3825C5.12557 22.3825 5.67356 22.1338 6.12007 21.6364C6.56658 21.139 6.78984 20.5511 6.78984 19.8502C6.78984 19.1493 6.56658 18.5615 6.12007 18.0641C5.65327 17.5893 5.12557 17.3406 4.4964 17.3406Z" fill="black"/>
<path d="M11.3166 23.9875H10.8092C10.586 23.9875 10.4236 24.191 10.4236 24.4171C10.4236 24.6658 10.6062 24.8467 10.8092 24.8467H11.3166C11.5399 24.8467 11.7022 24.6432 11.7022 24.4171C11.7022 24.3041 11.6616 24.191 11.5805 24.1006C11.4993 24.0102 11.4384 23.9875 11.3166 23.9875Z" fill="black"/>
<path d="M36.6249 23.3094L35.7725 24.259C34.7577 25.3895 33.1137 25.3895 32.0989 24.259C31.6118 23.7164 31.3277 22.9929 31.3277 22.2016C31.3277 21.4329 31.5915 20.7094 32.0989 20.1441L34.3721 17.6119C34.5344 17.431 34.5344 17.1597 34.3721 16.9788C34.2097 16.7979 33.9661 16.7979 33.8038 16.9788L31.5306 19.5111C30.8812 20.2346 30.5361 21.1842 30.5361 22.179C30.5361 23.1738 30.8812 24.146 31.5306 24.8469C32.2004 25.593 33.0528 25.9548 33.9256 25.9548C34.7983 25.9548 35.671 25.593 36.3205 24.8469L37.1729 23.8973C37.3353 23.7164 37.3353 23.4451 37.1729 23.2642C37.0105 23.0834 36.767 23.1512 36.6249 23.3094Z" fill="black"/>
<path d="M32.4633 21.4778C32.5445 21.5683 32.646 21.6135 32.7475 21.6135C32.8489 21.6135 32.9504 21.5683 33.0316 21.4778L38.0041 15.9385C38.1665 15.7576 38.1665 15.4863 38.0041 15.3055C37.8417 15.1246 37.5982 15.1246 37.4358 15.3055L32.4633 20.8448C32.301 21.0257 32.301 21.297 32.4633 21.4778Z" fill="black"/>
<path d="M35.9959 19.8953C35.8335 19.7144 35.59 19.7144 35.4276 19.8953L34.0881 21.3875C33.9257 21.5684 33.9257 21.8397 34.0881 22.0206C34.1693 22.111 34.2707 22.1562 34.3722 22.1562C34.4737 22.1562 34.5752 22.111 34.6564 22.0206L35.9959 20.5284C36.1583 20.3475 36.1583 20.0762 35.9959 19.8953Z" fill="black"/>
<path d="M40.4809 14.9212C40.3186 14.7403 40.075 14.7403 39.9126 14.9212L37.3959 17.7248C37.2336 17.9056 37.2336 18.1769 37.3959 18.3578C37.4771 18.4483 37.5786 18.4935 37.6801 18.4935C37.7816 18.4935 37.883 18.4483 37.9642 18.3578L40.4809 15.5542C40.6433 15.3734 40.6433 15.0794 40.4809 14.9212Z" fill="black"/>
<path d="M36.8483 19.579L37.1324 19.2625C37.2948 19.0816 37.2948 18.8103 37.1324 18.6294C36.97 18.4486 36.7265 18.4486 36.5641 18.6294L36.28 18.946C36.1176 19.1268 36.1176 19.3982 36.28 19.579C36.3612 19.6695 36.4626 19.7147 36.5641 19.7147C36.6656 19.7147 36.7671 19.6695 36.8483 19.579Z" fill="black"/>
<path d="M37.6394 22.1794L37.4567 22.3828C37.2944 22.5637 37.2944 22.835 37.4567 23.0159C37.5379 23.1063 37.6394 23.1516 37.7409 23.1516C37.8424 23.1516 37.9438 23.1063 38.025 23.0159L38.2077 22.8124C38.3701 22.6315 38.3701 22.3602 38.2077 22.1794C38.0453 21.9985 37.8018 21.9985 37.6394 22.1794Z" fill="black"/>
<path d="M34.9806 23.8522C35.0821 23.8522 35.1836 23.807 35.2648 23.7165L36.239 22.6313C36.4013 22.4504 36.4013 22.1791 36.239 21.9982C36.0766 21.8173 35.8331 21.8173 35.6707 21.9982L34.6965 23.0835C34.5341 23.2643 34.5341 23.5356 34.6965 23.7165C34.7777 23.807 34.8791 23.8522 34.9806 23.8522Z" fill="black"/>
<path d="M37.9038 19.511L36.5236 21.0484C36.3613 21.2293 36.3613 21.5006 36.5236 21.6815C36.6048 21.7719 36.7063 21.8172 36.8078 21.8172C36.9093 21.8172 37.0107 21.7719 37.0919 21.6815L38.472 20.1441C38.6344 19.9632 38.6344 19.6919 38.472 19.511C38.3097 19.3301 38.0661 19.3527 37.9038 19.511Z" fill="black"/>
<path d="M32.8088 15.1474C32.9103 15.2605 33.0523 15.2605 33.1538 15.1474L33.4582 14.8083C33.5597 14.6952 33.5597 14.537 33.4582 14.4239L33.1538 14.0848C33.0523 13.9717 32.9103 13.9717 32.8088 14.0848L32.5043 14.4239C32.4029 14.537 32.4029 14.6952 32.5043 14.8083L32.8088 15.1474Z" fill="black"/>
<path d="M31.1448 16.9788C31.226 17.0693 31.3477 17.0693 31.4086 16.9788L31.6522 16.7075C31.7333 16.6171 31.7333 16.4814 31.6522 16.4136L31.4086 16.1423C31.3274 16.0519 31.2057 16.0519 31.1448 16.1423L30.9012 16.4136C30.82 16.504 30.82 16.6397 30.9012 16.7075L31.1448 16.9788Z" fill="black"/>
</g>
<defs>
<clipPath id="clip0">
<path d="M0 8C0 3.58172 3.58172 0 8 0H56C60.4183 0 64 3.58172 64 8V32C64 36.4183 60.4183 40 56 40H8C3.58172 40 0 36.4183 0 32V8Z" fill="white"/>
</clipPath>
</defs>
</svg>
